<svg width="104" height="104" viewBox="0 0 104 104" fill="none" xmlns="http://www.w3.org/2000/svg">
<rect width="104" height="104" rx="14.3869" fill="#FDE0E7"/>
<rect x="19" y="65" width="66" height="27" rx="13.5" fill="#FD0E46"/>
<path d="M32.8962 85.166V79.034H34.0722V85.166H32.8962ZM30.3482 82.66V81.554H36.6202V82.66H30.3482ZM43.3044 87L47.7424 77.2H49.1284L53.5804 87H52.1104L48.1484 77.984H48.7084L44.7464 87H43.3044ZM45.1944 84.55L45.5724 83.43H51.0884L51.4944 84.55H45.1944ZM58.8439 87.084C58.1252 87.084 57.4812 86.9253 56.9119 86.608C56.3519 86.2907 55.9086 85.8473 55.5819 85.278C55.2552 84.7087 55.0919 84.046 55.0919 83.29C55.0919 82.534 55.2552 81.876 55.5819 81.316C55.9086 80.7467 56.3519 80.3033 56.9119 79.986C57.4812 79.6687 58.1252 79.51 58.8439 79.51C59.4692 79.51 60.0339 79.65 60.5379 79.93C61.0419 80.21 61.4432 80.63 61.7419 81.19C62.0499 81.75 62.2039 82.45 62.2039 83.29C62.2039 84.13 62.0546 84.83 61.7559 85.39C61.4666 85.95 61.0699 86.3747 60.5659 86.664C60.0619 86.944 59.4879 87.084 58.8439 87.084ZM58.9559 85.908C59.4226 85.908 59.8426 85.8007 60.2159 85.586C60.5986 85.3713 60.8972 85.068 61.1119 84.676C61.3359 84.2747 61.4479 83.8127 61.4479 83.29C61.4479 82.758 61.3359 82.3007 61.1119 81.918C60.8972 81.526 60.5986 81.2227 60.2159 81.008C59.8426 80.7933 59.4226 80.686 58.9559 80.686C58.4799 80.686 58.0552 80.7933 57.6819 81.008C57.3086 81.2227 57.0099 81.526 56.7859 81.918C56.5619 82.3007 56.4499 82.758 56.4499 83.29C56.4499 83.8127 56.5619 84.2747 56.7859 84.676C57.0099 85.068 57.3086 85.3713 57.6819 85.586C58.0552 85.8007 58.4799 85.908 58.9559 85.908ZM61.4899 87V84.998L61.5739 83.276L61.4339 81.554V76.612H62.7779V87H61.4899ZM69.3869 87.084C68.6682 87.084 68.0242 86.9253 67.4549 86.608C66.8949 86.2907 66.4515 85.8473 66.1249 85.278C65.7982 84.7087 65.6349 84.046 65.6349 83.29C65.6349 82.534 65.7982 81.876 66.1249 81.316C66.4515 80.7467 66.8949 80.3033 67.4549 79.986C68.0242 79.6687 68.6682 79.51 69.3869 79.51C70.0122 79.51 70.5769 79.65 71.0809 79.93C71.5849 80.21 71.9862 80.63 72.2849 81.19C72.5929 81.75 72.7469 82.45 72.7469 83.29C72.7469 84.13 72.5975 84.83 72.2989 85.39C72.0095 85.95 71.6129 86.3747 71.1089 86.664C70.6049 86.944 70.0309 87.084 69.3869 87.084ZM69.4989 85.908C69.9655 85.908 70.3855 85.8007 70.7589 85.586C71.1415 85.3713 71.4402 85.068 71.6549 84.676C71.8789 84.2747 71.9909 83.8127 71.9909 83.29C71.9909 82.758 71.8789 82.3007 71.6549 81.918C71.4402 81.526 71.1415 81.2227 70.7589 81.008C70.3855 80.7933 69.9655 80.686 69.4989 80.686C69.0229 80.686 68.5982 80.7933 68.2249 81.008C67.8515 81.2227 67.5529 81.526 67.3289 81.918C67.1049 82.3007 66.9929 82.758 66.9929 83.29C66.9929 83.8127 67.1049 84.2747 67.3289 84.676C67.5529 85.068 67.8515 85.3713 68.2249 85.586C68.5982 85.8007 69.0229 85.908 69.4989 85.908ZM72.0329 87V84.998L72.1169 83.276L71.9769 81.554V76.612H73.3209V87H72.0329Z" fill="white"/>
<g clip-path="url(#clip0_210_6999)">
<path d="M52 52.25C46.8946 52.25 41.9983 50.2219 38.3882 46.6118C34.7781 43.0017 32.75 38.1054 32.75 33C32.75 27.8946 34.7781 22.9983 38.3882 19.3882C41.9983 15.7781 46.8946 13.75 52 13.75C57.1054 13.75 62.0017 15.7781 65.6118 19.3882C69.2219 22.9983 71.25 27.8946 71.25 33C71.25 38.1054 69.2219 43.0017 65.6118 46.6118C62.0017 50.2219 57.1054 52.25 52 52.25ZM52 55C57.8348 55 63.4305 52.6822 67.5564 48.5564C71.6822 44.4305 74 38.8348 74 33C74 27.1652 71.6822 21.5695 67.5564 17.4437C63.4305 13.3179 57.8348 11 52 11C46.1652 11 40.5695 13.3179 36.4437 17.4437C32.3179 21.5695 30 27.1652 30 33C30 38.8348 32.3179 44.4305 36.4437 48.5564C40.5695 52.6822 46.1652 55 52 55Z" fill="#696A6C"/>
<path d="M41.7838 37.3093C42.0996 37.1269 42.4749 37.0775 42.8271 37.1719C43.1794 37.2663 43.4797 37.4967 43.662 37.8125C44.5066 39.2764 45.7219 40.492 47.1857 41.3369C48.6494 42.1817 50.3099 42.626 52 42.625C53.6901 42.626 55.3506 42.1817 56.8144 41.3369C58.2781 40.492 59.4935 39.2764 60.338 37.8125C60.4277 37.6549 60.5476 37.5165 60.6909 37.4054C60.8342 37.2943 60.9981 37.2126 61.1731 37.1651C61.3481 37.1176 61.5307 37.1052 61.7106 37.1286C61.8904 37.1519 62.0638 37.2107 62.2209 37.3013C62.3779 37.392 62.5154 37.5128 62.6256 37.6569C62.7357 37.8009 62.8163 37.9653 62.8627 38.1406C62.909 38.316 62.9202 38.4987 62.8957 38.6784C62.8711 38.858 62.8112 39.0311 62.7195 39.1875C61.6336 41.0695 60.0711 42.6322 58.1893 43.7184C56.3075 44.8046 54.1728 45.376 52 45.375C49.8272 45.376 47.6925 44.8046 45.8107 43.7184C43.9289 42.6322 42.3664 41.0695 41.2805 39.1875C41.0982 38.8717 41.0488 38.4964 41.1432 38.1442C41.2375 37.7919 41.468 37.4916 41.7838 37.3093ZM49.25 28.875C49.25 31.152 48.018 33 46.5 33C44.982 33 43.75 31.152 43.75 28.875C43.75 26.598 44.982 24.75 46.5 24.75C48.018 24.75 49.25 26.598 49.25 28.875ZM60.25 28.875C60.25 31.152 59.018 33 57.5 33C55.982 33 54.75 31.152 54.75 28.875C54.75 26.598 55.982 24.75 57.5 24.75C59.018 24.75 60.25 26.598 60.25 28.875Z" fill="#696A6C"/>
</g>
<defs>
<clipPath id="clip0_210_6999">
<rect width="44" height="44" fill="white" transform="translate(30 11)"/>
</clipPath>
</defs>
</svg>
