<svg width="18" height="21" viewBox="0 0 18 21" fill="none" xmlns="http://www.w3.org/2000/svg">
<path d="M17.4387 10.6892C17.3594 10.1516 17.1791 9.74452 16.9311 9.4365C16.9595 9.37579 16.9862 9.31428 17.0112 9.25205C17.107 9.01271 17.1892 8.73385 17.2391 8.42241C17.2882 8.11116 17.3042 7.76677 17.2648 7.40513C17.2245 7.04428 17.1287 6.66563 16.9594 6.30338C16.7923 5.94047 16.552 5.5973 16.2597 5.30227C16.1133 5.15494 15.9544 5.01943 15.7872 4.89614C15.7036 4.83427 15.6174 4.77657 15.5302 4.72055L15.3977 4.63993L15.2678 4.56605L15.1424 4.49527C15.1009 4.47169 15.0648 4.44919 15.0257 4.42618C14.9874 4.40386 14.9488 4.37939 14.9102 4.35497C14.8717 4.33074 14.8329 4.30669 14.7955 4.28119C14.644 4.18144 14.4979 4.07644 14.3605 3.96516C14.086 3.74325 13.8416 3.49843 13.6586 3.23705C13.4744 2.97778 13.3535 2.6986 13.3279 2.4488C13.3135 2.32407 13.3264 2.20974 13.3562 2.11303C13.3873 2.01657 13.4379 1.93974 13.5 1.88072C13.6248 1.76325 13.8043 1.72046 13.9768 1.72861C14.1502 1.73536 14.3118 1.79035 14.4404 1.84496C14.5425 1.89024 14.641 1.94358 14.7347 2.00447C14.7682 2.02514 14.7928 2.04375 14.8099 2.05491L14.8356 2.07244L14.8363 2.07291C14.8733 2.09814 14.9149 2.11584 14.9587 2.12499C15.0025 2.13415 15.0477 2.13459 15.0917 2.12628C15.1356 2.11797 15.1776 2.10108 15.215 2.07656C15.2525 2.05205 15.2847 2.0204 15.3099 1.98343C15.4134 1.83178 15.3773 1.62591 15.2312 1.51744L15.1996 1.494C15.1784 1.47886 15.1484 1.45496 15.1064 1.4266C14.9842 1.34109 14.8554 1.26559 14.721 1.20085C14.5429 1.11877 14.3122 1.0261 14.0085 1.00252C13.8574 0.992441 13.6881 0.997878 13.5091 1.04653C13.3137 1.09767 13.1331 1.1939 12.9816 1.3275C12.8204 1.47033 12.691 1.66393 12.6173 1.87585C12.544 2.08763 12.5195 2.31422 12.537 2.53102C12.5531 2.74885 12.6063 2.95955 12.6831 3.15741C12.7592 3.35635 12.8598 3.54253 12.9746 3.71836C13.2045 4.07053 13.4936 4.37696 13.8076 4.65052C13.9648 4.78744 14.1293 4.91494 14.2982 5.03527C14.3401 5.06607 14.3829 5.09499 14.4257 5.12414C14.4683 5.15335 14.5109 5.1826 14.5566 5.21152L14.6895 5.29669L14.812 5.37249L14.9267 5.4428L15.0306 5.51096C15.0982 5.55802 15.1648 5.60578 15.228 5.65627C15.3548 5.75686 15.4719 5.86449 15.5771 5.9783C15.7869 6.20658 15.9487 6.459 16.0579 6.72164C16.1688 6.98363 16.2266 7.2555 16.2463 7.51716C16.265 7.77928 16.2441 8.03114 16.1997 8.25769C16.1638 8.4397 16.1101 8.61777 16.0395 8.78935C15.5016 8.56941 14.8783 8.51386 14.2887 8.51082C12.9413 8.50393 6.93065 9.57797 5.48878 7.02652C5.48775 7.02474 5.48671 7.0231 5.48573 7.02127C5.4334 6.9098 5.37178 6.80294 5.30151 6.70182C5.62092 5.73849 5.04562 4.6651 4.8576 4.65464C4.64817 4.64297 3.98803 4.97124 3.60871 5.69963C3.52265 5.69012 3.43613 5.6853 3.34954 5.68519C2.05242 5.68519 1.02431 6.73097 1.02431 7.84444C1.02431 7.84664 0.944199 8.49769 0.749902 8.76952C0.65123 8.90757 0.598683 9.07467 0.609464 9.25341C0.477511 9.80653 1.11075 10.365 2.15315 10.1196C2.23125 10.1118 2.32664 10.0902 2.44218 10.052C3.81656 9.5986 3.83011 11.2536 4.32675 12.6928L4.31995 12.691C4.32815 12.7091 4.3364 12.7269 4.34465 12.7446C4.46714 13.0899 4.61906 13.4211 4.82601 13.7056C5.15264 14.4671 5.28126 15.4965 4.71853 18.6797L4.71834 18.6806C4.62961 19.2073 4.19854 19.3052 4.05234 19.3052C3.67012 19.3052 3.50475 19.6942 3.50475 19.6942C3.30028 19.9248 3.50803 20.249 3.85542 20.249H4.43456C4.73568 20.249 5.37857 20.0567 5.40103 19.8108C5.73937 19.2649 7.17782 16.8396 7.51139 14.5481C9.80629 14.3627 10.6439 14.2741 11.7567 13.9546C12.4467 13.7566 12.6397 13.7045 13.024 14.4095C13.2585 14.8397 13.6403 15.3027 13.9694 15.6638C14.1655 15.8789 14.2989 16.1437 14.355 16.4293C14.4111 16.715 14.3878 17.0105 14.2876 17.2838C14.0522 17.9246 13.7733 18.5485 13.4527 19.1512C13.4448 19.1665 13.4377 19.1822 13.4317 19.1983C13.1779 19.1291 12.8694 19.1032 12.6893 19.1032C12.3514 19.1032 12.2052 19.4922 12.2052 19.4922C12.0245 19.7228 12.2081 20.047 12.5152 20.047H13.1676C13.2852 20.047 13.4155 19.9924 13.5305 19.9149L13.5352 19.9246C13.5352 19.9246 16.0555 18.1108 16.2197 15.9729C16.3392 14.421 17.7445 12.7605 17.4387 10.6892Z" fill="#FFD469"/>
</svg>
