<svg width="24" height="24" viewBox="0 0 24 24" fill="none" xmlns="http://www.w3.org/2000/svg">
<path d="M8.13411 11.3512C8.13411 11.2495 8.1049 11.1646 8.05873 11.1C8.06209 11.0418 8.0638 10.9836 8.06384 10.9254V9.29253C8.06384 8.97725 7.71031 8.86465 7.57428 9.1363C7.02275 10.2375 6.09833 11.956 5.29512 12.8377C5.11067 13.0401 5.25753 13.3991 5.5084 13.3672C5.80503 13.3295 6.13353 13.2627 6.4535 13.148C5.87712 14.1615 5.22701 15.1827 4.62969 15.8384C4.3962 16.0947 4.58211 16.549 4.89964 16.5086C5.249 16.4642 5.63328 16.388 6.01123 16.2606C5.34279 17.4224 4.60039 18.5731 3.91569 19.3246C3.63467 19.6331 3.85845 20.18 4.24062 20.1314C5.87117 19.9242 8.13411 20.922 8.13411 18.1888V13.9232C8.13411 13.8724 8.12778 13.8252 8.11676 13.7817C8.12797 13.6652 8.13411 13.5442 8.13411 13.4179V11.3512Z" fill="#65CE65"/>
<path d="M22.7078 6.93284C22.6821 6.91027 22.6547 6.88965 22.6259 6.87116L15.3989 2.25359C15.2983 2.18928 15.1814 2.15496 15.0619 2.15467C14.9425 2.15437 14.8254 2.1881 14.7245 2.25191L7.41643 6.86947C7.38891 6.88686 7.36398 6.9058 7.34054 6.92558C7.15454 6.97761 7.01794 7.14795 7.01794 7.35059V23.03C7.01794 23.1471 7.06448 23.2594 7.14732 23.3423C7.23015 23.4251 7.3425 23.4717 7.45965 23.4717H22.5652C22.6824 23.4717 22.7947 23.4251 22.8775 23.3423C22.9604 23.2594 23.0069 23.1471 23.0069 23.03V7.35064C23.0069 7.15662 22.8817 6.99219 22.7078 6.93284Z" fill="#D1CFC3"/>
<path d="M2.6134 23.5979V18.9471C2.6134 18.5584 2.92854 18.2429 3.31737 18.2429C3.7062 18.2429 4.02134 18.5584 4.02134 18.9471V23.5979C4.02129 23.9865 2.6134 23.9865 2.6134 23.5979ZM8.10383 23.4219V20.7458C8.10383 20.6699 8.07369 20.5972 8.02003 20.5435C7.96638 20.4899 7.89362 20.4597 7.81775 20.4597C7.74187 20.4597 7.66911 20.4899 7.61546 20.5435C7.56181 20.5972 7.53167 20.6699 7.53167 20.7458V23.4219C7.53167 23.4977 7.56181 23.5705 7.61546 23.6241C7.66911 23.6778 7.74187 23.7079 7.81775 23.7079C7.89362 23.7079 7.96638 23.6778 8.02003 23.6241C8.07369 23.5705 8.10383 23.4977 8.10383 23.4219Z" fill="#8E6049"/>
<path d="M6.63803 21.7555C6.66648 21.715 6.68406 21.6759 6.69193 21.6381C6.74575 21.4726 6.73248 21.2662 6.6175 21.1167C6.0475 20.3751 5.42945 19.2396 4.873 18.0932C5.18772 18.2189 5.50764 18.2944 5.7985 18.3382C6.06278 18.378 6.21751 17.9298 6.02317 17.677C5.52597 17.0301 4.98484 16.0225 4.50507 15.0225C4.77142 15.1357 5.04484 15.2016 5.29173 15.2388C5.50051 15.2703 5.62276 14.9161 5.46925 14.7164C4.80972 13.8583 4.05231 12.1973 3.5912 11.1095C3.57273 11.0392 3.53664 10.9863 3.493 10.953L3.49098 10.9515C3.48344 10.9458 3.47551 10.9406 3.46726 10.936C3.4578 10.9309 3.44796 10.9264 3.43783 10.9228C3.42666 10.9189 3.41508 10.9163 3.40333 10.915C3.38663 10.9131 3.36975 10.9138 3.35326 10.917C3.34158 10.9193 3.33018 10.9228 3.31928 10.9276C3.31343 10.9301 3.30771 10.9329 3.30217 10.936C3.29392 10.9406 3.28599 10.9458 3.27845 10.9514L3.27643 10.9529C3.23279 10.9862 3.1967 11.0391 3.17823 11.1094C2.71712 12.1971 1.95972 13.8582 1.30018 14.7163C1.14667 14.916 1.26892 15.2701 1.4777 15.2387C1.72464 15.2015 1.99806 15.1356 2.26436 15.0224C1.78459 16.0224 1.24342 17.03 0.746262 17.6768C0.551919 17.9297 0.706653 18.3779 0.970934 18.3381C1.26179 18.2943 1.58172 18.2188 1.89643 18.0931C1.33989 19.2396 0.721841 20.3751 0.151841 21.1167C-0.0266126 21.3488 0.0395749 21.7176 0.222153 21.8583C1.00529 22.8254 2.00495 22.9007 3.3999 22.9007C4.83362 22.9007 5.97353 22.6214 6.5935 21.8151C6.61008 21.7966 6.62498 21.7766 6.63803 21.7555Z" fill="#2BA52E"/>
<path d="M7.81775 22.7751C8.93195 22.7751 9.8352 21.8719 9.8352 20.7577C9.8352 19.6435 8.93195 18.7402 7.81775 18.7402C6.70354 18.7402 5.80029 19.6435 5.80029 20.7577C5.80029 21.8719 6.70354 22.7751 7.81775 22.7751Z" fill="#0E7A0E"/>
<path d="M12.9102 17.76H17.249V23.4717H12.9102V17.76Z" fill="#2B3B47"/>
<path d="M19.3109 20.3494H18.3494C18.2599 20.3494 18.1741 20.3139 18.1108 20.2506C18.0475 20.1873 18.0119 20.1014 18.0119 20.0119V19.7611C18.0119 19.6716 18.0475 19.5857 18.1108 19.5224C18.1741 19.4591 18.2599 19.4236 18.3494 19.4236H19.3109C19.4004 19.4236 19.4862 19.4591 19.5495 19.5224C19.6128 19.5857 19.6484 19.6716 19.6484 19.7611V20.0119C19.6484 20.1014 19.6128 20.1873 19.5495 20.2506C19.4862 20.3139 19.4004 20.3494 19.3109 20.3494ZM16.5906 20.4848C16.495 20.4848 16.4034 20.5227 16.3359 20.5903C16.2683 20.6579 16.2303 20.7495 16.2303 20.845C16.2303 20.9406 16.2683 21.0322 16.3359 21.0997C16.4034 21.1673 16.495 21.2053 16.5906 21.2053C16.6861 21.2053 16.7777 21.1673 16.8453 21.0997C16.9129 21.0322 16.9508 20.9406 16.9508 20.845C16.9508 20.7495 16.9129 20.6579 16.8453 20.5903C16.7777 20.5227 16.6861 20.4848 16.5906 20.4848Z" fill="#E2A042"/>
<path d="M12.5255 9.1074V12.63C12.5255 12.7195 12.4899 12.8053 12.4266 12.8686C12.3633 12.9319 12.2775 12.9675 12.188 12.9675H10.4883C10.3987 12.9675 10.3129 12.9319 10.2496 12.8686C10.1863 12.8053 10.1508 12.7195 10.1508 12.63V9.1074C10.1508 9.01789 10.1863 8.93204 10.2496 8.86875C10.3129 8.80546 10.3987 8.7699 10.4883 8.7699H12.188C12.2775 8.7699 12.3633 8.80546 12.4266 8.86875C12.4899 8.93204 12.5255 9.01789 12.5255 9.1074ZM19.652 8.7699H17.9523C17.8627 8.7699 17.7769 8.80546 17.7136 8.86875C17.6503 8.93204 17.6148 9.01789 17.6148 9.1074V12.63C17.6148 12.7195 17.6503 12.8053 17.7136 12.8686C17.7769 12.9319 17.8627 12.9675 17.9523 12.9675H19.652C19.7415 12.9675 19.8273 12.9319 19.8906 12.8686C19.9539 12.8053 19.9895 12.7195 19.9895 12.63V9.1074C19.9895 9.01789 19.9539 8.93204 19.8906 8.86875C19.8273 8.80546 19.7415 8.7699 19.652 8.7699Z" fill="#464A4C"/>
<path d="M12.6261 13.5305H10.0503C9.96076 13.5305 9.87491 13.4949 9.81162 13.4316C9.74833 13.3683 9.71277 13.2825 9.71277 13.193V13.0132C9.71277 12.9236 9.74833 12.8378 9.81162 12.7745C9.87491 12.7112 9.96076 12.6757 10.0503 12.6757H12.6261C12.7157 12.6757 12.8015 12.7112 12.8648 12.7745C12.9281 12.8378 12.9636 12.9236 12.9636 13.0132V13.193C12.9636 13.2825 12.9281 13.3683 12.8648 13.4316C12.8015 13.4949 12.7157 13.5305 12.6261 13.5305ZM20.4276 13.193V13.0132C20.4276 12.9236 20.3921 12.8378 20.3288 12.7745C20.2655 12.7112 20.1797 12.6757 20.0901 12.6757H17.5143C17.4248 12.6757 17.3389 12.7112 17.2756 12.7745C17.2123 12.8378 17.1768 12.9236 17.1768 13.0132V13.193C17.1768 13.2825 17.2123 13.3683 17.2756 13.4316C17.3389 13.4949 17.4248 13.5305 17.5143 13.5305H20.0901C20.1797 13.5305 20.2655 13.4949 20.3288 13.4316C20.3921 13.3683 20.4276 13.2825 20.4276 13.193ZM17.7291 18.1479C18.1206 18.1479 18.4004 17.7798 18.3124 17.3984C17.9726 15.927 16.6542 14.8302 15.0796 14.8302C13.505 14.8302 12.1866 15.927 11.8468 17.3984C11.7587 17.7798 12.0386 18.1479 12.4301 18.1479H17.7291Z" fill="#8E7B70"/>
<path d="M6.38058 8.0953H7.11483C7.17577 8.0953 7.23554 8.07838 7.28743 8.04646L14.9994 3.3028C15.052 3.27049 15.1125 3.25357 15.1742 3.25398C15.2359 3.25438 15.2962 3.2721 15.3483 3.3051L22.8321 8.04421C22.8848 8.07758 22.946 8.0953 23.0084 8.0953H23.67C23.9974 8.0953 24.1244 7.66944 23.8503 7.49019L15.3556 1.93326C15.3028 1.89868 15.2411 1.88003 15.1779 1.87953C15.1147 1.87903 15.0527 1.8967 14.9993 1.93044L6.20461 7.48738C5.92547 7.66372 6.05044 8.0953 6.38058 8.0953Z" fill="#FF473E"/>
</svg>
