<svg width="24" height="24" viewBox="0 0 24 24" fill="none" xmlns="http://www.w3.org/2000/svg">
<path d="M13.17 18.8982L22.2732 19.7644C23.13 19.8469 23.3494 19.3688 23.3494 18.9638L23.34 18.4725L12.1444 16.8938C12.1444 17.4544 12.6 18.8982 13.17 18.8982Z" fill="#C62828"/>
<path d="M10.83 18.8981L1.72688 19.7643C0.87001 19.8468 0.650635 19.3687 0.650635 18.9637L0.66001 18.4725L11.8556 16.8918C11.8556 17.4543 11.4 18.8981 10.83 18.8981Z" fill="#C62828"/>
<path d="M10.4981 18.4706L9.07688 18.5962L1.39501 19.3387C0.98251 19.3387 0.650635 19.0106 0.650635 18.6056L1.05751 6.18182C1.05751 5.77682 1.39126 5.44869 1.80188 5.44869L10.4981 4.62744C11.0681 4.62744 11.5313 5.08307 11.5313 5.64369V17.4562C11.5313 18.0149 11.07 18.4706 10.4981 18.4706Z" fill="#F44336"/>
<path d="M13.5019 18.4706L14.9344 18.5962L22.605 19.3369C23.0175 19.3369 23.3494 19.0087 23.3494 18.6037L22.9425 6.17999C22.9425 5.77499 22.6088 5.44686 22.1981 5.44686L13.5019 4.62561C12.9319 4.62561 12.4688 5.08124 12.4688 5.64186V17.4544C12.4688 18.015 12.93 18.4706 13.5019 18.4706Z" fill="#F44336"/>
<path d="M14.7656 15.6899H9.23809L9.06934 18.6018L10.7943 18.7631C10.7943 18.7631 11.1637 19.6856 12 19.6856C12.8362 19.6856 13.2056 18.7631 13.2056 18.7631L14.9306 18.6018L14.7656 15.6899Z" fill="#424242"/>
<path d="M14.9138 18.8306L13.3069 18.6919M9.0863 18.8306L10.6932 18.6919" stroke="#616161" stroke-width="2.5" stroke-miterlimit="10"/>
<path d="M22.4343 6.15381L21.6843 5.12256L11.9999 16.1288L2.31557 5.12256L1.56557 6.15381L1.46057 18.4069C1.46057 18.4069 3.45182 18.6563 6.11245 18.3863C8.42995 18.1519 9.5212 17.5519 10.2956 17.7076C11.2256 17.8951 11.3943 18.4669 11.4243 18.5644C11.5087 18.8344 11.6756 19.0444 11.9999 19.0444C12.3243 19.0444 12.4687 18.9319 12.5681 18.5982C12.5981 18.5007 12.7743 17.8969 13.7043 17.7094C14.4787 17.5538 15.5699 18.1538 17.8874 18.3882C20.5481 18.6582 22.5393 18.4088 22.5393 18.4088L22.4343 6.15381Z" fill="#94C6D6"/>
<path d="M13.3424 18.4593C13.1324 18.4406 12.9393 18.5699 12.8718 18.7706C12.7706 19.0762 12.5343 19.4756 11.9999 19.4756C11.4599 19.4756 11.2218 19.0743 11.1187 18.7687C11.0866 18.6729 11.0234 18.5906 10.9391 18.5349C10.8549 18.4792 10.7544 18.4532 10.6537 18.4612L10.5806 18.4668L10.5824 18.5268C10.5824 18.9023 10.7316 19.2623 10.9971 19.5278C11.2625 19.7933 11.6226 19.9424 11.9981 19.9424C12.3735 19.9424 12.7336 19.7933 12.9991 19.5278C13.2645 19.2623 13.4137 18.9023 13.4137 18.5268C13.4137 18.5081 13.4118 18.4649 13.4118 18.4649L13.3424 18.4593Z" fill="#616161"/>
<path d="M21.4313 17.2256L21.4613 12.2775H22.4869L22.5394 18.4068C22.5394 18.4068 21.7238 18.09 21.4313 17.2256Z" fill="url(#paint0_linear_201_2643)"/>
<path d="M21.4781 14.3419L21.4312 17.2275C21.4312 17.2275 19.1887 17.1113 15.6169 16.4925C13.2806 16.0875 12 17.385 12 17.385L11.9794 14.3419H21.4781Z" fill="url(#paint1_linear_201_2643)"/>
<path d="M2.52185 14.3419L2.56873 17.2275C2.56873 17.2275 4.81123 17.1113 8.3831 16.4925C10.7193 16.0875 12 17.385 12 17.385L11.9794 14.3419H2.52185Z" fill="url(#paint2_linear_201_2643)"/>
<path d="M2.5687 17.2256L2.5387 12.2775H1.5112L1.46057 18.4068C1.46057 18.4068 2.27432 18.09 2.5687 17.2256Z" fill="url(#paint3_linear_201_2643)"/>
<path d="M21.6843 5.12249C21.6843 5.12249 16.7081 4.18687 14.5237 4.06499C12.4687 3.95062 12.0468 4.99687 12.0056 5.12249H11.9981C11.9549 4.99687 11.5331 3.95249 9.47807 4.06499C7.29369 4.18687 2.31744 5.12249 2.31744 5.12249L2.09619 17.1975C2.09619 17.1975 8.02119 15.9562 9.45557 16.1175C10.8899 16.2787 11.9999 17.385 11.9999 17.385C11.9999 17.385 13.1118 16.2787 14.5462 16.1175C15.9806 15.9562 21.9056 17.1975 21.9056 17.1975L21.6843 5.12249Z" fill="#F5F5F5"/>
<path opacity="0.26" d="M10.0538 4.06689L9.04126 16.1044C9.20063 16.1006 9.34126 16.1044 9.45376 16.1175C10.8863 16.2769 12 17.385 12 17.385L11.9681 5.12252C11.9681 5.12252 11.7244 4.16252 10.0538 4.06689Z" fill="#94C6D6"/>
<path opacity="0.5" d="M4.74559 5.6588C4.23934 5.74693 3.82496 5.82193 3.58871 5.86318C3.58871 5.97943 3.58871 6.10693 3.58684 6.2438C3.79496 6.2063 4.21871 6.12943 4.74559 6.03755V5.6588ZM9.30934 5.05505V5.42818C10.3087 5.4263 10.8618 5.67755 11.0437 5.7788C11.0437 5.62318 11.0456 5.48443 11.0456 5.36255C10.7362 5.2238 10.17 5.05318 9.30934 5.05505ZM8.49559 5.10193C7.68371 5.18443 6.55309 5.35693 5.55934 5.52193V5.90255C6.54559 5.73943 7.67809 5.56505 8.49559 5.4788V5.10193ZM6.49871 6.72005C5.28746 6.90755 4.07246 7.12505 3.58496 7.21318V7.5938C4.00871 7.51693 5.25184 7.29193 6.49871 7.0988V6.72005ZM8.75434 6.42755C8.35871 6.45943 7.85434 6.52318 7.31246 6.59818V6.97693C7.86559 6.89818 8.38309 6.83443 8.78434 6.80068C10.1306 6.69005 10.8412 7.02005 11.04 7.13255V6.71443C10.6725 6.5513 9.93559 6.33005 8.75434 6.42755ZM4.94621 8.32318C4.35371 8.42443 3.85871 8.51255 3.58496 8.56318V8.9438C3.83059 8.8988 4.33309 8.8088 4.94621 8.7038V8.32318ZM11.04 8.07005C10.6743 7.90505 9.93559 7.68005 8.74309 7.77943C7.97996 7.8413 6.81184 8.01568 5.75996 8.18818V8.5688C6.82121 8.39443 8.00621 8.21818 8.77496 8.15443C10.1437 8.04193 10.8562 8.38505 11.04 8.49193V8.07005ZM11.0418 9.42568C10.68 9.26068 9.93746 9.03005 8.73559 9.12943C8.61371 9.1388 8.48246 9.15193 8.34371 9.16693V9.5438C8.49559 9.52693 8.63621 9.5138 8.76746 9.50255C10.1625 9.38818 10.875 9.7463 11.0437 9.84755C11.0418 9.70693 11.0418 9.5663 11.0418 9.42568ZM7.52809 9.26818C6.06184 9.4688 4.23559 9.79318 3.58684 9.9113V10.2919C4.15871 10.1869 6.02809 9.8513 7.52809 9.64505V9.26818ZM5.29684 10.9632C4.55996 11.0869 3.92246 11.2013 3.58684 11.2613V11.6419C3.89059 11.5857 4.53746 11.4694 5.29684 11.3419V10.9632ZM11.0437 10.7832C10.6856 10.6182 9.93934 10.3819 8.72621 10.4813C8.05121 10.5376 7.06121 10.6782 6.11246 10.8301V11.2088C7.07059 11.0551 8.07746 10.9107 8.75621 10.8544C10.1868 10.7363 10.9012 11.1188 11.0437 11.2051V10.7832ZM11.0475 13.4963C10.7062 13.3332 9.96746 13.0876 8.74871 13.1794V13.5563C10.3031 13.4307 11.0081 13.8957 11.0475 13.9238V13.4963ZM4.94621 13.7213C4.36871 13.8207 3.87746 13.9069 3.59059 13.9594V14.3401C3.85496 14.2913 4.34996 14.2032 4.94621 14.1001V13.7213ZM5.75996 13.5863V13.9669C6.48746 13.8488 7.26934 13.7288 7.93496 13.6444V13.2657C7.27309 13.3482 6.49121 13.4663 5.75996 13.5863ZM7.06309 14.7338C5.72059 14.9288 4.21121 15.1969 3.59246 15.3094V15.6901C4.15309 15.5869 5.69059 15.3132 7.06309 15.1126V14.7338ZM11.0493 14.8538C10.71 14.6888 9.95434 14.4319 8.69434 14.5351C8.45621 14.5538 8.17871 14.5857 7.87684 14.6232V15.0001C8.18996 14.9607 8.47871 14.9288 8.72434 14.9082C10.3293 14.7751 11.0343 15.2738 11.0418 15.2776L11.0512 15.2663C11.0512 15.1369 11.0512 15.0001 11.0493 14.8538ZM6.78371 12.0751C5.50496 12.2663 4.14934 12.5082 3.58871 12.6113V12.9919C4.09121 12.9001 5.47309 12.6526 6.78371 12.4538V12.0751ZM11.0456 12.1388C10.6931 11.9738 9.94496 11.7301 8.71496 11.8313C8.39996 11.8576 8.01559 11.9026 7.59934 11.9588V12.3376C8.02871 12.2794 8.42434 12.2326 8.74684 12.2063C10.2243 12.0844 10.9387 12.4951 11.0475 12.5644C11.0456 12.4257 11.0456 12.2832 11.0456 12.1388ZM16.5768 5.57068C18.1293 5.77693 20.1581 6.14443 20.7093 6.2438C20.7093 6.10505 20.7093 5.97943 20.7075 5.86318C20.0625 5.74505 18.0881 5.39255 16.575 5.19193V5.57068H16.5768ZM15.7612 5.09818C15.6806 5.09068 15.6037 5.08318 15.5306 5.07755C14.355 4.98005 13.62 5.19943 13.2506 5.36255C13.2506 5.48443 13.2525 5.62505 13.2525 5.7788C13.4625 5.66255 14.1731 5.34193 15.5006 5.45068C15.5831 5.45818 15.6712 5.46568 15.7612 5.47505V5.09818ZM19.1925 7.32755C19.6993 7.41383 20.2055 7.50321 20.7112 7.59568V7.21505C20.4168 7.16068 19.8581 7.0613 19.1925 6.9488V7.32755ZM18.3787 6.81193C17.3643 6.6488 16.2693 6.48755 15.5418 6.42755C14.3606 6.33005 13.6237 6.5513 13.2543 6.71443V7.13255C13.4531 7.02005 14.1637 6.69005 15.51 6.80068C16.2431 6.86068 17.355 7.02568 18.3768 7.19068V6.81193H18.3787ZM18.2212 8.13568V8.51443C19.3106 8.6888 20.325 8.87255 20.7112 8.9438V8.56318C20.2743 8.48443 19.2787 8.3063 18.2212 8.13568ZM16.575 9.2438C16.1981 9.19505 15.8493 9.1538 15.5606 9.1313C14.3587 9.03193 13.6162 9.26255 13.2543 9.42755V9.84943C13.4231 9.75005 14.1375 9.39005 15.5306 9.50443C15.8268 9.5288 16.1868 9.57005 16.575 9.62255V9.2438ZM17.3906 9.35818V9.73693C18.75 9.93943 20.2143 10.2038 20.7093 10.2938V9.91318C20.1506 9.81005 18.7162 9.55505 17.3906 9.35818ZM17.5556 10.7326C16.815 10.6201 16.0968 10.5244 15.5718 10.4813C14.3568 10.3819 13.6106 10.6182 13.2543 10.7832V11.2069C13.3968 11.1188 14.1112 10.7382 15.5418 10.8563C16.0725 10.8994 16.8056 10.9988 17.5575 11.1132V10.7326H17.5556ZM18.3693 10.8601V11.2407C19.3893 11.4057 20.3231 11.5744 20.7075 11.6438V11.2632C20.28 11.1844 19.3612 11.0194 18.3693 10.8601ZM19.695 12.4313V12.8119C20.1375 12.8888 20.4993 12.9544 20.7056 12.9919V12.6113C20.4806 12.5701 20.1243 12.5063 19.695 12.4313ZM16.7418 13.3144C16.3125 13.2563 15.915 13.2094 15.5925 13.1832C14.3475 13.0801 13.5956 13.3313 13.2506 13.4963V13.9238C13.29 13.8957 13.9987 13.4269 15.5643 13.5563C15.8943 13.5826 16.3031 13.6313 16.7456 13.6913V13.3144H16.7418ZM17.5556 13.4307V13.8094C18.8456 14.0044 20.1993 14.2482 20.7056 14.3401V13.9594C20.1431 13.8582 18.8156 13.6219 17.5556 13.4307ZM18.2212 14.8838C17.2706 14.7319 16.2768 14.5894 15.6018 14.5332C14.34 14.4301 13.5862 14.6888 13.2468 14.8519V15.2644L13.2562 15.2757C13.2618 15.2719 13.9668 14.7732 15.5737 14.9063C16.2543 14.9626 17.265 15.1088 18.225 15.2626V14.8838H18.2212ZM19.0368 15.0188V15.3994C19.7662 15.5213 20.3887 15.6338 20.7037 15.6919V15.3113C20.3606 15.2476 19.7456 15.1369 19.0368 15.0188ZM15.5493 11.8294C14.3381 11.7338 13.5993 11.9757 13.2506 12.1388V12.5644C13.3593 12.4951 14.0718 12.0844 15.5493 12.2063V11.8294ZM16.365 11.9157V12.2926C17.1375 12.3901 18.0656 12.5363 18.8812 12.6713V12.2907C18.06 12.1557 17.1318 12.0113 16.365 11.9157ZM14.9475 7.75693C14.1075 7.76255 13.5543 7.93505 13.2562 8.07005V8.49005C13.4137 8.40005 13.9518 8.13943 14.9475 8.13005V7.75693ZM15.7612 7.79818V8.17505C16.2281 8.22193 16.8075 8.30068 17.4056 8.3888V8.01005C16.8056 7.92005 16.2281 7.84318 15.7612 7.79818Z" fill="#757575"/>
<defs>
<linearGradient id="paint0_linear_201_2643" x1="21.9831" y1="16.5377" x2="22.0294" y2="13.2933" gradientUnits="userSpaceOnUse">
<stop offset="0.267" stop-color="#82AEC0"/>
<stop offset="1" stop-color="#82AEC0" stop-opacity="0"/>
</linearGradient>
<linearGradient id="paint1_linear_201_2643" x1="13.1094" y1="15.8627" x2="21.1365" y2="15.8627" gradientUnits="userSpaceOnUse">
<stop stop-color="#2F7889"/>
<stop offset="1" stop-color="#82AEC0"/>
</linearGradient>
<linearGradient id="paint2_linear_201_2643" x1="10.871" y1="15.8627" x2="2.86179" y2="15.8627" gradientUnits="userSpaceOnUse">
<stop stop-color="#2F7889"/>
<stop offset="1" stop-color="#82AEC0"/>
</linearGradient>
<linearGradient id="paint3_linear_201_2643" x1="2.01613" y1="16.5377" x2="1.96963" y2="13.2933" gradientUnits="userSpaceOnUse">
<stop offset="0.267" stop-color="#82AEC0"/>
<stop offset="1" stop-color="#82AEC0" stop-opacity="0"/>
</linearGradient>
</defs>
</svg>
