<svg width="49" height="49" viewBox="0 0 49 49" fill="none" xmlns="http://www.w3.org/2000/svg">
<circle cx="24.5" cy="24.5" r="24.5" fill="#FD0E46"/>
<g clip-path="url(#clip0_239_3325)">
<mask id="mask0_239_3325" style="mask-type:luminance" maskUnits="userSpaceOnUse" x="11" y="10" width="27" height="27">
<path d="M19.5536 13.0149L24.7028 18.1264L29.8143 12.9771C30.0608 12.7288 30.3959 12.5886 30.7457 12.5873C31.0956 12.586 31.4316 12.7238 31.6799 12.9702L35.4249 16.6877C35.6732 16.9342 35.8134 17.2692 35.8147 17.6191C35.816 17.969 35.6782 18.305 35.4317 18.5533L30.3202 23.7026L35.4695 28.8141C35.7178 29.0606 35.858 29.3956 35.8593 29.7455C35.8606 30.0953 35.7228 30.4314 35.4764 30.6797L31.7589 34.4246C31.5124 34.6729 31.1774 34.8132 30.8275 34.8144C30.4776 34.8157 30.1416 34.678 29.8933 34.4315L24.744 29.32L19.6325 34.4693C19.386 34.7176 19.051 34.8578 18.7011 34.8591C18.3513 34.8604 18.0152 34.7226 17.7669 34.4761L14.022 30.7586C13.7737 30.5122 13.6335 30.1771 13.6322 29.8273C13.6309 29.4774 13.7686 29.1414 14.0151 28.8931L19.1266 23.7438L13.9774 18.6323C13.729 18.3858 13.5888 18.0508 13.5875 17.7009C13.5863 17.351 13.724 17.015 13.9705 16.7667L17.688 13.0217C17.9344 12.7734 18.2695 12.6332 18.6193 12.6319C18.9692 12.6306 19.3052 12.7684 19.5536 13.0149Z" fill="white" stroke="white" stroke-width="4" stroke-linecap="round" stroke-linejoin="round"/>
</mask>
<g mask="url(#mask0_239_3325)">
<path d="M24.6411 1.33606L47.1107 23.6409L24.8059 46.1104L2.33632 23.8056L24.6411 1.33606Z" fill="white"/>
</g>
</g>
<defs>
<clipPath id="clip0_239_3325">
<rect width="31.6605" height="31.6605" fill="white" transform="translate(25.3047 2) rotate(44.7892)"/>
</clipPath>
</defs>
</svg>
