<svg width="24" height="24" viewBox="0 0 24 24" fill="none" xmlns="http://www.w3.org/2000/svg">
<path d="M17.9625 7.87502V11.7H11.4375V7.87502C11.4375 3.63752 17.9625 3.63752 17.9625 7.87502Z" fill="#FFB300"/>
<path d="M17.775 8.73745C17.775 7.87495 17.1 8.32495 17.1 8.32495C17.1375 7.12495 16.5375 7.01245 16.5375 7.01245C13.7625 7.01245 12.3375 8.32495 12.3375 8.32495C12.3375 8.32495 11.625 7.87495 11.625 8.73745C11.625 9.07495 11.775 9.33745 12.1875 9.37495C12.375 10.6875 13.3125 10.9875 14.6625 10.9875C16.0125 10.9875 16.95 10.725 17.1375 9.37495C17.625 9.33745 17.775 9.07495 17.775 8.73745ZM12.075 13.3875L13.5 12.0375C14.1375 11.5125 13.275 10.8 12.675 11.3625C10.5375 13.35 10.5 13.125 10.95 13.5375L13.575 16.2V15.2625L12.075 13.3875Z" fill="#FFDD67"/>
<path d="M17.2125 13.3125L15.9 12.075C15.2625 11.55 16.125 10.8375 16.725 11.4C18.8625 13.3875 18.75 13.3875 18.3 13.8L15.1125 15.7125L14.925 15.15L17.2125 13.3125Z" fill="#FFDD67"/>
<path d="M15.8249 12.0375C15.1499 11.4375 16.0874 10.6875 16.7249 11.325C17.0999 11.6625 17.4374 11.9625 17.7374 12.225L16.8749 13.05L15.8249 12.0375Z" fill="#594640"/>
<path d="M13.575 12.0375C14.2875 11.4375 13.3125 10.6875 12.675 11.325C12.3 11.6625 11.9625 11.9625 11.6625 12.225L12.525 13.0125L13.575 12.0375Z" fill="#594640"/>
<path d="M13.9875 10.3125H15.45V11.8125H13.9875V10.3125Z" fill="#FFDD67"/>
<path d="M16.1626 11.1H15.4501C15.4501 11.4 15.3376 11.6625 14.7001 11.6625C14.1001 11.6625 13.9501 11.4 13.9501 11.1H13.2001C12.7126 11.475 12.3001 14.5125 12.8626 16.2C13.3501 17.5875 15.1501 17.475 15.8251 17.2125L16.8001 16.125C16.9501 15.1125 15.8251 14.5875 15.8251 14.5875C15.6376 13.6125 16.6501 11.475 16.1626 11.1ZM21.5626 19.8C22.6876 20.5125 22.0501 21.375 20.4001 20.625C19.0126 19.9875 20.1751 18.75 20.7001 19.2C21.0751 19.575 21.3376 19.65 21.5626 19.8Z" fill="#594640"/>
<path d="M15.45 22.3501C15.4875 23.7751 13.35 23.1751 14.1375 22.5751C14.25 22.4626 14.25 22.2376 14.175 22.0876C13.6875 20.7376 15.3375 20.6251 15.3375 21.2626C15.375 21.7876 15.45 22.1251 15.45 22.3501Z" fill="#594640"/>
<path d="M15.1125 21.5625C15 19.9875 15.6375 19.6875 14.925 18.6375C15.3 17.7 14.925 17.3625 14.925 17.3625C13.875 17.475 13.0125 16.4625 13.0125 16.4625C13.0125 16.4625 13.2375 18.375 13.575 19.275C13.9875 20.4 14.25 21.7125 14.25 21.7125C14.2875 22.35 15.15 22.275 15.1125 21.5625Z" fill="#FFDD67"/>
<path d="M20.7 19.575C19.425 18.525 19.6875 17.8875 18.3375 17.6625C17.25 15.75 16.275 15.1125 16.275 15.1125C15.4875 16.1625 15.675 17.025 15.675 17.025C15.675 17.025 16.8375 18.675 17.775 19.0875C18.9375 19.575 20.1375 20.325 20.1375 20.325C20.6625 20.7375 21.2625 20.0625 20.7 19.575Z" fill="#FFDD67"/>
<path d="M16.3124 6.22499C16.3874 5.84999 16.6499 5.06249 17.4749 3.59999C17.9249 2.77499 17.4374 0.862485 17.1749 0.749985C17.0249 0.674985 15.5999 1.94999 15.5249 3.03749C15.4499 4.46249 15.3749 5.43749 15.3374 5.88749C15.2999 6.29998 16.1999 6.48749 16.3124 6.22499Z" fill="#594640"/>
<path d="M16.8375 1.98747C16.6875 1.91247 16.0875 2.43747 15.975 3.18747C15.675 4.98747 15.6 5.96247 15.6 5.96247L16.1625 6.11247C16.1625 6.11247 16.1625 5.51247 16.9875 3.44997C17.175 2.96247 17.0625 2.09997 16.8375 1.98747Z" fill="#E84D88"/>
<path d="M13.0875 6.22499C13.0125 5.84999 12.75 5.06249 11.9625 3.59999C11.5125 2.77499 12 0.862485 12.2625 0.749985C12.45 0.674985 13.875 1.94999 13.9125 3.03749C13.9875 4.46249 14.0625 5.43749 14.1 5.88749C14.1 6.29998 13.2 6.48749 13.0875 6.22499Z" fill="#594640"/>
<path d="M12.5625 1.98747C12.7125 1.91247 13.3125 2.43747 13.425 3.18747C13.725 4.98747 13.8 5.96247 13.8 5.96247L13.2375 6.11247C13.2375 6.11247 13.2375 5.51247 12.4125 3.44997C12.1875 2.96247 12.3 2.09997 12.5625 1.98747Z" fill="#E84D88"/>
<path d="M14.7375 6.37498C15.7125 6.37498 16.6125 6.56248 17.3625 6.86248C16.95 6.14998 15.9375 5.66248 14.7375 5.66248C13.5375 5.66248 12.525 6.14998 12.1125 6.86248C12.8625 6.56248 13.7625 6.37498 14.7375 6.37498Z" fill="#594640"/>
<path d="M9.11252 7.87502V11.7H2.58752V7.87502C2.58752 3.63752 9.11252 3.63752 9.11252 7.87502Z" fill="#FFB300"/>
<path d="M8.92505 8.73745C8.92505 7.87495 8.25005 8.32495 8.25005 8.32495C8.28755 7.12495 7.68755 7.01245 7.68755 7.01245C4.91255 7.01245 3.48755 8.32495 3.48755 8.32495C3.48755 8.32495 2.77505 7.87495 2.77505 8.73745C2.77505 9.07495 2.92505 9.33745 3.33755 9.37495C3.52505 10.6875 4.46255 10.9875 5.81255 10.9875C7.16255 10.9875 8.10005 10.725 8.28755 9.37495C8.77505 9.33745 8.92505 9.07495 8.92505 8.73745ZM3.26255 13.3875L4.68755 12.0375C5.32505 11.5125 4.46255 10.8 3.86255 11.3625C1.72505 13.35 1.68755 13.125 2.13755 13.5375L4.76255 16.2V15.2625L3.26255 13.3875Z" fill="#FFDD67"/>
<path d="M8.36245 13.3125L7.04995 12.075C6.41245 11.55 7.27495 10.8375 7.87495 11.4C10.0125 13.3875 9.89995 13.3875 9.44995 13.8L6.26245 15.7125L6.07495 15.15L8.36245 13.3125Z" fill="#FFDD67"/>
<path d="M6.97497 12.0375C6.26247 11.4375 7.23747 10.6875 7.87496 11.325C8.24996 11.6625 8.58747 11.9625 8.88747 12.225L8.02496 13.0125L6.97497 12.0375Z" fill="#594640"/>
<path d="M4.725 12.0375C5.4375 11.4375 4.4625 10.6875 3.825 11.325C3.45 11.6625 3.1125 11.9625 2.8125 12.225L3.675 13.0125L4.725 12.0375Z" fill="#594640"/>
<path d="M5.13745 10.3125H6.59995V11.8125H5.13745V10.3125Z" fill="#FFDD67"/>
<path d="M7.31246 11.1H6.59996C6.59996 11.4 6.48746 11.6625 5.84996 11.6625C5.24996 11.6625 5.09996 11.4 5.09996 11.1H4.34996C3.86246 11.475 3.44996 14.5125 4.01246 16.2C4.49996 17.5875 6.29996 17.475 6.97496 17.2125L7.94996 16.125C8.09996 15.1125 6.97496 14.5875 6.97496 14.5875C6.78746 13.6125 7.83746 11.475 7.31246 11.1ZM12.7125 19.8C13.8375 20.5125 13.2 21.375 11.55 20.625C10.1625 19.9875 11.325 18.75 11.85 19.2C12.2625 19.575 12.4875 19.65 12.7125 19.8Z" fill="#594640"/>
<path d="M6.6375 22.3501C6.675 23.7751 4.5375 23.1751 5.325 22.5751C5.4375 22.4626 5.4375 22.2376 5.3625 22.0876C4.875 20.7376 6.525 20.6251 6.525 21.2626C6.5625 21.7876 6.6 22.1251 6.6375 22.3501Z" fill="#594640"/>
<path d="M6.29995 21.5625C6.18745 19.9875 6.82495 19.6875 6.11245 18.6375C6.48745 17.7 6.11245 17.3625 6.11245 17.3625C5.06245 17.475 4.19995 16.4625 4.19995 16.4625C4.19995 16.4625 4.42495 18.375 4.76245 19.275C5.17495 20.4 5.43745 21.7125 5.43745 21.7125C5.47495 22.35 6.33745 22.275 6.29995 21.5625Z" fill="#FFDD67"/>
<path d="M11.8501 19.575C10.5751 18.525 10.8376 17.8875 9.48755 17.6625C8.40005 15.75 7.42505 15.1125 7.42505 15.1125C6.63755 16.1625 6.82505 17.025 6.82505 17.025C6.82505 17.025 7.98755 18.675 8.92505 19.0875C10.0876 19.575 11.2876 20.325 11.2876 20.325C11.8126 20.7375 12.4501 20.0625 11.8501 19.575Z" fill="#FFDD67"/>
<path d="M4.72502 8.775C4.97355 8.775 5.17502 8.57353 5.17502 8.325C5.17502 8.07647 4.97355 7.875 4.72502 7.875C4.4765 7.875 4.27502 8.07647 4.27502 8.325C4.27502 8.57353 4.4765 8.775 4.72502 8.775Z" fill="#937237"/>
<path d="M6.97502 8.775C7.22355 8.775 7.42502 8.57353 7.42502 8.325C7.42502 8.07647 7.22355 7.875 6.97502 7.875C6.7265 7.875 6.52502 8.07647 6.52502 8.325C6.52502 8.57353 6.7265 8.775 6.97502 8.775Z" fill="#937237"/>
<path d="M6.60006 9.71249C6.11256 10.0875 5.58756 10.0875 5.13756 9.71249C5.06256 9.67499 5.02506 9.74999 5.06256 9.82499C5.21256 10.0875 5.51256 10.3125 5.88756 10.3125C6.26256 10.3125 6.56256 10.0875 6.71256 9.82499C6.71256 9.74999 6.63756 9.67499 6.60006 9.71249Z" fill="#937237"/>
<path d="M13.575 8.775C13.8235 8.775 14.025 8.57353 14.025 8.325C14.025 8.07647 13.8235 7.875 13.575 7.875C13.3265 7.875 13.125 8.07647 13.125 8.325C13.125 8.57353 13.3265 8.775 13.575 8.775Z" fill="#937237"/>
<path d="M15.825 8.775C16.0735 8.775 16.275 8.57353 16.275 8.325C16.275 8.07647 16.0735 7.875 15.825 7.875C15.5765 7.875 15.375 8.07647 15.375 8.325C15.375 8.57353 15.5765 8.775 15.825 8.775Z" fill="#937237"/>
<path d="M15.45 9.71249C14.9625 10.0875 14.4375 10.0875 13.9875 9.71249C13.9125 9.67499 13.875 9.74999 13.9125 9.82499C14.0625 10.0875 14.3625 10.3125 14.7375 10.3125C15.1125 10.3125 15.4125 10.0875 15.5625 9.82499C15.525 9.74999 15.4875 9.67499 15.45 9.71249Z" fill="#937237"/>
<path d="M7.46247 6.22499C7.53747 5.84999 7.79997 5.06249 8.62497 3.59999C9.07497 2.77499 8.58747 0.862485 8.32497 0.749985C8.13747 0.674985 6.74997 1.94999 6.67497 3.03749C6.59997 4.46249 6.52497 5.43749 6.48747 5.88749C6.44997 6.29998 7.34997 6.48749 7.46247 6.22499Z" fill="#594640"/>
<path d="M7.9875 1.98747C7.8375 1.91247 7.2375 2.43747 7.125 3.18747C6.825 4.98747 6.75 5.96247 6.75 5.96247L7.3125 6.11247C7.3125 6.11247 7.3125 5.51247 8.1375 3.44997C8.3625 2.96247 8.25 2.09997 7.9875 1.98747Z" fill="#E84D88"/>
<path d="M4.23752 6.22499C4.16252 5.84999 3.90002 5.06249 3.07502 3.59999C2.62502 2.77499 3.15002 0.862485 3.41252 0.749985C3.60002 0.674985 4.98752 1.94999 5.06252 3.03749C5.13752 4.46249 5.21252 5.43749 5.25002 5.88749C5.25002 6.29998 4.35002 6.48749 4.23752 6.22499Z" fill="#594640"/>
<path d="M3.71256 1.98747C3.86256 1.91247 4.46256 2.43747 4.57506 3.18747C4.87506 4.98747 4.95006 5.96247 4.95006 5.96247L4.38756 6.11247C4.38756 6.11247 4.38756 5.51247 3.56256 3.44997C3.37506 2.96247 3.48756 2.09997 3.71256 1.98747Z" fill="#E84D88"/>
<path d="M5.88745 6.37498C6.86245 6.37498 7.76245 6.56248 8.51245 6.86248C8.09995 6.14998 7.08745 5.66248 5.88745 5.66248C4.68745 5.66248 3.67495 6.14998 3.26245 6.86248C4.01245 6.56248 4.91245 6.37498 5.88745 6.37498Z" fill="#594640"/>
</svg>
