<svg width="220" height="202" viewBox="0 0 220 202" fill="none" xmlns="http://www.w3.org/2000/svg">
<path d="M123.532 78.0494C134.732 98.0029 140.079 118.629 139.884 135.697C139.688 152.906 133.955 165.456 124.242 171.225C114.529 176.993 101.096 175.825 86.5086 167.395C72.0409 159.034 57.3483 143.958 46.1484 124.004C34.9485 104.051 29.601 83.4243 29.7956 66.3563C29.9918 49.1471 35.7249 36.5972 45.438 30.829C55.1511 25.0607 68.584 26.2287 83.1714 34.6585C97.6391 43.0191 112.332 58.0958 123.532 78.0494Z" stroke="url(#paint0_linear_201_3076)" stroke-width="10"/>
<path d="M173.833 124.066C162.633 144.02 147.94 159.096 133.473 167.457C118.885 175.887 105.452 177.055 95.7393 171.286C86.0262 165.518 80.2931 152.968 80.0969 135.759C79.9023 118.691 85.2498 98.0648 96.4497 78.1112C107.65 58.1577 122.342 43.081 136.81 34.7203C151.397 26.2906 164.83 25.1226 174.543 30.8908C184.256 36.659 189.99 49.2089 190.186 66.4181C190.38 83.4861 185.033 104.112 173.833 124.066Z" stroke="url(#paint1_linear_201_3076)" stroke-width="10"/>
<defs>
<linearGradient id="paint0_linear_201_3076" x1="42.9907" y1="26.4688" x2="130.279" y2="173.453" gradientUnits="userSpaceOnUse">
<stop stop-color="#FD0E46"/>
<stop offset="1" stop-color="#4ADEFF"/>
</linearGradient>
<linearGradient id="paint1_linear_201_3076" x1="176.991" y1="26.5307" x2="89.7026" y2="173.515" gradientUnits="userSpaceOnUse">
<stop stop-color="#FD0E46"/>
<stop offset="1" stop-color="#4ADEFF"/>
</linearGradient>
</defs>
</svg>
