<svg width="36" height="36" viewBox="0 0 36 36" fill="none" xmlns="http://www.w3.org/2000/svg">
<circle cx="18" cy="18" r="18" fill="#FD0E46"/>
<path d="M18 7.5C20.5783 7.5 22.9332 8.43656 24.7612 9.98166L22.3475 12.3954C21.1474 11.4613 19.6408 10.9 18 10.9C14.079 10.9 10.9 14.079 10.9 18C10.9 21.921 14.079 25.1 18 25.1C21.0921 25.1 23.7129 23.1206 24.688 20.3669L24.9241 19.7H24.2167H18.5V16.3H27.4V16.3457H27.9H28.3676C28.4537 16.8853 28.5 17.4376 28.5 18C28.5 23.7986 23.7986 28.5 18 28.5C12.2014 28.5 7.5 23.7986 7.5 18C7.5 12.2014 12.2014 7.5 18 7.5Z" fill="#F7F8FA" stroke="#F7F8FA"/>
</svg>
