<svg width="25" height="25" viewBox="0 0 25 25" fill="none" xmlns="http://www.w3.org/2000/svg">
<g clip-path="url(#clip0_201_2659)">
<path d="M16.5278 11.0069C16.5278 11.0069 17.1875 8.02078 17.882 5.97217C17.9167 5.83328 17.9514 5.72911 17.9514 5.62495C17.9861 5.38189 18.0208 5.13883 18.0208 4.86106C18.0208 3.88883 16.875 2.53467 16.1111 2.53467C15.1736 2.53467 13.9931 3.33328 13.125 4.06245C12.9514 4.20133 12.7431 4.20133 12.5695 4.06245C11.7361 3.33328 10.625 2.53467 9.58335 2.53467C8.81946 2.53467 7.67362 3.88883 7.67362 4.86106C7.67362 5.52078 7.77779 6.04161 7.98612 6.45828C8.61112 8.40272 9.09724 10.868 9.13196 11.0069C7.91668 12.2569 4.75696 23.0555 4.75696 23.0555C4.75696 23.0555 5.62501 24.2013 9.06251 24.7569L9.09724 24.4444L9.8264 24.5486L9.79168 24.8611C10.6597 24.9652 11.6667 25.0347 12.8472 25.0347C14.0278 25.0347 15.0347 24.9652 15.9028 24.8611L15.8681 24.5486L16.5972 24.4444L16.632 24.7569C20.1042 24.2361 20.9375 23.0555 20.9375 23.0555C20.9375 23.0555 17.6736 12.1527 16.5278 11.0069Z" fill="#00D1AE"/>
<path d="M12.8472 11.6319C10.2778 11.6319 9.09724 11.25 9.02779 11.2153C8.78474 11.1458 8.85418 10.2083 9.09724 10.2778C9.09724 10.2778 10.4167 10.6597 12.8472 10.6597C15.2778 10.6597 16.4931 10.3125 16.4931 10.3125C16.7361 10.243 16.8403 11.1458 16.5972 11.25C16.5625 11.25 15.4514 11.6319 12.8472 11.6319ZM10.8681 15.1389C10.5903 15.1389 9.06251 24.7222 9.06251 24.7222L9.79168 24.7916C9.79168 24.7916 11.1458 15.1389 10.8681 15.1389ZM14.8264 15.1389C15.1042 15.1389 16.632 24.7222 16.632 24.7222L15.9028 24.7916C15.9028 24.7916 14.5486 15.1389 14.8264 15.1389ZM16.25 2.5347V0.659695C16.25 0.381917 16.4583 0.173584 16.7361 0.173584C17.0139 0.173584 17.2222 0.381917 17.2222 0.659695V3.19442C16.9097 2.84719 16.5625 2.60414 16.25 2.5347ZM8.50696 3.1597V0.659695C8.50696 0.381917 8.71529 0.173584 8.99307 0.173584C9.27085 0.173584 9.47918 0.381917 9.47918 0.659695V2.5347C9.16668 2.56942 8.78474 2.81247 8.50696 3.1597Z" fill="#00B89C"/>
</g>
<defs>
<clipPath id="clip0_201_2659">
<rect width="25" height="25" fill="white"/>
</clipPath>
</defs>
</svg>
