<svg width="24" height="24" viewBox="0 0 24 24" fill="none" xmlns="http://www.w3.org/2000/svg">
<path d="M0.753617 21.1367L0.746773 21.1004C0.742507 21.0766 0.734679 21.0396 0.727835 20.9943L0.70032 20.8237C0.688273 20.7548 0.678663 20.6795 0.667835 20.5942C0.618617 20.2471 0.566351 19.7578 0.537242 19.1726C0.503872 18.5042 0.5037 17.8345 0.536726 17.1661C0.541554 17.0741 0.544929 16.9791 0.551117 16.8854L0.572304 16.6024C0.580132 16.5074 0.585242 16.4081 0.595601 16.3127L0.625601 16.0211C0.664601 15.6256 0.721226 15.2255 0.789617 14.8172C0.927523 14.0018 1.1236 13.1651 1.38516 12.3343C1.64908 11.4926 1.9778 10.6725 2.36837 9.88154C2.76085 9.08236 3.22252 8.31263 3.74401 7.58288C4.26615 6.85379 4.84941 6.16594 5.4833 5.52872C6.1163 4.89122 6.80048 4.30667 7.52898 3.78094C8.25379 3.25786 9.02078 2.79587 9.82205 2.39972C10.6176 2.00358 11.4426 1.67663 12.2733 1.41507C13.1039 1.15332 13.9411 0.95766 14.7574 0.820644C15.166 0.752582 15.567 0.696754 15.9627 0.657988C16.1605 0.638582 16.3509 0.617253 16.545 0.605675L16.8288 0.585332C16.9216 0.578207 17.0177 0.576003 17.1098 0.571175C17.7799 0.539529 18.4511 0.541312 19.1211 0.576519C19.708 0.607316 20.1983 0.66066 20.5469 0.711378C20.7161 0.731582 20.8576 0.758863 20.9484 0.772785C20.9939 0.779816 21.031 0.787691 21.0549 0.792097L21.0914 0.799082C22.1701 1.00566 22.966 1.85527 23.1635 2.87124L23.1705 2.90771C23.1749 2.93166 23.1828 2.96874 23.1898 3.01421C23.2037 3.1051 23.231 3.24652 23.2512 3.41569C23.3019 3.7643 23.3553 4.25461 23.3861 4.84154C23.4174 5.42893 23.4264 6.11321 23.3914 6.85285C23.3866 6.94486 23.3844 7.041 23.3773 7.13377L23.3569 7.4176C23.3454 7.61175 23.324 7.80211 23.3046 7.99993C23.2659 8.39565 23.21 8.79661 23.142 9.20522C23.0049 10.0215 22.8093 10.8586 22.5475 11.6893C22.2859 12.52 21.959 13.345 21.5629 14.1406C21.1668 14.9418 20.7048 15.7088 20.1817 16.4336C19.6559 17.1621 19.0714 17.8463 18.4339 18.4793C17.7967 19.1132 17.1088 19.6965 16.3797 20.2186C15.6499 20.7401 14.8802 21.2018 14.0811 21.5942C13.2901 21.9848 12.47 22.3135 11.6283 22.5774C10.7975 22.8391 9.9608 23.0351 9.14537 23.173C8.73709 23.2414 8.33691 23.298 7.94148 23.337L7.64987 23.367C7.55448 23.3774 7.4552 23.3825 7.36018 23.3903L7.0772 23.4115C6.98349 23.4177 6.88852 23.4211 6.79651 23.4259C6.12808 23.4589 5.45843 23.4587 4.79002 23.4254C4.20479 23.3963 3.71555 23.3439 3.36844 23.2948C3.28318 23.284 3.20776 23.2743 3.1389 23.2623L2.96832 23.2348C2.92299 23.2279 2.88601 23.2201 2.86219 23.2158L2.82587 23.209C1.74573 23.0054 0.948195 22.1546 0.753617 21.1367Z" fill="#8E6049"/>
<path d="M1.13794 22.108C1.3259 22.3928 1.56932 22.6368 1.85367 22.8254L22.7775 1.90167C22.5893 1.61705 22.3459 1.37308 22.0618 1.1842L1.13794 22.108Z" fill="#464A4C"/>
<path d="M15.5454 10.8238L14.711 9.98935L15.4932 9.20714C15.697 9.00333 15.697 8.67296 15.4932 8.46919C15.2895 8.26542 14.959 8.26542 14.7553 8.46919L13.973 9.25144L13.1471 8.4255C12.9433 8.22174 12.6129 8.22169 12.4092 8.4255C12.2054 8.62927 12.2054 8.95969 12.4092 9.16346L13.2351 9.98939L11.8625 11.362L11.0366 10.536C10.8328 10.3323 10.5024 10.3323 10.2987 10.536C10.0949 10.7399 10.0949 11.0702 10.2987 11.274L11.1246 12.0999L9.752 13.4725L8.92606 12.6466C8.72225 12.4428 8.39188 12.4428 8.18811 12.6466C7.98435 12.8504 7.98435 13.1808 8.18811 13.3845L9.01405 14.2104L8.42366 14.8008C8.21989 15.0046 8.21989 15.335 8.42366 15.5387C8.52556 15.6406 8.65906 15.6916 8.79266 15.6916C8.92625 15.6916 9.05975 15.6406 9.16166 15.5387L9.752 14.9484L10.5864 15.7828C10.6883 15.8847 10.8218 15.9357 10.9554 15.9357C11.089 15.9357 11.2225 15.8847 11.3244 15.7828C11.5282 15.5791 11.5282 15.2486 11.3244 15.0449L10.49 14.2104L11.8625 12.8378L12.697 13.6723C12.7989 13.7742 12.9324 13.8251 13.066 13.8251C13.1995 13.8251 13.3331 13.7742 13.4349 13.6723C13.6387 13.4685 13.6387 13.1381 13.4349 12.9344L12.6005 12.0999L13.9731 10.7273L14.8076 11.5618C14.856 11.6103 14.9135 11.6488 14.9768 11.675C15.0401 11.7012 15.108 11.7147 15.1765 11.7146C15.3101 11.7146 15.4436 11.6636 15.5455 11.5618C15.7492 11.358 15.7492 11.0276 15.5454 10.8238ZM22.5474 11.6892C22.3167 12.4217 22.035 13.1498 21.7001 13.8571C21.6971 13.8337 21.6946 13.8103 21.6914 13.7867C21.3287 11.095 19.9251 8.40886 17.7393 6.22308C16.435 4.91874 14.9656 3.89944 13.3721 3.1935C12.2939 2.71589 11.1834 2.40169 10.1035 2.26317C10.8114 1.92788 11.54 1.64592 12.2732 1.41507C13.0951 1.16021 13.9174 0.964081 14.7232 0.828003C16.5257 1.66346 18.185 2.83144 19.658 4.30444C21.1335 5.77997 22.3111 7.4596 23.1352 9.23447C22.9992 10.0418 22.8028 10.8657 22.5474 11.6892ZM13.409 21.9075C12.3963 21.7565 11.3604 21.4527 10.3529 21.0063C8.75938 20.3004 7.29003 19.2811 5.98569 17.9768C3.83821 15.8293 2.44653 13.1988 2.05442 10.5547C1.79858 11.1351 1.57512 11.7292 1.38505 12.3343C1.12733 13.169 0.927924 14.0023 0.790908 14.8186C0.766941 14.9611 0.744596 15.1038 0.723877 15.2468C1.53974 16.9178 2.66971 18.4981 4.067 19.8954C5.46299 21.2913 7.02636 22.4131 8.72024 23.2379C8.86077 23.2172 9.00177 23.1956 9.14375 23.1715C9.96008 23.0345 10.7934 22.8351 11.6281 22.5773C12.2336 22.3872 12.8282 22.1636 13.409 21.9075Z" fill="#D1CFC3"/>
</svg>
