<svg width="43" height="38" viewBox="0 0 43 38" fill="none" xmlns="http://www.w3.org/2000/svg">
<path d="M21.2035 0.25C9.74512 0.25 0.370117 7.70833 0.370117 16.9167C0.422426 19.1306 0.963089 21.3057 1.95347 23.2864C2.94386 25.2672 4.35951 27.0048 6.09928 28.375C6.09928 29.625 5.22428 32.8958 0.370117 37.75C5.30762 37.5208 10.0368 35.6667 13.8493 32.5417C16.2243 33.2292 18.7243 33.5833 21.2035 33.5833C32.6618 33.5833 42.0368 26.125 42.0368 16.9167C42.0368 7.70833 32.6618 0.25 21.2035 0.25ZM21.2035 29.4167C11.9951 29.4167 4.53678 23.8125 4.53678 16.9167C4.53678 10.0208 11.9951 4.41667 21.2035 4.41667C30.4118 4.41667 37.8701 10.0208 37.8701 16.9167C37.8701 23.8125 30.4118 29.4167 21.2035 29.4167ZM31.6201 19V14.8333H27.4534V19H31.6201ZM23.2868 19V14.8333H19.1201V19H23.2868ZM14.9534 19V14.8333H10.7868V19H14.9534Z" fill="#1D1C17"/>
</svg>
