<svg width="41" height="42" viewBox="0 0 41 42" fill="none" xmlns="http://www.w3.org/2000/svg">
<path d="M40.2271 21C40.2272 17.7521 39.417 14.5554 37.8698 11.6997C36.3227 8.84387 34.0876 6.41919 31.3669 4.64524C28.6462 2.87129 25.526 1.80412 22.2888 1.54042C19.0516 1.27671 15.7997 1.82479 12.8278 3.13501C9.85588 4.44523 7.25779 6.47619 5.26887 9.04392C3.27996 11.6116 1.96307 14.635 1.43749 17.8401C0.911913 21.0452 1.19426 24.3308 2.25895 27.3993C3.32364 30.4678 5.13703 33.2221 7.53487 35.4129L7.76455 35.6043C11.3306 38.7714 15.9343 40.5206 20.7036 40.5206C25.473 40.5206 30.0767 38.7714 33.6427 35.6043L33.8724 35.4129C35.8764 33.5851 37.4768 31.359 38.571 28.8772C39.6653 26.3953 40.2293 23.7124 40.2271 21ZM3.47705 21C3.47321 18.1877 4.15795 15.4172 5.47147 12.9305C6.78499 10.4438 8.68735 8.31653 11.0124 6.73441C13.3375 5.15229 16.0145 4.16346 18.8098 3.85429C21.605 3.54511 24.4335 3.92499 27.0481 4.96075C29.6627 5.99651 31.984 7.65665 33.8092 9.79618C35.6344 11.9357 36.908 14.4896 37.5189 17.2347C38.1297 19.9799 38.0592 22.8328 37.3135 25.5445C36.5677 28.2561 35.1694 30.7439 33.2407 32.7906C31.4318 29.9923 28.7356 27.8826 25.5845 26.7996C27.1575 25.7519 28.3517 24.2258 28.9903 22.4469C29.629 20.6681 29.6784 18.731 29.1311 16.9219C28.5837 15.1129 27.4688 13.528 25.9512 12.4015C24.4335 11.2751 22.5936 10.6669 20.7036 10.6669C18.8136 10.6669 16.9737 11.2751 15.4561 12.4015C13.9384 13.528 12.8235 15.1129 12.2762 16.9219C11.7289 18.731 11.7782 20.6681 12.4169 22.4469C13.0556 24.2258 14.2497 25.7519 15.8228 26.7996C12.6716 27.8826 9.9754 29.9923 8.16651 32.7906C5.15175 29.6056 3.47335 25.3856 3.47705 21ZM14.1958 19.4687C14.1958 18.1816 14.5775 16.9234 15.2926 15.8532C16.0077 14.783 17.024 13.9489 18.2132 13.4563C19.4023 12.9637 20.7108 12.8349 21.9732 13.086C23.2356 13.3371 24.3952 13.9569 25.3053 14.867C26.2155 15.7772 26.8353 16.9367 27.0864 18.1991C27.3375 19.4615 27.2086 20.77 26.7161 21.9592C26.2235 23.1483 25.3894 24.1647 24.3192 24.8798C23.249 25.5949 21.9907 25.9766 20.7036 25.9766C18.9792 25.9715 17.3268 25.2842 16.1075 24.0649C14.8881 22.8455 14.2009 21.1932 14.1958 19.4687ZM9.87002 34.3984C10.9959 32.5319 12.5849 30.988 14.483 29.9163C16.3811 28.8446 18.5239 28.2814 20.7036 28.2814C22.8834 28.2814 25.0262 28.8446 26.9242 29.9163C28.8223 30.988 30.4113 32.5319 31.5372 34.3984C28.4697 36.8751 24.6462 38.226 20.7036 38.226C16.7611 38.226 12.9376 36.8751 9.87002 34.3984Z" fill="#1D1C17" stroke="#1D1C17"/>
</svg>
