<svg width="41" height="38" viewBox="0 0 41 38" fill="none" xmlns="http://www.w3.org/2000/svg">
<path d="M25.0268 13.3124C29.8594 21.6827 29.3668 31.0137 23.926 34.1549C18.4853 37.2962 10.1579 33.0585 5.32529 24.6874C0.492662 16.3163 0.985287 6.98617 6.42604 3.84492C11.8668 0.703667 20.195 4.94217 25.0268 13.3124Z" stroke="#FD0E46" stroke-width="4" stroke-linecap="round" stroke-linejoin="round"/>
<path d="M15.1759 13.3124C10.3432 21.6827 10.8359 31.0137 16.2766 34.1549C21.7174 37.2962 30.0456 33.0577 34.8782 24.6874C39.7109 16.3172 39.2182 6.98617 33.7766 3.84492C28.3376 0.703667 20.0085 4.94217 15.1759 13.3124Z" stroke="#FD0E46" stroke-width="4" stroke-linecap="round" stroke-linejoin="round"/>
<path d="M19.9844 7.0509C21.8612 8.7204 23.5981 10.8353 25.0279 13.3124C29.8596 21.6827 29.367 31.0137 23.9262 34.1549C22.7905 34.8112 21.5287 35.1454 20.1987 35.1874" stroke="#FD0E46" stroke-width="4" stroke-linecap="round" stroke-linejoin="round"/>
</svg>
