<svg width="24" height="24" viewBox="0 0 24 24" fill="none" xmlns="http://www.w3.org/2000/svg">
<rect width="24" height="24" fill="white"/>
<path d="M0.753739 21.1367L0.746895 21.1004C0.742629 21.0766 0.734801 21.0396 0.727957 20.9943L0.700442 20.8237C0.688395 20.7548 0.678786 20.6795 0.667957 20.5942C0.618739 20.2471 0.566473 19.7578 0.537364 19.1726C0.503994 18.5042 0.503822 17.8345 0.536848 17.1661C0.541676 17.0741 0.545051 16.9791 0.551239 16.8854L0.572426 16.6024C0.580254 16.5074 0.585364 16.4081 0.595723 16.3127L0.625723 16.0211C0.664723 15.6256 0.721348 15.2255 0.789739 14.8172C0.927645 14.0018 1.12372 13.1651 1.38529 12.3343C1.6492 11.4926 1.97792 10.6725 2.36849 9.88154C2.76097 9.08236 3.22265 8.31263 3.74413 7.58288C4.26627 6.85379 4.84954 6.16594 5.48343 5.52872C6.11642 4.89122 6.8006 4.30667 7.5291 3.78094C8.25391 3.25786 9.0209 2.79587 9.82218 2.39972C10.6177 2.00358 11.4427 1.67663 12.2735 1.41507C13.104 1.15332 13.9412 0.95766 14.7575 0.820644C15.1661 0.752582 15.5671 0.696754 15.9628 0.657988C16.1606 0.638582 16.351 0.617253 16.5451 0.605675L16.829 0.585332C16.9217 0.578207 17.0179 0.576003 17.1099 0.571175C17.78 0.539529 18.4513 0.541312 19.1212 0.576519C19.7081 0.607316 20.1984 0.66066 20.547 0.711378C20.7162 0.731582 20.8577 0.758863 20.9485 0.772785C20.994 0.779816 21.0311 0.787691 21.055 0.792097L21.0915 0.799082C22.1702 1.00566 22.9662 1.85527 23.1636 2.87124L23.1706 2.90771C23.175 2.93166 23.1829 2.96874 23.1899 3.01421C23.2039 3.1051 23.2311 3.24652 23.2513 3.41569C23.3021 3.7643 23.3554 4.25461 23.3862 4.84154C23.4175 5.42893 23.4265 6.11321 23.3916 6.85285C23.3867 6.94486 23.3845 7.041 23.3774 7.13377L23.3571 7.4176C23.3455 7.61175 23.3241 7.80211 23.3047 7.99993C23.266 8.39565 23.2101 8.79661 23.1421 9.20522C23.0051 10.0215 22.8094 10.8586 22.5477 11.6893C22.2861 12.52 21.9591 13.345 21.563 14.1406C21.1669 14.9418 20.7049 15.7088 20.1818 16.4336C19.656 17.1621 19.0715 17.8463 18.434 18.4793C17.7968 19.1132 17.1089 19.6965 16.3798 20.2186C15.6501 20.7401 14.8804 21.2018 14.0812 21.5942C13.2902 21.9848 12.4702 22.3135 11.6284 22.5774C10.7976 22.8391 9.96093 23.0351 9.14549 23.173C8.73721 23.2414 8.33704 23.298 7.9416 23.337L7.64999 23.367C7.5546 23.3774 7.45532 23.3825 7.3603 23.3903L7.07732 23.4115C6.98361 23.4177 6.88865 23.4211 6.79663 23.4259C6.1282 23.4589 5.45855 23.4587 4.79014 23.4254C4.20491 23.3963 3.71568 23.3439 3.36857 23.2948C3.2833 23.284 3.20788 23.2743 3.13902 23.2623L2.96844 23.2348C2.92311 23.2279 2.88613 23.2201 2.86232 23.2158L2.82599 23.209C1.74585 23.0054 0.948317 22.1546 0.753739 21.1367Z" fill="#8E6049"/>
<path d="M1.1377 22.108C1.32565 22.3928 1.56908 22.6368 1.85343 22.8254L22.7772 1.90167C22.589 1.61705 22.3457 1.37308 22.0615 1.1842L1.1377 22.108Z" fill="#464A4C"/>
<path d="M15.5457 10.8238L14.7112 9.98935L15.4935 9.20714C15.6973 9.00333 15.6973 8.67296 15.4935 8.46919C15.2897 8.26542 14.9593 8.26542 14.7555 8.46919L13.9733 9.25144L13.1474 8.4255C12.9436 8.22174 12.6132 8.22169 12.4094 8.4255C12.2056 8.62927 12.2056 8.95969 12.4094 9.16346L13.2354 9.98939L11.8628 11.362L11.0369 10.536C10.833 10.3323 10.5027 10.3323 10.2989 10.536C10.0951 10.7399 10.0951 11.0702 10.2989 11.274L11.1248 12.0999L9.75225 13.4725L8.92631 12.6466C8.7225 12.4428 8.39212 12.4428 8.18836 12.6466C7.98459 12.8504 7.98459 13.1808 8.18836 13.3845L9.01429 14.2104L8.4239 14.8008C8.22014 15.0046 8.22014 15.335 8.4239 15.5387C8.52581 15.6406 8.65931 15.6916 8.7929 15.6916C8.9265 15.6916 9.06 15.6406 9.1619 15.5387L9.75225 14.9484L10.5867 15.7828C10.6886 15.8847 10.8221 15.9357 10.9557 15.9357C11.0893 15.9357 11.2228 15.8847 11.3247 15.7828C11.5284 15.5791 11.5284 15.2486 11.3247 15.0449L10.4902 14.2104L11.8628 12.8378L12.6973 13.6723C12.7991 13.7742 12.9327 13.8251 13.0662 13.8251C13.1998 13.8251 13.3333 13.7742 13.4352 13.6723C13.639 13.4685 13.639 13.1381 13.4352 12.9344L12.6007 12.0999L13.9733 10.7273L14.8078 11.5618C14.8562 11.6103 14.9137 11.6488 14.977 11.675C15.0403 11.7012 15.1082 11.7147 15.1768 11.7146C15.3103 11.7146 15.4439 11.6636 15.5457 11.5618C15.7494 11.358 15.7494 11.0276 15.5457 10.8238ZM22.5476 11.6892C22.3169 12.4217 22.0353 13.1498 21.7004 13.8571C21.6974 13.8337 21.6949 13.8103 21.6917 13.7867C21.329 11.095 19.9254 8.40886 17.7396 6.22308C16.4352 4.91874 14.9658 3.89944 13.3723 3.1935C12.2941 2.71589 11.1837 2.40169 10.1038 2.26317C10.8117 1.92788 11.5403 1.64592 12.2735 1.41507C13.0953 1.16021 13.9177 0.964081 14.7235 0.828003C16.5259 1.66346 18.1852 2.83144 19.6582 4.30444C21.1337 5.77997 22.3113 7.4596 23.1355 9.23447C22.9994 10.0418 22.803 10.8657 22.5476 11.6892ZM13.4092 21.9075C12.3965 21.7565 11.3607 21.4527 10.3532 21.0063C8.75962 20.3004 7.29028 19.2811 5.98593 17.9768C3.83845 15.8293 2.44678 13.1988 2.05467 10.5547C1.79883 11.1351 1.57536 11.7292 1.38529 12.3343C1.12757 13.169 0.928168 14.0023 0.791152 14.8186C0.767185 14.9611 0.74484 15.1038 0.724121 15.2468C1.53998 16.9178 2.66995 18.4981 4.06725 19.8954C5.46323 21.2913 7.02661 22.4131 8.72048 23.2379C8.86101 23.2172 9.00201 23.1956 9.144 23.1715C9.96032 23.0345 10.7937 22.8351 11.6283 22.5773C12.2339 22.3872 12.8284 22.1636 13.4092 21.9075Z" fill="#D1CFC3"/>
</svg>
