<svg width="24" height="24" viewBox="0 0 24 24" fill="none" xmlns="http://www.w3.org/2000/svg">
<path d="M3.6825 6.62434C3.69937 6.57559 3.66562 5.72059 4.14187 5.04746C4.61812 4.37434 5.2425 4.27496 5.70375 4.19246C6.2625 4.09309 7.61062 3.92996 7.82437 4.38934C8.03812 4.84871 7.87312 5.09621 8.21812 5.22746C8.56312 5.35871 7.93875 6.13121 7.93875 6.13121L3.6825 6.62434ZM20.2294 6.60746C20.2294 6.60746 20.3644 5.77684 19.89 5.21621C19.1775 4.37059 18.0619 4.09684 17.0062 4.09684C16.6669 4.09684 16.26 4.16246 16.1287 4.56746C16.0537 4.80184 16.0012 5.08684 15.8362 5.11871C15.6731 5.15246 19.1606 6.23059 20.2294 6.60746Z" fill="#464C4F"/>
<path d="M7.31998 15.2419C6.75935 15.6769 6.01498 18.6769 4.8506 19.47C3.68623 20.2631 1.0481 19.8394 0.849352 18.2212C0.674977 16.7944 0.991852 13.7944 1.78685 10.7287C2.58185 7.6631 3.1931 6.14435 5.05123 5.64748C6.54185 5.2481 9.4631 4.96685 12.3 4.99498C15.1387 5.0231 17.6231 5.0231 19.185 5.61935C20.5856 6.15373 21.54 7.60685 22.1944 10.4437C22.8469 13.2825 23.3512 16.695 23.2725 17.8237C23.1581 19.47 20.8312 20.52 19.1006 19.2431C17.7225 18.2269 17.4544 15.6394 16.7456 15.27C16.0369 14.9006 7.82998 14.8444 7.31998 15.2419Z" fill="#5E6268"/>
<path d="M17.4844 14.4693C17.3494 14.6381 17.6607 14.8893 17.8819 15.4387C18.1032 15.9881 18.6732 17.8068 19.2263 18.315C19.9163 18.9468 20.4544 18.8287 20.5594 18.63C20.6644 18.4312 20.0682 17.9175 19.3669 16.7718C18.6657 15.6262 17.7657 14.1187 17.4844 14.4693ZM1.97253 14.0025C1.7644 14.04 1.21315 16.8075 1.6219 17.9775C1.96315 18.9525 3.27003 19.0068 3.76128 18.8662C4.74003 18.5868 5.04753 17.6381 4.8244 17.5331C4.60315 17.4281 3.8269 18.1706 3.09378 17.8256C2.27628 17.4393 2.28753 16.3518 2.18253 15.2531C2.08878 14.2631 2.17128 13.9668 1.97253 14.0025ZM7.1269 7.86558C7.05003 7.86558 6.37503 7.86183 6.37503 7.86183L6.37878 7.04621C6.37878 7.04621 6.39378 6.38808 5.68878 6.40308C5.0569 6.41621 5.07003 6.94308 5.07003 7.04621C5.07003 7.14933 5.06628 7.85621 5.06628 7.85621C5.06628 7.85621 4.35003 7.84871 4.2169 7.85246C4.08378 7.85621 3.58503 7.86371 3.58503 8.50683C3.58503 9.11433 4.10065 9.15746 4.2169 9.16121C4.33315 9.16496 5.06253 9.16496 5.06253 9.16496C5.06253 9.16496 5.0569 9.84558 5.05878 9.95621C5.06065 10.0668 5.08128 10.5881 5.71315 10.5881C6.40315 10.5881 6.36753 9.95621 6.36753 9.95621L6.37128 9.17058C6.37128 9.17058 7.01628 9.17621 7.12878 9.17433C7.29003 9.17058 7.7644 9.12746 7.7719 8.48433C7.77753 7.84871 7.20565 7.86558 7.1269 7.86558Z" fill="#9E9E9E"/>
<path d="M14.5782 13.3293C15.4625 13.3293 16.1794 12.6124 16.1794 11.7281C16.1794 10.8437 15.4625 10.1268 14.5782 10.1268C13.6938 10.1268 12.9769 10.8437 12.9769 11.7281C12.9769 12.6124 13.6938 13.3293 14.5782 13.3293Z" fill="#AFAFAF"/>
<path d="M14.5781 12.7706C15.1694 12.7706 15.6487 12.2913 15.6487 11.7C15.6487 11.1087 15.1694 10.6294 14.5781 10.6294C13.9868 10.6294 13.5074 11.1087 13.5074 11.7C13.5074 12.2913 13.9868 12.7706 14.5781 12.7706Z" fill="#C8C8C8"/>
<path d="M9.07501 13.305C9.95935 13.305 10.6763 12.5881 10.6763 11.7038C10.6763 10.8194 9.95935 10.1025 9.07501 10.1025C8.19066 10.1025 7.47375 10.8194 7.47375 11.7038C7.47375 12.5881 8.19066 13.305 9.07501 13.305Z" fill="#AFAFAF"/>
<path d="M9.07307 12.735C9.66436 12.735 10.1437 12.2557 10.1437 11.6644C10.1437 11.0731 9.66436 10.5938 9.07307 10.5938C8.48178 10.5938 8.00244 11.0731 8.00244 11.6644C8.00244 12.2557 8.48178 12.735 9.07307 12.735Z" fill="#C8C8C8"/>
<path d="M16.0913 9.42568C16.5676 9.42568 16.9538 9.03953 16.9538 8.56318C16.9538 8.08684 16.5676 7.70068 16.0913 7.70068C15.6149 7.70068 15.2288 8.08684 15.2288 8.56318C15.2288 9.03953 15.6149 9.42568 16.0913 9.42568Z" fill="#2086FA"/>
<path d="M17.8012 11.0775C18.2776 11.0775 18.6637 10.6914 18.6637 10.215C18.6637 9.73869 18.2776 9.35254 17.8012 9.35254C17.3249 9.35254 16.9387 9.73869 16.9387 10.215C16.9387 10.6914 17.3249 11.0775 17.8012 11.0775Z" fill="#06AC48"/>
<path d="M19.5225 9.56252C19.9989 9.56252 20.385 9.17637 20.385 8.70002C20.385 8.22368 19.9989 7.83752 19.5225 7.83752C19.0462 7.83752 18.66 8.22368 18.66 8.70002C18.66 9.17637 19.0462 9.56252 19.5225 9.56252Z" fill="#F72E26"/>
<path d="M17.8162 7.8019C18.2926 7.8019 18.6787 7.41575 18.6787 6.9394C18.6787 6.46306 18.2926 6.0769 17.8162 6.0769C17.3399 6.0769 16.9537 6.46306 16.9537 6.9394C16.9537 7.41575 17.3399 7.8019 17.8162 7.8019Z" fill="#FDB700"/>
</svg>
