<svg width="66" height="66" viewBox="0 0 66 66" fill="none" xmlns="http://www.w3.org/2000/svg">
<path fill-rule="evenodd" clip-rule="evenodd" d="M32.9999 8.25001C29.5901 8.24658 26.3006 9.51028 23.77 11.7958C21.2395 14.0813 19.6484 17.2255 19.3057 20.6181C18.963 24.0107 19.8932 27.4097 21.9155 30.1551C23.9379 32.9005 26.9083 34.7965 30.2499 35.475V41.25H21.9999V46.75H30.2499V57.75H35.7499V46.75H43.9999V41.25H35.7499V35.475C39.0811 34.785 42.0385 32.885 44.0508 30.142C46.0631 27.3991 46.9876 24.0077 46.6457 20.623C46.3038 17.2383 44.7198 14.1004 42.1996 11.8152C39.6794 9.53012 36.4019 8.25993 32.9999 8.25001ZM24.7499 22C24.7499 24.188 25.6191 26.2865 27.1663 27.8336C28.7135 29.3808 30.8119 30.25 32.9999 30.25C35.188 30.25 37.2864 29.3808 38.8336 27.8336C40.3807 26.2865 41.2499 24.188 41.2499 22C41.2499 19.812 40.3807 17.7136 38.8336 16.1664C37.2864 14.6192 35.188 13.75 32.9999 13.75C30.8119 13.75 28.7135 14.6192 27.1663 16.1664C25.6191 17.7136 24.7499 19.812 24.7499 22Z" fill="white"/>
</svg>
