<svg width="40" height="40" viewBox="0 0 40 40" fill="none" xmlns="http://www.w3.org/2000/svg">
<path fill-rule="evenodd" clip-rule="evenodd" d="M20.5197 6.25L20.5252 0.75L39.7752 0.76925L39.7532 20.0192L34.2532 20.0138L34.2642 10.1467L25.8932 18.5178C27.7965 21.352 28.5778 24.7927 28.0852 28.1709C27.5926 31.5492 25.8614 34.6235 23.228 36.7963C20.5947 38.9691 17.2476 40.0849 13.8372 39.927C10.4269 39.7691 7.19721 38.3486 4.776 35.9418C2.37045 33.5418 0.938745 30.3362 0.757 26.9431C0.575256 23.55 1.65635 20.2097 3.79177 17.5666C5.92719 14.9235 8.96569 13.1646 12.3212 12.6293C15.6768 12.094 19.1117 12.8202 21.9635 14.6677L30.373 6.261L20.5197 6.25ZM8.66725 20.385C10.2149 18.8381 12.3137 17.9693 14.5019 17.9698C15.5854 17.9701 16.6583 18.1837 17.6592 18.5986C18.6601 19.0135 19.5695 19.6214 20.3355 20.3877C21.1015 21.1541 21.709 22.0638 22.1234 23.0649C22.5378 24.066 22.7509 25.1389 22.7507 26.2224C22.7504 27.3059 22.5368 28.3788 22.1219 29.3797C21.707 30.3806 21.0991 31.29 20.3327 32.056C18.7808 33.5818 16.6888 34.4326 14.5124 34.423C12.336 34.4134 10.2516 33.5441 8.71316 32.0046C7.17475 30.4651 6.30699 28.3801 6.29891 26.2037C6.29082 24.0273 7.14032 21.9359 8.66725 20.385Z" fill="white"/>
</svg>
