<svg width="150" height="160" viewBox="0 0 150 160" fill="none" xmlns="http://www.w3.org/2000/svg">
<rect x="0.5" y="0.5" width="149" height="159" rx="14.5" fill="white" stroke="#FD0E46"/>
<circle cx="75" cy="81" r="50" fill="#FD0E46"/>
<path fill-rule="evenodd" clip-rule="evenodd" d="M77.5197 66.25L77.5252 60.75L96.7752 60.7692L96.7532 80.0192L91.2532 80.0138L91.2642 70.1467L82.8932 78.5178C84.7965 81.352 85.5778 84.7927 85.0852 88.1709C84.5926 91.5492 82.8614 94.6235 80.228 96.7963C77.5947 98.9691 74.2476 100.085 70.8372 99.927C67.4269 99.7691 64.1972 98.3486 61.776 95.9418C59.3705 93.5418 57.9387 90.3362 57.757 86.9431C57.5753 83.55 58.6563 80.2097 60.7918 77.5666C62.9272 74.9235 65.9657 73.1646 69.3212 72.6293C72.6768 72.094 76.1117 72.8202 78.9635 74.6677L87.373 66.261L77.5197 66.25ZM65.6672 80.385C67.2149 78.8381 69.3137 77.9693 71.5019 77.9698C72.5854 77.9701 73.6583 78.1837 74.6592 78.5986C75.6601 79.0135 76.5695 79.6214 77.3355 80.3877C78.1015 81.1541 78.709 82.0638 79.1234 83.0649C79.5378 84.066 79.7509 85.1389 79.7507 86.2224C79.7504 87.3059 79.5368 88.3788 79.1219 89.3797C78.707 90.3806 78.0991 91.29 77.3327 92.056C75.7808 93.5818 73.6888 94.4326 71.5124 94.423C69.336 94.4134 67.2516 93.5441 65.7132 92.0046C64.1747 90.4651 63.307 88.3801 63.2989 86.2037C63.2908 84.0273 64.1403 81.9359 65.6672 80.385Z" fill="white"/>
<path fill-rule="evenodd" clip-rule="evenodd" d="M129.5 28.125C134.263 28.125 138.125 24.2634 138.125 19.5C138.125 14.7366 134.263 10.875 129.5 10.875C124.737 10.875 120.875 14.7366 120.875 19.5C120.875 24.2634 124.737 28.125 129.5 28.125ZM129.5 29.0833C134.793 29.0833 139.083 24.7928 139.083 19.5C139.083 14.2071 134.793 9.91663 129.5 9.91663C124.207 9.91663 119.917 14.2071 119.917 19.5C119.917 24.7928 124.207 29.0833 129.5 29.0833Z" fill="#FD0E46"/>
<path fill-rule="evenodd" clip-rule="evenodd" d="M134.613 15.7907C134.707 15.8759 134.764 15.995 134.77 16.1219C134.777 16.2488 134.733 16.373 134.647 16.4673L128.248 23.5403L124.378 19.8464C124.291 19.7576 124.242 19.6385 124.241 19.5143C124.24 19.39 124.288 19.2704 124.374 19.1805C124.46 19.0906 124.577 19.0375 124.701 19.0325C124.825 19.0275 124.946 19.0709 125.039 19.1535L128.197 22.1675L133.937 15.8248C133.979 15.7781 134.03 15.7402 134.087 15.7132C134.144 15.6863 134.205 15.6708 134.268 15.6677C134.331 15.6646 134.394 15.6739 134.453 15.6951C134.513 15.7163 134.567 15.749 134.614 15.7912L134.613 15.7907Z" fill="#FD0E46"/>
</svg>
