<svg width="150" height="160" viewBox="0 0 150 160" fill="none" xmlns="http://www.w3.org/2000/svg">
<rect width="150" height="160" rx="15" fill="#FAE4E9"/>
<circle cx="75" cy="80" r="50" fill="#FD0E46"/>
<path fill-rule="evenodd" clip-rule="evenodd" d="M74.9999 56.25C71.5901 56.2466 68.3006 57.5103 65.77 59.7958C63.2395 62.0813 61.6484 65.2255 61.3057 68.6181C60.963 72.0107 61.8932 75.4097 63.9155 78.1551C65.9379 80.9005 68.9083 82.7965 72.2499 83.475V89.25H63.9999V94.75H72.2499V105.75H77.7499V94.75H85.9999V89.25H77.7499V83.475C81.0811 82.785 84.0385 80.885 86.0508 78.142C88.0631 75.3991 88.9876 72.0077 88.6457 68.623C88.3038 65.2383 86.7198 62.1004 84.1996 59.8152C81.6794 57.5301 78.4019 56.2599 74.9999 56.25ZM66.7499 70C66.7499 72.188 67.6191 74.2865 69.1663 75.8336C70.7135 77.3808 72.8119 78.25 74.9999 78.25C77.188 78.25 79.2864 77.3808 80.8336 75.8336C82.3807 74.2865 83.2499 72.188 83.2499 70C83.2499 67.812 82.3807 65.7136 80.8336 64.1664C79.2864 62.6192 77.188 61.75 74.9999 61.75C72.8119 61.75 70.7135 62.6192 69.1663 64.1664C67.6191 65.7136 66.7499 67.812 66.7499 70Z" fill="white"/>
</svg>
