<svg width="49" height="49" viewBox="0 0 49 49" fill="none" xmlns="http://www.w3.org/2000/svg">
<circle cx="24.5" cy="24.5" r="24.5" fill="#FD0E46"/>
<path d="M33.3333 34.3334V19.6667H14.6667V34.3334H33.3333ZM29.3333 10.3334H32V13H33.3333C34.0406 13 34.7189 13.281 35.219 13.7811C35.719 14.2812 36 14.9595 36 15.6667V34.3334C36 35.8134 34.8133 37 33.3333 37H14.6667C13.9594 37 13.2811 36.7191 12.781 36.219C12.281 35.7189 12 35.0406 12 34.3334V15.6667C12 14.2 13.2 13 14.6667 13H16V10.3334H18.6667V13H29.3333V10.3334ZM24 31.8934L23.2267 31.1867C20.48 28.6934 18.6667 27.0534 18.6667 25.04C18.6667 23.4 19.96 22.1067 21.6 22.1067C22.5333 22.1067 23.4133 22.5334 24 23.2134C24.5867 22.5334 25.4667 22.1067 26.4 22.1067C28.04 22.1067 29.3333 23.4 29.3333 25.04C29.3333 27.0534 27.52 28.6934 24.7733 31.1867L24 31.8934Z" fill="white"/>
</svg>
