<svg width="49" height="49" viewBox="0 0 49 49" fill="none" xmlns="http://www.w3.org/2000/svg">
<circle cx="24.5" cy="24.5" r="24.5" fill="#FD0E46"/>
<path fill-rule="evenodd" clip-rule="evenodd" d="M24.5002 11.375C22.6919 11.3732 20.9475 12.0433 19.6055 13.2553C18.2636 14.4673 17.4198 16.1348 17.2381 17.9339C17.0564 19.733 17.5496 21.5354 18.6221 22.9913C19.6946 24.4472 21.2698 25.4527 23.0418 25.8125V28.875H18.6668V31.7917H23.0418V37.625H25.9585V31.7917H30.3335V28.875H25.9585V25.8125C27.7251 25.4466 29.2934 24.439 30.3605 22.9844C31.4276 21.5298 31.9179 19.7314 31.7366 17.9365C31.5553 16.1415 30.7153 14.4775 29.3788 13.2657C28.0423 12.0539 26.3042 11.3803 24.5002 11.375ZM20.1252 18.6667C20.1252 19.827 20.5861 20.9398 21.4066 21.7603C22.2271 22.5807 23.3399 23.0417 24.5002 23.0417C25.6605 23.0417 26.7733 22.5807 27.5938 21.7603C28.4142 20.9398 28.8752 19.827 28.8752 18.6667C28.8752 17.5063 28.4142 16.3935 27.5938 15.5731C26.7733 14.7526 25.6605 14.2917 24.5002 14.2917C23.3399 14.2917 22.2271 14.7526 21.4066 15.5731C20.5861 16.3935 20.1252 17.5063 20.1252 18.6667Z" fill="white"/>
</svg>
