<svg width="24" height="24" viewBox="0 0 24 24" fill="none" xmlns="http://www.w3.org/2000/svg">
<g clip-path="url(#clip0_201_2707)">
<path d="M13.4925 9.93754C13.4925 9.93754 12.8306 12.1744 12.555 12.8119L11.7318 14.8782C11.6006 15.1688 11.7168 15.5494 11.9925 15.7088C12.3093 15.8907 12.7687 15.7538 12.9206 15.4219L15.2718 10.47L15.0825 9.82129L13.4925 9.93754Z" fill="url(#paint0_linear_201_2707)"/>
<path d="M19.7925 13.9894V23.0044H18.7332L17.2575 15.84C17.25 15.795 17.2125 15.7631 17.1713 15.7631C17.13 15.7631 17.0925 15.795 17.085 15.84L15.6094 23.0044H14.55V13.9894H19.7925Z" fill="#7C7C7C"/>
<path d="M19.2394 23.25H20.0738C20.2275 23.2462 20.3381 23.07 20.2931 22.9162C20.1544 22.4475 19.7325 22.1062 19.2394 22.1062C18.7369 22.1062 18.3094 22.4625 18.1781 22.9425C18.1369 23.0962 18.2513 23.2481 18.405 23.2481C18.405 23.25 19.2394 23.25 19.2394 23.25ZM15.105 23.25H14.2706C14.1169 23.2462 14.0063 23.07 14.0513 22.9162C14.19 22.4475 14.6119 22.1062 15.105 22.1062C15.6075 22.1062 16.035 22.4625 16.1663 22.9425C16.2075 23.0962 16.0931 23.2481 15.9394 23.2481C15.9394 23.25 15.105 23.25 15.105 23.25Z" fill="#424242"/>
<path d="M4.22437 13.9894V23.0044H5.28374L6.75937 15.84C6.76687 15.795 6.80436 15.7631 6.84561 15.7631C6.88686 15.7631 6.92437 15.795 6.93187 15.84L8.40749 23.0044H9.46687V13.9894H4.22437Z" fill="#7C7C7C"/>
<path d="M4.7775 23.25H3.94313C3.78938 23.2462 3.67875 23.07 3.72375 22.9162C3.8625 22.4475 4.28438 22.1062 4.7775 22.1062C5.28 22.1062 5.7075 22.4625 5.83875 22.9425C5.88 23.0962 5.76563 23.2481 5.61188 23.2481C5.61188 23.25 4.7775 23.25 4.7775 23.25ZM8.91188 23.25H9.74625C9.9 23.2462 10.0106 23.07 9.96563 22.9162C9.82688 22.4475 9.405 22.1062 8.91188 22.1062C8.40938 22.1062 7.98188 22.4625 7.85063 22.9425C7.80938 23.0962 7.92375 23.2481 8.0775 23.2481C8.0775 23.25 8.91188 23.25 8.91188 23.25Z" fill="#424242"/>
<path d="M12.4443 13.0931L12.1106 13.9294L12.3806 14.4469L13.1137 15.0225L13.8018 13.5713L12.4443 13.0931Z" fill="url(#paint1_linear_201_2707)"/>
<path d="M18.7688 10.1437L20.5875 10.0312C20.5875 10.0312 21.4313 11.9063 21.7125 12.5306C21.7125 12.5306 22.5075 13.7156 22.8694 14.25C23.2219 14.61 23.3119 14.7413 23.4394 15.2231C23.58 15.7538 23.5144 16.0444 23.4469 16.1719C23.3813 16.3012 23.025 16.6331 22.8057 16.4306C22.5732 16.215 22.59 15.4519 22.3725 15.5044C22.26 15.5325 22.4025 15.7594 22.4157 15.9844C22.4288 16.2094 22.2563 16.2488 22.1344 16.1869C22.0725 16.155 21.7875 15.6788 21.7875 15.6788L21.6657 14.8894L18.8288 10.9088L18.7688 10.1437Z" fill="url(#paint2_linear_201_2707)"/>
<path d="M5.24814 10.1437L3.42939 10.0312C3.42939 10.0312 2.58564 11.9063 2.30439 12.5306C2.30439 12.5306 1.50939 13.7156 1.14752 14.25C0.795018 14.61 0.705018 14.7413 0.577518 15.2231C0.436893 15.7538 0.502518 16.0444 0.570018 16.1719C0.637518 16.2994 0.991893 16.6331 1.21127 16.4306C1.44377 16.215 1.42689 15.4519 1.64439 15.5044C1.75689 15.5325 1.61439 15.7594 1.60127 15.9844C1.58814 16.2094 1.76064 16.2488 1.88252 16.1869C1.94439 16.155 2.22939 15.6788 2.22939 15.6788L2.35127 14.8894L5.18814 10.9069L5.24814 10.1437Z" fill="url(#paint3_linear_201_2707)"/>
<path d="M15.1763 8.41314C15.63 8.29314 16.4231 8.21439 17.1731 8.21439C17.9231 8.21251 18.7088 8.29314 19.1625 8.41314C20.5781 8.79001 20.9288 9.45564 21.3506 10.5975L19.7981 11.1975V14.625H14.5481V11.1975L12.9788 10.5975C13.4006 9.45564 13.7606 8.79001 15.1763 8.41314Z" fill="url(#paint4_linear_201_2707)"/>
<path d="M8.79932 10.7775L11.4524 15.1857C11.4524 15.1857 11.1656 15.6769 11.3793 16.1063C11.6793 16.3219 11.8143 15.6807 11.9306 15.6638C12.1537 15.63 12.5081 16.5188 12.7443 16.5188C13.1962 16.7138 13.4062 16.11 13.4137 15.7538C13.5843 15.1332 12.4068 14.4807 12.4068 14.4807C12.0918 13.9182 11.5312 12.6432 11.5312 12.6432C11.3043 11.9963 10.6274 10.0557 10.6274 10.0557L8.80682 10.0088L8.79932 10.7775Z" fill="url(#paint5_linear_201_2707)"/>
<path d="M12.6262 16.1999C12.5962 16.1868 12.5662 16.1793 12.5325 16.1793C12.525 16.1793 12.5193 16.1812 12.5118 16.1831L12.5212 16.1643C12.5737 16.0481 12.5287 15.9093 12.4181 15.8531C12.3881 15.8381 12.3562 15.8306 12.3225 15.8306C12.3093 15.8306 12.2962 15.8343 12.2831 15.8362C12.33 15.7237 12.2887 15.5906 12.1837 15.5343C12.1518 15.5174 12.1181 15.5081 12.0825 15.5081C12.0337 15.5081 11.9868 15.5268 11.9493 15.5568C11.9362 15.4874 11.895 15.4218 11.8256 15.3862C11.7937 15.3693 11.76 15.3618 11.7262 15.3618C11.64 15.3618 11.5631 15.4124 11.5256 15.4931L11.3531 15.8606C11.2987 15.9768 11.3437 16.1212 11.4618 16.1812C11.4937 16.1981 11.5275 16.2056 11.5631 16.2056C11.5987 16.2056 11.6306 16.1943 11.6606 16.1793C11.6625 16.1981 11.6606 16.2168 11.6662 16.2337C11.685 16.2937 11.7225 16.3424 11.775 16.3706C11.8068 16.3874 11.8406 16.3968 11.8762 16.3968C11.9156 16.3968 11.9512 16.3856 11.9831 16.3668C11.9943 16.4399 12.0337 16.5093 12.1012 16.5431C12.1312 16.5581 12.1631 16.5656 12.1968 16.5656C12.2268 16.5656 12.255 16.5581 12.2793 16.5449C12.2943 16.6162 12.3356 16.6799 12.4012 16.7118C12.4312 16.7249 12.4612 16.7324 12.495 16.7324C12.5831 16.7324 12.6637 16.6781 12.6993 16.5937L12.7331 16.5149C12.7893 16.3968 12.7387 16.2543 12.6262 16.1999Z" fill="#E0BB95"/>
<path d="M12.6675 16.185C12.7688 15.8513 12.3938 15.7707 12.3938 15.7707C12.4463 15.5813 12.1463 15.3638 11.9607 15.4725C11.6832 15.195 11.4882 15.4482 11.4619 15.6244C11.4619 15.6244 11.6007 15.4125 11.745 15.48C11.8425 15.525 11.8407 15.6188 11.8107 15.7088C11.7638 15.8494 11.7244 15.9919 11.7244 15.9919C11.7244 15.9919 11.8294 15.8138 11.9194 15.6994C11.9494 15.66 12.045 15.5813 12.1463 15.6375C12.2475 15.6919 12.2494 15.8175 12.2344 15.8625C12.1857 16.0163 12.06 16.2225 12.06 16.2225C12.06 16.2225 12.1538 16.1269 12.2325 16.0369C12.2944 15.9657 12.3469 15.9207 12.4407 15.9638C12.5419 16.0107 12.5363 16.125 12.5063 16.1832C12.4444 16.3069 12.3638 16.455 12.3638 16.455C12.3638 16.455 12.51 16.2319 12.6619 16.3575C12.7575 16.4382 12.6732 16.635 12.6844 16.6238C12.9544 16.35 12.6675 16.185 12.6675 16.185Z" fill="#BA8F63"/>
<path d="M8.82745 8.41314C8.3737 8.29314 7.58058 8.21439 6.83058 8.21439C6.08058 8.21251 5.29495 8.29314 4.8412 8.41314C3.42558 8.79001 3.07495 9.45564 2.65308 10.5975L4.20558 11.1975V14.625H9.45558V11.1975L11.025 10.5975C10.6012 9.45564 10.2412 8.79001 8.82745 8.41314Z" fill="url(#paint6_linear_201_2707)"/>
<path d="M19.9913 6.93934C19.89 6.75559 20.0194 6.56809 20.2388 6.33559C20.5875 5.96809 20.9682 5.11497 20.6157 4.24684C20.6175 4.24122 20.5463 4.09497 20.5482 4.09122L20.4019 4.08372C20.355 4.07622 18.7594 4.07434 17.1619 4.07434C15.5644 4.07434 13.9688 4.07809 13.9219 4.08372C13.9219 4.08372 13.7063 4.24122 13.7082 4.24684C13.3557 5.11309 13.7344 5.96622 14.085 6.33559C14.3044 6.56809 14.4338 6.75559 14.3325 6.93934C14.235 7.11747 13.9425 7.14372 13.9425 7.14372C13.9425 7.14372 14.01 7.32747 14.1713 7.42497C14.3213 7.51684 14.5069 7.53747 14.6344 7.54122C14.6344 7.54122 15.1332 8.23122 16.4363 8.23122H17.8875C19.1907 8.23122 19.6894 7.54122 19.6894 7.54122C19.8169 7.53747 20.0007 7.51684 20.1525 7.42497C20.3157 7.32559 20.3813 7.14372 20.3813 7.14372C20.3813 7.14372 20.0888 7.11747 19.9913 6.93934Z" fill="#AB872F"/>
<path d="M17.1619 8.23122V7.46622L19.4775 7.28247L19.6875 7.54122C19.6875 7.54122 19.1887 8.23122 17.8856 8.23122H17.1619Z" fill="url(#paint7_radial_201_2707)"/>
<path d="M17.1656 8.23122V7.46622L14.85 7.28247L14.64 7.54122C14.64 7.54122 15.1388 8.23122 16.4419 8.23122H17.1656Z" fill="url(#paint8_radial_201_2707)"/>
<path d="M19.6838 7.20751C19.3369 6.68064 20.1056 6.48376 20.1056 6.48376C19.9725 6.65064 19.9106 6.79501 19.9894 6.93751C20.0869 7.11564 20.3794 7.14189 20.3794 7.14189C20.3794 7.14189 19.9819 7.49814 19.6838 7.20751Z" fill="url(#paint9_radial_201_2707)"/>
<path d="M20.6175 4.24692C20.9625 5.08692 20.5988 5.94942 20.2594 6.31505C20.2125 6.36567 20.0156 6.5588 19.9706 6.71442C19.9706 6.71442 19.1981 5.6363 18.9656 5.00255C18.9188 4.87505 18.8775 4.74192 18.8719 4.60692C18.8681 4.50567 18.8831 4.3838 18.9431 4.29755C19.0144 4.19067 20.5781 4.16067 20.5781 4.16067C20.5763 4.1588 20.6175 4.24692 20.6175 4.24692Z" fill="url(#paint10_radial_201_2707)"/>
<path d="M13.71 4.24682C13.365 5.08682 13.7288 5.94932 14.0682 6.31494C14.115 6.36557 14.3119 6.55869 14.3569 6.71432C14.3569 6.71432 15.1294 5.63619 15.3619 5.00244C15.4088 4.87494 15.45 4.74182 15.4557 4.60682C15.4594 4.50557 15.4444 4.38369 15.3844 4.29744C15.3132 4.19057 15.2288 4.21869 15.105 4.21869C14.8707 4.21869 13.8507 4.15869 13.77 4.15869C13.7719 4.15869 13.71 4.24682 13.71 4.24682Z" fill="url(#paint11_radial_201_2707)"/>
<path d="M14.6437 7.20751C14.9906 6.68064 14.2219 6.48376 14.2219 6.48376C14.355 6.65064 14.4169 6.79501 14.3381 6.93751C14.2406 7.11564 13.9481 7.14189 13.9481 7.14189C13.9481 7.14189 14.3437 7.49814 14.6437 7.20751Z" fill="url(#paint12_radial_201_2707)"/>
<path d="M17.1638 7.63497H16.2263V8.62872C16.2263 9.07872 16.6088 9.44247 17.0775 9.44247H17.25C17.7207 9.44247 18.1013 9.07872 18.1013 8.62872V7.63497H17.1638ZM19.41 4.56372H14.9194C14.4357 4.56372 14.04 4.9856 14.04 5.50122C14.04 6.01685 14.4357 6.43872 14.9194 6.43872H19.41C19.8938 6.43872 20.2894 6.01685 20.2894 5.50122C20.2894 4.9856 19.8938 4.56372 19.41 4.56372Z" fill="#C48E6A"/>
<path d="M17.1638 1.24878C15.735 1.24878 14.4094 2.7769 14.4094 4.97815C14.4094 7.16628 15.7744 8.24815 17.1638 8.24815C18.5532 8.24815 19.9182 7.16628 19.9182 4.97815C19.9163 2.7769 18.5925 1.24878 17.1638 1.24878Z" fill="#E0BB95"/>
<path d="M17.8556 6.74812C17.5931 6.90374 16.7362 6.90374 16.4737 6.74812C16.3237 6.65812 16.1699 6.79499 16.2318 6.93187C16.2937 7.06687 16.7606 7.37812 17.1656 7.37812C17.5706 7.37812 18.0318 7.06687 18.0937 6.93187C18.1556 6.79499 18.0056 6.65812 17.8556 6.74812Z" fill="#6D4C41"/>
<path d="M17.4807 6.07501C17.4722 6.07164 17.4634 6.06913 17.4544 6.0675H16.8732C16.8638 6.06938 16.8544 6.07126 16.8469 6.07501C16.7944 6.09563 16.7644 6.15 16.7907 6.21C16.815 6.26813 16.9313 6.43125 17.1638 6.43125C17.3963 6.43125 17.5125 6.26813 17.5369 6.21C17.5613 6.15188 17.5332 6.09751 17.4807 6.07501Z" fill="#C48E6A"/>
<path d="M20.4112 2.50126C20.2125 2.20126 19.77 1.80001 19.3725 1.77376C19.3087 1.39126 18.9 1.06688 18.5025 0.941258C17.43 0.601883 16.7325 0.982508 16.3575 1.18688C16.2787 1.23001 15.7762 1.50938 15.4237 1.30876C15.2025 1.18313 15.2062 0.843758 15.2062 0.843758C15.2062 0.843758 14.5143 1.10626 14.7506 1.84126C14.5143 1.85063 14.2012 1.95188 14.0362 2.28376C13.8393 2.68126 13.9087 3.01313 13.9668 3.17251C13.7625 3.34501 13.5056 3.71438 13.6818 4.19438C13.815 4.55438 14.3437 4.72126 14.3437 4.72126C14.3062 5.37001 14.4281 5.76938 14.4918 5.93251C14.5031 5.96063 14.5425 5.95876 14.55 5.92876C14.6306 5.60813 14.9043 4.48688 14.8762 4.29001C14.8762 4.29001 15.795 4.10813 16.6725 3.46126C16.8506 3.33001 17.0437 3.21751 17.25 3.13501C18.3525 2.69626 18.5831 3.44438 18.5831 3.44438C18.5831 3.44438 19.3462 3.29813 19.5768 4.35751C19.6631 4.75501 19.7231 5.39063 19.7718 5.83688C19.7756 5.86876 19.8187 5.87438 19.83 5.84626C19.9068 5.67001 20.0606 5.31938 20.0981 4.96126C20.1112 4.83563 20.4506 4.66876 20.595 4.12876C20.7937 3.41063 20.5537 2.71876 20.4112 2.50126Z" fill="#AB872F"/>
<path d="M15.8137 5.73185C16.0374 5.73185 16.2187 5.54381 16.2187 5.31185C16.2187 5.07989 16.0374 4.89185 15.8137 4.89185C15.59 4.89185 15.4087 5.07989 15.4087 5.31185C15.4087 5.54381 15.59 5.73185 15.8137 5.73185Z" fill="#5D4037"/>
<path d="M18.5136 5.73185C18.7373 5.73185 18.9186 5.54381 18.9186 5.31185C18.9186 5.07989 18.7373 4.89185 18.5136 4.89185C18.29 4.89185 18.1086 5.07989 18.1086 5.31185C18.1086 5.54381 18.29 5.73185 18.5136 5.73185Z" fill="#5D4037"/>
<path d="M20.0981 4.96497C20.1112 4.83934 20.4506 4.67247 20.595 4.13247C20.61 4.07434 20.6231 4.01622 20.6362 3.95809C20.7543 3.30184 20.5425 2.69997 20.4093 2.50122C20.2256 2.22372 19.8337 1.86184 19.4606 1.78684C19.4287 1.78309 19.3968 1.77934 19.3668 1.77747C19.3668 1.77747 19.3931 1.95184 19.3237 2.09059C19.2318 2.27059 19.0481 2.31372 19.0481 2.31372C20.0193 3.28497 19.95 4.09684 20.0981 4.96497Z" fill="url(#paint13_radial_201_2707)"/>
<path d="M17.9138 4.55997C17.9907 4.45872 18.1688 4.30872 18.5157 4.30872C18.8625 4.30872 19.0407 4.45684 19.1175 4.55997C19.1513 4.60497 19.1438 4.65747 19.1194 4.68934C19.0969 4.71934 19.0332 4.74559 18.9619 4.72122C18.8907 4.69684 18.75 4.62559 18.5175 4.62372C18.2832 4.62559 18.1444 4.69684 18.0732 4.72122C18.0019 4.74559 17.9363 4.71934 17.9157 4.68934C17.8999 4.67159 17.891 4.64875 17.8907 4.625C17.8903 4.60125 17.8985 4.57817 17.9138 4.55997ZM15.21 4.55997C15.2869 4.45872 15.465 4.30872 15.8119 4.30872C16.1588 4.30872 16.3369 4.45684 16.4138 4.55997C16.4475 4.60497 16.44 4.65747 16.4157 4.68934C16.3932 4.71934 16.3294 4.74559 16.2582 4.72122C16.1869 4.69684 16.0463 4.62559 15.8138 4.62372C15.5794 4.62559 15.4407 4.69684 15.3694 4.72122C15.2982 4.74559 15.2325 4.71934 15.2119 4.68934C15.197 4.67117 15.1887 4.64848 15.1884 4.62498C15.188 4.60148 15.1957 4.57856 15.21 4.55997Z" fill="#AB872F"/>
<path d="M9.66566 6.93934C9.56441 6.75559 9.69378 6.56809 9.91316 6.33559C10.2619 5.96809 10.6425 5.11497 10.29 4.24684C10.2919 4.24122 10.2207 4.09497 10.2225 4.09122L10.0763 4.08372C10.0294 4.07622 8.43378 4.07434 6.83628 4.07434C5.23878 4.07434 3.64316 4.07809 3.59628 4.08372C3.59628 4.08372 3.38066 4.24122 3.38253 4.24684C3.03003 5.11309 3.41066 5.96622 3.75941 6.33559C3.97878 6.56809 4.10816 6.75559 4.00691 6.93934C3.90941 7.11747 3.61691 7.14372 3.61691 7.14372C3.61691 7.14372 3.68441 7.32747 3.84753 7.42497C3.99753 7.51684 4.18128 7.53747 4.31066 7.54122C4.31066 7.54122 4.80941 8.23122 6.11253 8.23122H7.56378C8.86691 8.23122 9.36566 7.54122 9.36566 7.54122C9.49316 7.53747 9.67691 7.51684 9.82878 7.42497C9.99191 7.32559 10.0575 7.14372 10.0575 7.14372C10.0575 7.14372 9.76316 7.11747 9.66566 6.93934Z" fill="#543930"/>
<path d="M6.83435 8.23122V7.46622L9.14998 7.28247L9.35998 7.54122C9.35998 7.54122 8.86123 8.23122 7.5581 8.23122H6.83435Z" fill="url(#paint14_radial_201_2707)"/>
<path d="M6.83813 8.23122V7.46622L4.5225 7.28247L4.3125 7.54122C4.3125 7.54122 4.81125 8.23122 6.11438 8.23122H6.83813Z" fill="url(#paint15_radial_201_2707)"/>
<path d="M9.35626 7.20751C9.00938 6.68064 9.77813 6.48376 9.77813 6.48376C9.64501 6.65064 9.58313 6.79501 9.66188 6.93751C9.75938 7.11564 10.0519 7.14189 10.0519 7.14189C10.0519 7.14189 9.65626 7.49814 9.35626 7.20751Z" fill="url(#paint16_radial_201_2707)"/>
<path d="M10.29 4.24692C10.635 5.08692 10.2713 5.94942 9.93191 6.31505C9.88503 6.36567 9.68816 6.5588 9.64316 6.71442C9.64316 6.71442 8.87066 5.6363 8.63816 5.00255C8.59128 4.87505 8.55003 4.74192 8.54253 4.60692C8.53878 4.50567 8.55378 4.3838 8.61378 4.29755C8.68503 4.19067 10.2488 4.16067 10.2488 4.16067C10.2488 4.1588 10.29 4.24692 10.29 4.24692Z" fill="url(#paint17_radial_201_2707)"/>
<path d="M3.38253 4.24682C3.03753 5.08682 3.40128 5.94932 3.74065 6.31494C3.78753 6.36557 3.9844 6.55869 4.0294 6.71432C4.0294 6.71432 4.8019 5.63619 5.0344 5.00244C5.08128 4.87494 5.1244 4.74182 5.12815 4.60682C5.1319 4.50557 5.1169 4.38369 5.0569 4.29744C4.98565 4.19057 4.90128 4.21869 4.77753 4.21869C4.54315 4.21869 3.52315 4.15869 3.44253 4.15869C3.44628 4.15869 3.38253 4.24682 3.38253 4.24682Z" fill="url(#paint18_radial_201_2707)"/>
<path d="M4.31623 7.20751C4.66311 6.68064 3.89436 6.48376 3.89436 6.48376C4.02748 6.65064 4.08936 6.79501 4.01061 6.93751C3.91311 7.11564 3.62061 7.14189 3.62061 7.14189C3.62061 7.14189 4.01811 7.49814 4.31623 7.20751Z" fill="url(#paint19_radial_201_2707)"/>
<path d="M6.83815 7.63497H7.77565V8.62872C7.77565 9.07872 7.39502 9.44247 6.92252 9.44247H6.7519C6.28127 9.44247 5.89877 9.07872 5.89877 8.62872V7.63497H6.83815ZM9.08252 4.56372H4.5919C4.10815 4.56372 3.71252 4.9856 3.71252 5.50122C3.71252 6.01685 4.10815 6.43872 4.5919 6.43872H9.08252C9.56627 6.43872 9.9619 6.01685 9.9619 5.50122C9.9619 4.9856 9.56627 4.56372 9.08252 4.56372Z" fill="#99674F"/>
<path d="M16.5919 1.06496C16.5037 1.10808 16.425 1.15121 16.3575 1.18683C16.2787 1.22996 15.7762 1.50933 15.4237 1.30871C15.2062 1.18683 15.2062 0.856831 15.2062 0.845581C15.1069 0.973081 14.805 1.88246 15.6862 1.94246C16.0669 1.96871 16.3012 1.63683 16.44 1.35558C16.4906 1.25433 16.5694 1.10621 16.5919 1.06496Z" fill="url(#paint20_radial_201_2707)"/>
<path d="M15.2044 0.845625C15.2026 0.845625 15.2026 0.8475 15.1988 0.8475C15.1238 0.879375 14.5313 1.15312 14.7526 1.84125L15.3826 1.9425C14.8238 1.37625 15.2063 0.84375 15.2063 0.84375L15.2044 0.845625Z" fill="url(#paint21_radial_201_2707)"/>
<path d="M15.1425 1.90311L14.7525 1.83936C14.7375 1.83936 14.685 1.84311 14.6569 1.84873C14.4375 1.87873 14.1787 1.99311 14.0381 2.28373C13.8881 2.59686 13.8919 2.86498 13.9331 3.04498C13.9444 3.10498 13.9687 3.17248 13.9687 3.17248C13.9687 3.17248 14.1619 2.98873 14.6212 2.97748L15.1425 1.90311Z" fill="url(#paint22_radial_201_2707)"/>
<path d="M13.95 3.18746C13.7587 3.35809 13.5 3.73871 13.6894 4.20934C13.8337 4.56559 14.3456 4.71934 14.3456 4.71934C14.3456 4.72121 14.4487 4.75121 14.5012 4.75121L14.6212 2.97559C14.3756 2.97559 14.1394 3.04871 13.9875 3.15559C13.9894 3.15934 13.95 3.18559 13.95 3.18746Z" fill="url(#paint23_radial_201_2707)"/>
<path d="M6.83628 1.24878C5.40753 1.24878 4.08191 2.7769 4.08191 4.97815C4.08191 7.16628 5.44691 8.24815 6.83628 8.24815C8.22566 8.24815 9.59066 7.16628 9.59066 4.97815C9.59066 2.7769 8.26503 1.24878 6.83628 1.24878Z" fill="#BA8D68"/>
<path d="M7.52818 6.74812C7.26568 6.90374 6.4088 6.90374 6.1463 6.74812C5.9963 6.65812 5.84255 6.79499 5.90443 6.93187C5.9663 7.06687 6.43318 7.37812 6.83818 7.37812C7.24318 7.37812 7.70443 7.06687 7.7663 6.93187C7.83005 6.79499 7.67818 6.65812 7.52818 6.74812Z" fill="#5D4037"/>
<path d="M7.15316 6.07501C7.14468 6.07164 7.13589 6.06913 7.12691 6.0675H6.54566C6.53628 6.06938 6.52691 6.07126 6.51941 6.07501C6.46691 6.09563 6.43691 6.15 6.46316 6.21C6.48941 6.27 6.60378 6.43125 6.83628 6.43125C7.06878 6.43125 7.18503 6.26813 7.20941 6.21C7.23378 6.15188 7.20566 6.09751 7.15316 6.07501Z" fill="#99674F"/>
<path d="M18.3919 0.90934C18.9862 1.07059 19.275 1.37247 19.3706 1.77559C19.3987 1.89372 19.4325 2.99809 17.325 1.74372C16.5412 1.27684 16.755 0.98434 16.8469 0.952465C17.205 0.821215 17.7262 0.72934 18.3919 0.90934Z" fill="url(#paint24_radial_201_2707)"/>
<path d="M10.0838 2.50121C9.88504 2.20121 9.44254 1.79996 9.04504 1.77371C8.98129 1.39121 8.57254 1.06871 8.17504 0.943089C7.10254 0.603714 6.40504 0.984339 6.03004 1.18871C5.95129 1.23184 5.44879 1.51121 5.09629 1.31059C4.87504 1.18496 4.87879 0.845589 4.87879 0.845589C4.87879 0.845589 4.18691 1.10809 4.42504 1.84309C4.18879 1.85246 3.87566 1.95371 3.71066 2.28559C3.51379 2.68309 3.58504 3.01496 3.64129 3.17434C3.43691 3.34684 3.18004 3.71621 3.35629 4.19621C3.48941 4.55621 4.01816 4.72309 4.01816 4.72309C3.98066 5.37184 4.10254 5.77121 4.16629 5.93434C4.17754 5.96246 4.21691 5.96059 4.22441 5.93059C4.30504 5.60996 4.57879 4.48871 4.55066 4.29184C4.55066 4.29184 5.47129 4.10996 6.34691 3.46309C6.52504 3.33184 6.71816 3.21934 6.92441 3.13684C8.02691 2.69809 8.25566 3.44621 8.25566 3.44621C8.25566 3.44621 9.01879 3.29996 9.24941 4.35934C9.33566 4.75684 9.39566 5.39246 9.44441 5.83871C9.44816 5.87059 9.49129 5.87621 9.50254 5.84809C9.57941 5.67184 9.73316 5.32121 9.77066 4.96309C9.78379 4.83746 10.1232 4.67059 10.2675 4.13059C10.4663 3.41059 10.2282 2.71871 10.0838 2.50121Z" fill="#543930"/>
<path d="M5.4863 5.73185C5.70997 5.73185 5.8913 5.54381 5.8913 5.31185C5.8913 5.07989 5.70997 4.89185 5.4863 4.89185C5.26262 4.89185 5.0813 5.07989 5.0813 5.31185C5.0813 5.54381 5.26262 5.73185 5.4863 5.73185Z" fill="#49362E"/>
<path d="M8.18625 5.73185C8.40993 5.73185 8.59125 5.54381 8.59125 5.31185C8.59125 5.07989 8.40993 4.89185 8.18625 4.89185C7.96257 4.89185 7.78125 5.07989 7.78125 5.31185C7.78125 5.54381 7.96257 5.73185 8.18625 5.73185Z" fill="#49362E"/>
<path d="M9.77253 4.96497C9.78566 4.83934 10.125 4.67247 10.2694 4.13247C10.2844 4.07434 10.2975 4.01622 10.3107 3.95809C10.4288 3.30184 10.2169 2.69997 10.0838 2.50122C9.90003 2.22372 9.50816 1.86184 9.13503 1.78684C9.10316 1.78309 9.07128 1.77934 9.04128 1.77747C9.04128 1.77747 9.06753 1.95184 8.99816 2.09059C8.90628 2.27059 8.72253 2.31372 8.72253 2.31372C9.69191 3.28497 9.62253 4.09684 9.77253 4.96497Z" fill="url(#paint25_radial_201_2707)"/>
<path d="M7.58621 4.55997C7.66309 4.45872 7.84121 4.30872 8.18809 4.30872C8.53496 4.30872 8.71309 4.45684 8.78996 4.55997C8.82371 4.60497 8.81621 4.65747 8.79184 4.68934C8.76934 4.71934 8.70559 4.74559 8.63434 4.72122C8.56309 4.69684 8.42246 4.62559 8.18996 4.62372C7.95559 4.62559 7.81684 4.69684 7.74559 4.72122C7.67434 4.74559 7.60871 4.71934 7.58809 4.68934C7.57273 4.67138 7.56413 4.64862 7.56379 4.62499C7.56345 4.60136 7.57138 4.57836 7.58621 4.55997ZM4.88434 4.55997C4.96121 4.45872 5.13934 4.30872 5.48621 4.30872C5.83121 4.30872 6.01121 4.45684 6.08809 4.55997C6.12184 4.60497 6.11434 4.65747 6.08996 4.68934C6.06746 4.71934 6.00371 4.74559 5.93246 4.72122C5.86121 4.69684 5.72059 4.62559 5.48809 4.62372C5.25371 4.62559 5.11496 4.69684 5.04371 4.72122C4.97246 4.74559 4.90684 4.71934 4.88621 4.68934C4.87043 4.67159 4.86156 4.64875 4.86122 4.625C4.86087 4.60125 4.86908 4.57817 4.88434 4.55997Z" fill="#613E31"/>
<path d="M6.26434 1.06496C6.17621 1.10808 6.09746 1.15121 6.02996 1.18683C5.95121 1.22996 5.44871 1.50933 5.09621 1.30871C4.87871 1.18496 4.87871 0.856831 4.87871 0.845581C4.77934 0.973081 4.47746 1.88246 5.35871 1.94246C5.73934 1.96871 5.97371 1.63683 6.11246 1.35558C6.16496 1.25433 6.24371 1.10621 6.26434 1.06496Z" fill="url(#paint26_radial_201_2707)"/>
<path d="M4.87692 0.845625C4.87504 0.845625 4.87504 0.8475 4.87129 0.8475C4.79629 0.879375 4.20379 1.15312 4.42504 1.84125L5.05504 1.9425C4.49629 1.37625 4.87879 0.84375 4.87879 0.84375C4.87879 0.84375 4.87879 0.845625 4.87692 0.845625Z" fill="url(#paint27_radial_201_2707)"/>
<path d="M4.81498 1.90318L4.42498 1.84131C4.40998 1.84131 4.35748 1.84506 4.32936 1.85068C4.10998 1.88068 3.85123 1.99506 3.71061 2.28568C3.56061 2.59881 3.56436 2.86693 3.60561 3.04693C3.61686 3.10693 3.64123 3.17443 3.64123 3.17443C3.64123 3.17443 3.83436 2.99068 4.29373 2.97943L4.81498 1.90318Z" fill="url(#paint28_radial_201_2707)"/>
<path d="M3.62443 3.18746C3.43318 3.35809 3.17443 3.73871 3.36381 4.20934C3.50818 4.56559 4.02006 4.71934 4.02006 4.71934C4.02006 4.72121 4.12318 4.75121 4.17568 4.75121L4.29568 2.97559C4.05006 2.97559 3.81381 3.04871 3.66193 3.15559C3.66193 3.15934 3.62256 3.18559 3.62443 3.18746Z" fill="url(#paint29_radial_201_2707)"/>
<path d="M8.06435 0.90934C8.65872 1.07059 8.94747 1.37247 9.0431 1.77559C9.07122 1.89372 9.10497 2.99809 6.99747 1.74372C6.21372 1.27684 6.42747 0.98434 6.51935 0.952465C6.87935 0.821215 7.4006 0.72934 8.06435 0.90934Z" fill="url(#paint30_radial_201_2707)"/>
</g>
<defs>
<linearGradient id="paint0_linear_201_2707" x1="14.4328" y1="10.3867" x2="11.9956" y2="14.9563" gradientUnits="userSpaceOnUse">
<stop stop-color="#CCA47A"/>
<stop offset="0.405" stop-color="#E0BB95"/>
</linearGradient>
<linearGradient id="paint1_linear_201_2707" x1="12.5372" y1="14.452" x2="13.1793" y2="13.4025" gradientUnits="userSpaceOnUse">
<stop stop-color="#CCA47A"/>
<stop offset="1" stop-color="#E0BB95" stop-opacity="0"/>
</linearGradient>
<linearGradient id="paint2_linear_201_2707" x1="19.449" y1="10.0297" x2="23.0976" y2="16.2362" gradientUnits="userSpaceOnUse">
<stop stop-color="#CCA47A"/>
<stop offset="0.401" stop-color="#E0BB95"/>
</linearGradient>
<linearGradient id="paint3_linear_201_2707" x1="4.56827" y1="10.0298" x2="0.919707" y2="16.2364" gradientUnits="userSpaceOnUse">
<stop stop-color="#A47B62"/>
<stop offset="0.401" stop-color="#BA8D68"/>
</linearGradient>
<linearGradient id="paint4_linear_201_2707" x1="17.1649" y1="8.21514" x2="17.1649" y2="14.625" gradientUnits="userSpaceOnUse">
<stop offset="0.366" stop-color="#F78C1F"/>
<stop offset="0.672" stop-color="#F47F12"/>
<stop offset="1" stop-color="#EF6C00"/>
</linearGradient>
<linearGradient id="paint5_linear_201_2707" x1="9.58054" y1="9.9148" x2="12.697" y2="16.4628" gradientUnits="userSpaceOnUse">
<stop stop-color="#A47B62"/>
<stop offset="0.401" stop-color="#BA8D68"/>
</linearGradient>
<linearGradient id="paint6_linear_201_2707" x1="2.65158" y1="11.4201" x2="11.0231" y2="11.4201" gradientUnits="userSpaceOnUse">
<stop offset="0.172" stop-color="#4FC3F7"/>
<stop offset="0.369" stop-color="#42BFF6"/>
<stop offset="0.732" stop-color="#20B3F5"/>
<stop offset="0.994" stop-color="#03A9F4"/>
</linearGradient>
<radialGradient id="paint7_radial_201_2707" cx="0" cy="0" r="1" gradientUnits="userSpaceOnUse" gradientTransform="translate(18.3444 7.12552) scale(1.89844 0.932513)">
<stop offset="0.728" stop-color="#BFA055" stop-opacity="0"/>
<stop offset="1" stop-color="#BFA055"/>
</radialGradient>
<radialGradient id="paint8_radial_201_2707" cx="0" cy="0" r="1" gradientUnits="userSpaceOnUse" gradientTransform="translate(15.9821 7.12552) rotate(180) scale(1.89844 0.932513)">
<stop offset="0.728" stop-color="#BFA055" stop-opacity="0"/>
<stop offset="1" stop-color="#BFA055"/>
</radialGradient>
<radialGradient id="paint9_radial_201_2707" cx="0" cy="0" r="1" gradientUnits="userSpaceOnUse" gradientTransform="translate(20.2149 6.84282) rotate(154.924) scale(0.560971 0.416161)">
<stop offset="0.663" stop-color="#BFA055"/>
<stop offset="1" stop-color="#BFA055" stop-opacity="0"/>
</radialGradient>
<radialGradient id="paint10_radial_201_2707" cx="0" cy="0" r="1" gradientUnits="userSpaceOnUse" gradientTransform="translate(18.7606 5.25652) rotate(-94.2783) scale(2.46409 2.05366)">
<stop offset="0.725" stop-color="#BFA055" stop-opacity="0"/>
<stop offset="1" stop-color="#BFA055"/>
</radialGradient>
<radialGradient id="paint11_radial_201_2707" cx="0" cy="0" r="1" gradientUnits="userSpaceOnUse" gradientTransform="translate(15.5658 5.25634) rotate(-85.7217) scale(2.46409 2.05366)">
<stop offset="0.725" stop-color="#BFA055" stop-opacity="0"/>
<stop offset="1" stop-color="#BFA055"/>
</radialGradient>
<radialGradient id="paint12_radial_201_2707" cx="0" cy="0" r="1" gradientUnits="userSpaceOnUse" gradientTransform="translate(14.1118 6.84284) rotate(25.0761) scale(0.560971 0.416161)">
<stop offset="0.663" stop-color="#BFA055"/>
<stop offset="1" stop-color="#BFA055" stop-opacity="0"/>
</radialGradient>
<radialGradient id="paint13_radial_201_2707" cx="0" cy="0" r="1" gradientUnits="userSpaceOnUse" gradientTransform="translate(18.6229 3.956) rotate(72.0851) scale(2.88839 2.14312)">
<stop offset="0.699" stop-color="#BFA055" stop-opacity="0"/>
<stop offset="1" stop-color="#BFA055"/>
</radialGradient>
<radialGradient id="paint14_radial_201_2707" cx="0" cy="0" r="1" gradientUnits="userSpaceOnUse" gradientTransform="translate(8.01804 7.12552) scale(1.89844 0.932513)">
<stop offset="0.728" stop-color="#6D4C41" stop-opacity="0"/>
<stop offset="1" stop-color="#6D4C41"/>
</radialGradient>
<radialGradient id="paint15_radial_201_2707" cx="0" cy="0" r="1" gradientUnits="userSpaceOnUse" gradientTransform="translate(5.65575 7.12552) rotate(180) scale(1.89844 0.932513)">
<stop offset="0.728" stop-color="#6D4C41" stop-opacity="0"/>
<stop offset="1" stop-color="#6D4C41"/>
</radialGradient>
<radialGradient id="paint16_radial_201_2707" cx="0" cy="0" r="1" gradientUnits="userSpaceOnUse" gradientTransform="translate(9.88894 6.84251) rotate(154.924) scale(0.560971 0.416161)">
<stop offset="0.663" stop-color="#6D4C41"/>
<stop offset="1" stop-color="#6D4C41" stop-opacity="0"/>
</radialGradient>
<radialGradient id="paint17_radial_201_2707" cx="0" cy="0" r="1" gradientUnits="userSpaceOnUse" gradientTransform="translate(8.43453 5.25656) rotate(-94.2783) scale(2.46409 2.05366)">
<stop offset="0.725" stop-color="#6D4C41" stop-opacity="0"/>
<stop offset="1" stop-color="#6D4C41"/>
</radialGradient>
<radialGradient id="paint18_radial_201_2707" cx="0" cy="0" r="1" gradientUnits="userSpaceOnUse" gradientTransform="translate(5.23972 5.25611) rotate(-85.7217) scale(2.46409 2.05366)">
<stop offset="0.725" stop-color="#6D4C41" stop-opacity="0"/>
<stop offset="1" stop-color="#6D4C41"/>
</radialGradient>
<radialGradient id="paint19_radial_201_2707" cx="0" cy="0" r="1" gradientUnits="userSpaceOnUse" gradientTransform="translate(3.78584 6.84296) rotate(25.0761) scale(0.560972 0.416161)">
<stop offset="0.663" stop-color="#6D4C41"/>
<stop offset="1" stop-color="#6D4C41" stop-opacity="0"/>
</radialGradient>
<radialGradient id="paint20_radial_201_2707" cx="0" cy="0" r="1" gradientUnits="userSpaceOnUse" gradientTransform="translate(15.8072 0.807088) rotate(28.2026) scale(0.757328 0.89797)">
<stop offset="0.58" stop-color="#BFA055"/>
<stop offset="1" stop-color="#BFA055" stop-opacity="0"/>
</radialGradient>
<radialGradient id="paint21_radial_201_2707" cx="0" cy="0" r="1" gradientUnits="userSpaceOnUse" gradientTransform="translate(15.5029 1.4977) scale(0.695063 0.85027)">
<stop offset="0.702" stop-color="#BFA055" stop-opacity="0"/>
<stop offset="1" stop-color="#BFA055"/>
</radialGradient>
<radialGradient id="paint22_radial_201_2707" cx="0" cy="0" r="1" gradientUnits="userSpaceOnUse" gradientTransform="translate(15.4066 2.72513) rotate(-164.942) scale(1.30374 1.22006)">
<stop offset="0.66" stop-color="#BFA055" stop-opacity="0"/>
<stop offset="1" stop-color="#BFA055"/>
</radialGradient>
<radialGradient id="paint23_radial_201_2707" cx="0" cy="0" r="1" gradientUnits="userSpaceOnUse" gradientTransform="translate(15.0985 3.98356) rotate(7.83354) scale(1.36879 1.92338)">
<stop offset="0.598" stop-color="#BFA055" stop-opacity="0"/>
<stop offset="1" stop-color="#BFA055"/>
</radialGradient>
<radialGradient id="paint24_radial_201_2707" cx="0" cy="0" r="1" gradientUnits="userSpaceOnUse" gradientTransform="translate(17.4998 2.18207) rotate(-157.19) scale(2.3686 1.33116)">
<stop offset="0.699" stop-color="#BFA055" stop-opacity="0"/>
<stop offset="1" stop-color="#BFA055"/>
</radialGradient>
<radialGradient id="paint25_radial_201_2707" cx="0" cy="0" r="1" gradientUnits="userSpaceOnUse" gradientTransform="translate(8.29655 3.95603) rotate(72.0851) scale(2.88839 2.14312)">
<stop offset="0.699" stop-color="#6D4C41" stop-opacity="0"/>
<stop offset="1" stop-color="#6D4C41"/>
</radialGradient>
<radialGradient id="paint26_radial_201_2707" cx="0" cy="0" r="1" gradientUnits="userSpaceOnUse" gradientTransform="translate(5.48067 0.806906) rotate(28.2026) scale(0.757328 0.89797)">
<stop offset="0.58" stop-color="#6D4C41"/>
<stop offset="1" stop-color="#6D4C41" stop-opacity="0"/>
</radialGradient>
<radialGradient id="paint27_radial_201_2707" cx="0" cy="0" r="1" gradientUnits="userSpaceOnUse" gradientTransform="translate(5.17654 1.4977) scale(0.695062 0.85027)">
<stop offset="0.702" stop-color="#6D4C41" stop-opacity="0"/>
<stop offset="1" stop-color="#6D4C41"/>
</radialGradient>
<radialGradient id="paint28_radial_201_2707" cx="0" cy="0" r="1" gradientUnits="userSpaceOnUse" gradientTransform="translate(5.08079 2.72488) rotate(-164.942) scale(1.30373 1.22006)">
<stop offset="0.66" stop-color="#6D4C41" stop-opacity="0"/>
<stop offset="1" stop-color="#6D4C41"/>
</radialGradient>
<radialGradient id="paint29_radial_201_2707" cx="0" cy="0" r="1" gradientUnits="userSpaceOnUse" gradientTransform="translate(4.77188 3.98342) rotate(7.83355) scale(1.36879 1.92338)">
<stop offset="0.598" stop-color="#6D4C41" stop-opacity="0"/>
<stop offset="1" stop-color="#6D4C41"/>
</radialGradient>
<radialGradient id="paint30_radial_201_2707" cx="0" cy="0" r="1" gradientUnits="userSpaceOnUse" gradientTransform="translate(7.17377 2.18139) rotate(-157.19) scale(2.3686 1.33116)">
<stop offset="0.699" stop-color="#6D4C41" stop-opacity="0"/>
<stop offset="1" stop-color="#6D4C41"/>
</radialGradient>
<clipPath id="clip0_201_2707">
<rect width="24" height="24" fill="white"/>
</clipPath>
</defs>
</svg>
