<svg width="182" height="64" viewBox="0 0 182 64" fill="none" xmlns="http://www.w3.org/2000/svg">
<rect width="182" height="64" rx="30" fill="#FEF0F3"/>
<path d="M74.6917 41V24.2H78.6037L85.5637 35.624H83.4997L90.2677 24.2H94.1797L94.2277 41H89.8597L89.8117 30.848H90.5557L85.4917 39.344H83.3797L78.1717 30.848H79.0837V41H74.6917ZM96.5742 41L103.99 24.2H108.67L116.11 41H111.166L105.358 26.528H107.23L101.422 41H96.5742ZM100.63 37.736L101.854 34.232H110.062L111.286 37.736H100.63ZM121.19 41V27.968H116.03V24.2H131.078V27.968H125.942V41H121.19ZM141.99 41.336C140.662 41.336 139.43 41.128 138.294 40.712C137.174 40.28 136.198 39.672 135.366 38.888C134.55 38.104 133.91 37.184 133.446 36.128C132.982 35.056 132.75 33.88 132.75 32.6C132.75 31.32 132.982 30.152 133.446 29.096C133.91 28.024 134.55 27.096 135.366 26.312C136.198 25.528 137.174 24.928 138.294 24.512C139.43 24.08 140.662 23.864 141.99 23.864C143.542 23.864 144.926 24.136 146.142 24.68C147.374 25.224 148.398 26.008 149.214 27.032L146.19 29.768C145.646 29.128 145.046 28.64 144.39 28.304C143.75 27.968 143.03 27.8 142.23 27.8C141.542 27.8 140.91 27.912 140.334 28.136C139.758 28.36 139.262 28.688 138.846 29.12C138.446 29.536 138.126 30.04 137.886 30.632C137.662 31.224 137.55 31.88 137.55 32.6C137.55 33.32 137.662 33.976 137.886 34.568C138.126 35.16 138.446 35.672 138.846 36.104C139.262 36.52 139.758 36.84 140.334 37.064C140.91 37.288 141.542 37.4 142.23 37.4C143.03 37.4 143.75 37.232 144.39 36.896C145.046 36.56 145.646 36.072 146.19 35.432L149.214 38.168C148.398 39.176 147.374 39.96 146.142 40.52C144.926 41.064 143.542 41.336 141.99 41.336ZM163.564 24.2H168.316V41H163.564V24.2ZM157.084 41H152.332V24.2H157.084V41ZM163.9 34.448H156.748V30.512H163.9V34.448Z" fill="#FD0E46"/>
<circle cx="40" cy="30" r="26" fill="#FDE0E7"/>
<path d="M28.9208 36.112C28.1274 36.112 27.4414 35.9953 26.8628 35.762C26.2841 35.5287 25.8361 35.1973 25.5188 34.768C25.2014 34.3293 25.0428 33.816 25.0428 33.228C25.0428 32.6493 25.1921 32.1593 25.4908 31.758C25.7988 31.3473 26.2421 31.0393 26.8208 30.834C27.3994 30.6193 28.0994 30.512 28.9208 30.512C29.7421 30.512 30.4421 30.6193 31.0208 30.834C31.6088 31.0393 32.0568 31.3473 32.3648 31.758C32.6728 32.1687 32.8268 32.6587 32.8268 33.228C32.8268 33.816 32.6681 34.3293 32.3508 34.768C32.0334 35.1973 31.5808 35.5287 30.9928 35.762C30.4048 35.9953 29.7141 36.112 28.9208 36.112ZM28.9208 34.978C29.7048 34.978 30.3161 34.8193 30.7548 34.502C31.2028 34.1753 31.4268 33.7367 31.4268 33.186C31.4268 32.6447 31.2028 32.22 30.7548 31.912C30.3161 31.5947 29.7048 31.436 28.9208 31.436C28.1461 31.436 27.5394 31.5947 27.1008 31.912C26.6621 32.22 26.4428 32.6447 26.4428 33.186C26.4428 33.7367 26.6621 34.1753 27.1008 34.502C27.5394 34.8193 28.1461 34.978 28.9208 34.978ZM28.9208 31.268C28.1741 31.268 27.5394 31.17 27.0168 30.974C26.4941 30.7687 26.0928 30.4793 25.8128 30.106C25.5328 29.7233 25.3928 29.2707 25.3928 28.748C25.3928 28.1973 25.5374 27.726 25.8268 27.334C26.1254 26.9327 26.5408 26.6247 27.0728 26.41C27.6048 26.1953 28.2208 26.088 28.9208 26.088C29.6301 26.088 30.2508 26.1953 30.7828 26.41C31.3148 26.6247 31.7301 26.9327 32.0288 27.334C32.3274 27.726 32.4768 28.1973 32.4768 28.748C32.4768 29.2707 32.3368 29.7233 32.0568 30.106C31.7768 30.4793 31.3708 30.7687 30.8388 30.974C30.3068 31.17 29.6674 31.268 28.9208 31.268ZM28.9208 30.372C29.6021 30.372 30.1341 30.232 30.5168 29.952C30.9088 29.672 31.1048 29.2893 31.1048 28.804C31.1048 28.3093 30.9041 27.922 30.5028 27.642C30.1014 27.362 29.5741 27.222 28.9208 27.222C28.2674 27.222 27.7448 27.362 27.3528 27.642C26.9701 27.922 26.7788 28.3093 26.7788 28.804C26.7788 29.2893 26.9654 29.672 27.3388 29.952C27.7214 30.232 28.2488 30.372 28.9208 30.372ZM39.1125 36.112C38.3472 36.112 37.6612 35.916 37.0545 35.524C36.4572 35.132 35.9812 34.5627 35.6265 33.816C35.2812 33.0693 35.1085 32.164 35.1085 31.1C35.1085 30.036 35.2812 29.1307 35.6265 28.384C35.9812 27.6373 36.4572 27.068 37.0545 26.676C37.6612 26.284 38.3472 26.088 39.1125 26.088C39.8685 26.088 40.5499 26.284 41.1565 26.676C41.7632 27.068 42.2392 27.6373 42.5845 28.384C42.9299 29.1307 43.1025 30.036 43.1025 31.1C43.1025 32.164 42.9299 33.0693 42.5845 33.816C42.2392 34.5627 41.7632 35.132 41.1565 35.524C40.5499 35.916 39.8685 36.112 39.1125 36.112ZM39.1125 34.866C39.6259 34.866 40.0739 34.726 40.4565 34.446C40.8485 34.166 41.1519 33.746 41.3665 33.186C41.5905 32.626 41.7025 31.9307 41.7025 31.1C41.7025 30.2693 41.5905 29.574 41.3665 29.014C41.1519 28.454 40.8485 28.034 40.4565 27.754C40.0739 27.474 39.6259 27.334 39.1125 27.334C38.5992 27.334 38.1465 27.474 37.7545 27.754C37.3625 28.034 37.0545 28.454 36.8305 29.014C36.6159 29.574 36.5085 30.2693 36.5085 31.1C36.5085 31.9307 36.6159 32.626 36.8305 33.186C37.0545 33.746 37.3625 34.166 37.7545 34.446C38.1465 34.726 38.5992 34.866 39.1125 34.866ZM46.7904 36L53.4824 26.2H54.5604L47.8684 36H46.7904ZM47.5744 31.464C47.1264 31.464 46.7297 31.352 46.3844 31.128C46.0391 30.904 45.7684 30.5913 45.5724 30.19C45.3857 29.7887 45.2924 29.322 45.2924 28.79C45.2924 28.258 45.3857 27.7913 45.5724 27.39C45.7684 26.9887 46.0391 26.676 46.3844 26.452C46.7297 26.228 47.1264 26.116 47.5744 26.116C48.0317 26.116 48.4284 26.228 48.7644 26.452C49.1097 26.676 49.3757 26.9887 49.5624 27.39C49.7491 27.7913 49.8424 28.258 49.8424 28.79C49.8424 29.322 49.7491 29.7887 49.5624 30.19C49.3757 30.5913 49.1097 30.904 48.7644 31.128C48.4284 31.352 48.0317 31.464 47.5744 31.464ZM47.5744 30.666C48.0037 30.666 48.3397 30.5027 48.5824 30.176C48.8251 29.84 48.9464 29.378 48.9464 28.79C48.9464 28.202 48.8251 27.7447 48.5824 27.418C48.3397 27.082 48.0037 26.914 47.5744 26.914C47.1544 26.914 46.8184 27.082 46.5664 27.418C46.3237 27.7447 46.2024 28.202 46.2024 28.79C46.2024 29.3687 46.3237 29.826 46.5664 30.162C46.8184 30.498 47.1544 30.666 47.5744 30.666ZM53.7764 36.084C53.3284 36.084 52.9317 35.972 52.5864 35.748C52.2411 35.524 51.9751 35.2113 51.7884 34.81C51.6017 34.4087 51.5084 33.942 51.5084 33.41C51.5084 32.878 51.6017 32.4113 51.7884 32.01C51.9751 31.6087 52.2411 31.296 52.5864 31.072C52.9317 30.848 53.3284 30.736 53.7764 30.736C54.2337 30.736 54.6304 30.848 54.9664 31.072C55.3117 31.296 55.5777 31.6087 55.7644 32.01C55.9604 32.4113 56.0584 32.878 56.0584 33.41C56.0584 33.942 55.9604 34.4087 55.7644 34.81C55.5777 35.2113 55.3117 35.524 54.9664 35.748C54.6304 35.972 54.2337 36.084 53.7764 36.084ZM53.7764 35.286C54.1964 35.286 54.5277 35.1227 54.7704 34.796C55.0224 34.46 55.1484 33.998 55.1484 33.41C55.1484 32.8313 55.0224 32.374 54.7704 32.038C54.5277 31.702 54.1964 31.534 53.7764 31.534C53.3564 31.534 53.0204 31.702 52.7684 32.038C52.5257 32.3647 52.4044 32.822 52.4044 33.41C52.4044 33.998 52.5257 34.46 52.7684 34.796C53.0204 35.1227 53.3564 35.286 53.7764 35.286Z" fill="#FD0E46"/>
<mask id="path-5-inside-1_237_3319" fill="white">
<path d="M64.0202 31.5C65.1136 31.5 66.0074 32.3876 65.9288 33.4781C65.5868 38.2207 64.0196 42.8059 61.3654 46.7782C58.3437 51.3005 54.0488 54.8253 49.0238 56.9067C43.9988 58.9881 38.4695 59.5327 33.135 58.4716C27.8005 57.4105 22.9005 54.7914 19.0546 50.9454C15.2086 47.0995 12.5895 42.1995 11.5284 36.865C10.4673 31.5305 11.0119 26.0012 13.0933 20.9762C15.1747 15.9512 18.6995 11.6563 23.2218 8.63459C27.1941 5.9804 31.7793 4.41321 36.5219 4.07122C37.6124 3.99258 38.5 4.88638 38.5 5.97978C38.5 7.07319 37.612 7.95092 36.5225 8.04276C32.5639 8.37646 28.7425 9.70789 25.4216 11.9268C21.5504 14.5135 18.5332 18.19 16.7515 22.4915C14.9698 26.7929 14.5036 31.5261 15.4119 36.0925C16.3202 40.6589 18.5622 44.8534 21.8544 48.1456C25.1466 51.4378 29.3411 53.6798 33.9075 54.5881C38.4739 55.4964 43.2071 55.0302 47.5085 53.2485C51.81 51.4668 55.4865 48.4496 58.0732 44.5784C60.2921 41.2575 61.6235 37.4361 61.9572 33.4775C62.0491 32.388 62.9268 31.5 64.0202 31.5Z"/>
</mask>
<path d="M64.0202 31.5C65.1136 31.5 66.0074 32.3876 65.9288 33.4781C65.5868 38.2207 64.0196 42.8059 61.3654 46.7782C58.3437 51.3005 54.0488 54.8253 49.0238 56.9067C43.9988 58.9881 38.4695 59.5327 33.135 58.4716C27.8005 57.4105 22.9005 54.7914 19.0546 50.9454C15.2086 47.0995 12.5895 42.1995 11.5284 36.865C10.4673 31.5305 11.0119 26.0012 13.0933 20.9762C15.1747 15.9512 18.6995 11.6563 23.2218 8.63459C27.1941 5.9804 31.7793 4.41321 36.5219 4.07122C37.6124 3.99258 38.5 4.88638 38.5 5.97978C38.5 7.07319 37.612 7.95092 36.5225 8.04276C32.5639 8.37646 28.7425 9.70789 25.4216 11.9268C21.5504 14.5135 18.5332 18.19 16.7515 22.4915C14.9698 26.7929 14.5036 31.5261 15.4119 36.0925C16.3202 40.6589 18.5622 44.8534 21.8544 48.1456C25.1466 51.4378 29.3411 53.6798 33.9075 54.5881C38.4739 55.4964 43.2071 55.0302 47.5085 53.2485C51.81 51.4668 55.4865 48.4496 58.0732 44.5784C60.2921 41.2575 61.6235 37.4361 61.9572 33.4775C62.0491 32.388 62.9268 31.5 64.0202 31.5Z" stroke="#FD0E46" stroke-width="10" stroke-linecap="round" stroke-linejoin="round" stroke-dasharray="10 20 30 40" mask="url(#path-5-inside-1_237_3319)"/>
</svg>
