<svg width="31" height="31" viewBox="0 0 31 31" fill="none" xmlns="http://www.w3.org/2000/svg">
<path d="M15.5002 0.265625C12.8333 0.26534 10.213 0.965144 7.90143 2.29507C5.58981 3.625 3.66781 5.53845 2.3276 7.84412C0.98738 10.1498 0.275904 12.7669 0.264304 15.4337C0.252704 18.1006 0.941385 20.7238 2.26149 23.041L0.8904 27.8551C0.802515 28.1677 0.799473 28.498 0.881587 28.8122C0.963701 29.1263 1.12801 29.413 1.35761 29.6426C1.58722 29.8722 1.87383 30.0365 2.18799 30.1186C2.50214 30.2007 2.8325 30.1976 3.14509 30.1098L7.95915 28.7387C9.98635 29.893 12.2516 30.5663 14.5801 30.7067C16.9087 30.8472 19.2384 30.451 21.3897 29.5487C23.5409 28.6464 25.4562 27.2622 26.9879 25.5027C28.5196 23.7431 29.6267 21.6554 30.2239 19.4003C30.8212 17.1453 30.8926 14.7832 30.4326 12.4962C29.9726 10.2092 28.9936 8.05835 27.571 6.20954C26.1484 4.36073 24.3202 2.86333 22.2273 1.83278C20.1345 0.802228 17.833 0.266064 15.5002 0.265625ZM15.5002 29.5156C12.9795 29.5215 10.5046 28.8422 8.34001 27.5504C8.24552 27.5023 8.14134 27.4762 8.03532 27.4742H7.86774L2.80993 28.9215C2.70658 28.9492 2.59775 28.9492 2.49439 28.9216C2.39103 28.8939 2.29677 28.8395 2.22111 28.7638C2.14544 28.6882 2.09104 28.5939 2.06336 28.4905C2.03569 28.3872 2.03571 28.2783 2.06345 28.175L3.51071 23.1172C3.55356 22.9579 3.53165 22.7881 3.44978 22.6449C1.87331 19.9845 1.22098 16.8774 1.5944 13.8076C1.96782 10.7378 3.34602 7.87766 5.51432 5.67275C7.68262 3.46785 10.5193 2.04196 13.5824 1.61721C16.6455 1.19246 19.7631 1.79269 22.4496 3.32441C25.136 4.85612 27.2404 7.23331 28.4351 10.0857C29.6297 12.938 29.8474 16.1054 29.0543 19.0944C28.2613 22.0834 26.5019 24.7262 24.0503 26.6111C21.5987 28.496 18.5926 29.5172 15.5002 29.5156ZM9.40642 15.5C9.40642 15.741 9.33494 15.9767 9.20102 16.1771C9.0671 16.3775 8.87676 16.5337 8.65406 16.626C8.43137 16.7182 8.18631 16.7424 7.9499 16.6953C7.71349 16.6483 7.49633 16.5322 7.32588 16.3618C7.15544 16.1913 7.03936 15.9742 6.99233 15.7378C6.94531 15.5014 6.96944 15.2563 7.06169 15.0336C7.15393 14.8109 7.31014 14.6206 7.51056 14.4866C7.71099 14.3527 7.94662 14.2812 8.18767 14.2812C8.5109 14.2812 8.82089 14.4097 9.04945 14.6382C9.27801 14.8668 9.40642 15.1768 9.40642 15.5ZM16.7189 15.5C16.7189 15.741 16.6474 15.9767 16.5135 16.1771C16.3796 16.3775 16.1893 16.5337 15.9666 16.626C15.7439 16.7182 15.4988 16.7424 15.2624 16.6953C15.026 16.6483 14.8088 16.5322 14.6384 16.3618C14.4679 16.1913 14.3519 15.9742 14.3048 15.7378C14.2578 15.5014 14.2819 15.2563 14.3742 15.0336C14.4664 14.8109 14.6226 14.6206 14.8231 14.4866C15.0235 14.3527 15.2591 14.2812 15.5002 14.2812C15.8234 14.2812 16.1334 14.4097 16.362 14.6382C16.5905 14.8668 16.7189 15.1768 16.7189 15.5ZM24.0314 15.5C24.0314 15.741 23.9599 15.9767 23.826 16.1771C23.6921 16.3775 23.5018 16.5337 23.2791 16.626C23.0564 16.7182 22.8113 16.7424 22.5749 16.6953C22.3385 16.6483 22.1213 16.5322 21.9509 16.3618C21.7804 16.1913 21.6644 15.9742 21.6173 15.7378C21.5703 15.5014 21.5944 15.2563 21.6867 15.0336C21.7789 14.8109 21.9351 14.6206 22.1356 14.4866C22.336 14.3527 22.5716 14.2812 22.8127 14.2812C23.1359 14.2812 23.4459 14.4097 23.6745 14.6382C23.903 14.8668 24.0314 15.1768 24.0314 15.5Z" fill="#FD0E46"/>
</svg>
