<svg width="24" height="24" viewBox="0 0 24 24" fill="none" xmlns="http://www.w3.org/2000/svg">
<path d="M23.8662 8.48419C23.8662 6.16973 21.99 4.29347 19.6755 4.29347C18.2289 4.29347 16.9535 5.02645 16.2004 6.14123C16.1128 3.20067 13.7018 0.84375 10.74 0.84375C7.72276 0.84375 5.27677 3.28969 5.27677 6.30694C5.27677 8.56566 6.64759 10.5041 8.6026 11.3361C8.59909 11.3551 8.59637 11.3743 8.59328 11.3933H6.77532C6.21615 11.3933 5.76282 11.8467 5.76282 12.4058V15.0728L1.64804 13.071C0.955134 12.734 0.0758057 13.1409 0.0758057 13.7986V20.3415C0.0758057 20.9993 0.955181 21.4062 1.64804 21.0691L5.76282 19.0673V21.7343C5.76282 22.2935 6.21615 22.7468 6.77532 22.7468H20.7158C21.2749 22.7468 21.7283 22.2935 21.7283 21.7343V12.4058C21.7283 12.3195 21.7163 12.2362 21.696 12.1562C22.9897 11.4428 23.8662 10.066 23.8662 8.48419Z" fill="#2B3B47"/>
<path d="M4.50575 14.4613L2.9458 13.7024V20.4377L4.50575 19.6788V14.4613ZM14.9306 6.30693C14.9306 8.62138 13.0543 10.4976 10.7399 10.4976C8.42544 10.4976 6.54918 8.62138 6.54918 6.30693C6.54918 3.99248 8.42544 2.11621 10.7399 2.11621C13.0543 2.11621 14.9306 3.99243 14.9306 6.30693ZM19.6754 5.26954C17.9001 5.26954 16.4608 6.70879 16.4608 8.48418C16.4608 10.2596 17.9001 11.6988 19.6754 11.6988C21.4508 11.6988 22.8901 10.2596 22.8901 8.48418C22.8901 6.70879 21.4508 5.26954 19.6754 5.26954Z" fill="#597B91"/>
<path d="M12.9172 6.30689C12.9172 7.50937 11.9424 8.48414 10.74 8.48414C9.53756 8.48414 8.56274 7.50933 8.56274 6.30689C8.56274 5.10445 9.53756 4.12964 10.74 4.12964C11.9424 4.12964 12.9172 5.1044 12.9172 6.30689ZM19.6755 6.30689C18.473 6.30689 17.4982 7.2817 17.4982 8.48414C17.4982 9.68658 18.4731 10.6614 19.6755 10.6614C20.878 10.6614 21.8527 9.68658 21.8527 8.48414C21.8527 7.2817 20.878 6.30689 19.6755 6.30689ZM17.814 21.2646H9.7087C9.41362 21.2646 9.17442 21.0254 9.17442 20.7303V18.6225C9.17442 18.3275 9.41362 18.0883 9.7087 18.0883H17.814C18.1091 18.0883 18.3483 18.3275 18.3483 18.6225V20.7303C18.3483 21.0254 18.1091 21.2646 17.814 21.2646Z" fill="#ADB8BC"/>
<path d="M15.4485 20.2649H14.4128C14.1199 20.2649 13.8824 20.0274 13.8824 19.7345V19.6186C13.8824 19.3257 14.1199 19.0883 14.4128 19.0883H15.4485C15.7414 19.0883 15.9788 19.3257 15.9788 19.6186V19.7345C15.9788 20.0274 15.7414 20.2649 15.4485 20.2649Z" fill="#2B3B47"/>
<path d="M11.6183 20.7023C12.1848 20.7023 12.6441 20.243 12.6441 19.6765C12.6441 19.11 12.1848 18.6508 11.6183 18.6508C11.0518 18.6508 10.5925 19.11 10.5925 19.6765C10.5925 20.243 11.0518 20.7023 11.6183 20.7023Z" fill="#FF473E"/>
</svg>
