<svg width="24" height="24" viewBox="0 0 24 24" fill="none" xmlns="http://www.w3.org/2000/svg">
<rect width="24" height="24" fill="white"/>
<path d="M23.8661 8.48419C23.8661 6.16973 21.9898 4.29347 19.6754 4.29347C18.2288 4.29347 16.9534 5.02645 16.2003 6.14123C16.1127 3.20067 13.7016 0.84375 10.7398 0.84375C7.72264 0.84375 5.27665 3.28969 5.27665 6.30694C5.27665 8.56566 6.64747 10.5041 8.60248 11.3361C8.59897 11.3551 8.59625 11.3743 8.59315 11.3933H6.7752C6.21603 11.3933 5.7627 11.8467 5.7627 12.4058V15.0728L1.64792 13.071C0.955012 12.734 0.0756836 13.1409 0.0756836 13.7986V20.3415C0.0756836 20.9993 0.955059 21.4062 1.64792 21.0691L5.7627 19.0673V21.7343C5.7627 22.2935 6.21603 22.7468 6.7752 22.7468H20.7156C21.2748 22.7468 21.7281 22.2935 21.7281 21.7343V12.4058C21.7281 12.3195 21.7162 12.2362 21.6958 12.1562C22.9895 11.4428 23.8661 10.066 23.8661 8.48419Z" fill="#2B3B47"/>
<path d="M4.50575 14.4613L2.9458 13.7024V20.4377L4.50575 19.6788V14.4613ZM14.9306 6.30693C14.9306 8.62138 13.0543 10.4976 10.7399 10.4976C8.42544 10.4976 6.54918 8.62138 6.54918 6.30693C6.54918 3.99248 8.42544 2.11621 10.7399 2.11621C13.0543 2.11621 14.9306 3.99243 14.9306 6.30693ZM19.6754 5.26954C17.9001 5.26954 16.4608 6.70879 16.4608 8.48418C16.4608 10.2596 17.9001 11.6988 19.6754 11.6988C21.4508 11.6988 22.8901 10.2596 22.8901 8.48418C22.8901 6.70879 21.4508 5.26954 19.6754 5.26954Z" fill="#597B91"/>
<path d="M12.9175 6.30689C12.9175 7.50937 11.9427 8.48414 10.7402 8.48414C9.5378 8.48414 8.56299 7.50933 8.56299 6.30689C8.56299 5.10445 9.5378 4.12964 10.7402 4.12964C11.9427 4.12964 12.9175 5.1044 12.9175 6.30689ZM19.6757 6.30689C18.4733 6.30689 17.4985 7.2817 17.4985 8.48414C17.4985 9.68658 18.4733 10.6614 19.6757 10.6614C20.8782 10.6614 21.853 9.68658 21.853 8.48414C21.853 7.2817 20.8782 6.30689 19.6757 6.30689ZM17.8143 21.2646H9.70894C9.41386 21.2646 9.17466 21.0254 9.17466 20.7303V18.6225C9.17466 18.3275 9.41386 18.0883 9.70894 18.0883H17.8143C18.1094 18.0883 18.3486 18.3275 18.3486 18.6225V20.7303C18.3486 21.0254 18.1094 21.2646 17.8143 21.2646Z" fill="#ADB8BC"/>
<path d="M15.4484 20.2649H14.4127C14.1197 20.2649 13.8823 20.0274 13.8823 19.7345V19.6186C13.8823 19.3257 14.1198 19.0883 14.4127 19.0883H15.4484C15.7413 19.0883 15.9787 19.3257 15.9787 19.6186V19.7345C15.9787 20.0274 15.7413 20.2649 15.4484 20.2649Z" fill="#2B3B47"/>
<path d="M11.6185 20.7023C12.1851 20.7023 12.6443 20.243 12.6443 19.6765C12.6443 19.11 12.1851 18.6508 11.6185 18.6508C11.052 18.6508 10.5928 19.11 10.5928 19.6765C10.5928 20.243 11.052 20.7023 11.6185 20.7023Z" fill="#FF473E"/>
</svg>
