<svg width="24" height="24" viewBox="0 0 24 24" fill="none" xmlns="http://www.w3.org/2000/svg">
<g clip-path="url(#clip0_201_2694)">
<path d="M15.0375 17.55C14.25 18.975 13.5 20.5125 12.7875 22.0875C14.325 22.6125 15.8625 22.9875 17.3625 23.25C17.55 21.8625 17.85 20.5125 18.1875 19.275C18.5625 17.9625 19.0125 16.7625 19.5 15.5625C18.7875 14.9625 18.075 14.2875 17.3625 13.575C16.575 14.85 15.7875 16.1625 15.0375 17.55ZM22.8 6.33752C21.7875 7.46252 20.85 8.62503 19.95 9.82503C19.0875 10.9875 18.225 12.1875 17.4375 13.4625C18.1875 14.175 18.9 14.8125 19.575 15.45C20.1 14.2875 20.6625 13.1625 21.3 12.1125C21.9 11.1 22.575 10.125 23.2875 9.22502C23.1 8.25002 22.95 7.27502 22.8 6.33752Z" fill="#C5D4D8"/>
<path d="M0.75 7.1625C6.45 18.975 12.7875 22.0875 12.7875 22.0875C13.5375 20.475 14.2875 18.975 15.0375 17.55C15.7875 16.1625 16.5375 14.85 17.3625 13.575C14.4 10.7625 11.1 7.35 7.725 3.975C6.375 4.575 5.0625 5.2125 3.7125 5.8125C2.7 6.2625 1.725 6.7125 0.75 7.1625ZM14.8125 0.75C13.8375 1.2 12.8625 1.6125 11.8875 2.0625C10.5375 2.6625 9.225 3.3 7.875 3.9C11.25 7.2375 14.5125 10.65 17.4375 13.4625C18.225 12.1875 19.0875 10.9875 19.95 9.825C20.85 8.625 21.825 7.4625 22.8 6.3375L14.8125 0.75Z" fill="#EAE7E4"/>
<path d="M15.0375 17.5875C15.075 17.55 15.075 17.5125 15.1125 17.475C11.25 14.1375 7.61255 9.75 3.78755 5.8125C3.75005 5.8125 3.71255 5.85 3.67505 5.85C7.50005 9.825 11.1375 14.25 15.0375 17.5875Z" fill="#333333"/>
<path d="M18.225 19.2C18.225 19.2375 18.1875 19.275 18.1875 19.3125C17.1375 18.825 16.0875 18.2625 15 17.5875C15.0375 17.55 15.0375 17.5125 15.075 17.475C16.1625 18.15 17.2125 18.7125 18.225 19.2ZM19.9875 9.7875C19.95 9.825 19.95 9.8625 19.9125 9.9C17.625 7.425 14.7375 4.8375 11.85 2.1C11.8875 2.1 11.925 2.0625 11.9625 2.0625C14.85 4.7625 17.7 7.3125 19.9875 9.7875ZM21.2625 12.1875C21.2625 12.15 21.3 12.1125 21.3 12.1125C20.8875 11.3625 20.4375 10.575 19.9875 9.825C19.95 9.8625 19.95 9.9 19.9125 9.9375C20.3625 10.65 20.8125 11.4375 21.2625 12.1875ZM19.575 15.45C19.575 15.4875 19.5375 15.525 19.5375 15.5625C15.9375 12.375 11.6625 7.875 7.3125 3.5625C7.35 3.525 7.425 3.525 7.4625 3.4875C11.775 7.8 16.0125 12.2625 19.575 15.45Z" fill="#333333"/>
<path d="M17.325 8.81252C17.8125 8.28752 18.2625 7.80002 18.75 7.27502C16.275 5.73752 13.2375 3.71252 9.74995 1.65002L10.1625 2.81252C12.6375 4.98752 15.225 6.90002 17.325 8.81252ZM14.3625 11.925C14.8125 11.4 9.37495 5.62502 5.88745 3.56252L6.44995 4.57502C8.88745 6.71252 12 10.1625 14.3625 11.925Z" fill="#231F20"/>
<path d="M11.0625 15.9C11.5875 15.225 12.9375 13.9125 12.9375 13.9125C12.075 13.125 10.6875 11.0625 10.6875 11.0625L7.80005 13.8375C7.80005 13.8375 9.63755 15.5625 11.0625 15.9Z" fill="#55646D"/>
<path d="M15.9 10.425C15.375 11.025 14.325 11.9625 14.325 11.9625C14.325 11.9625 12.675 10.6875 11.8875 9.89998C12.525 9.33748 14.475 7.72498 14.475 7.72498C14.475 7.72498 15.2625 9.71248 15.9 10.425Z" fill="#55646D"/>
<path d="M18.975 7.08753C18.4125 7.65003 17.8875 8.25003 17.325 8.85003C16.7625 8.21253 16.1625 6.30003 16.1625 6.30003L18.075 4.68753C18.075 4.61253 18.4875 6.45003 18.975 7.08753Z" fill="#55646D"/>
<path d="M16.1625 6.26248L18.075 4.64998L11.8875 0.787476C11.8875 0.787476 10.4625 1.34998 9.78748 1.64998C11.8125 3.37498 16.1625 6.26248 16.1625 6.26248Z" fill="#333333"/>
<path d="M10.725 11.0625L7.83755 13.8375C7.83755 13.8375 3.45005 8.8125 1.98755 5.2875L4.08755 4.125L10.725 11.0625Z" fill="#333333"/>
<path d="M11.8875 9.90002C12.525 9.33752 14.475 7.72502 14.475 7.72502L7.98745 2.40002L5.88745 3.56252C5.88745 3.56252 9.89995 7.80002 11.8875 9.90002Z" fill="#333333"/>
</g>
<defs>
<clipPath id="clip0_201_2694">
<rect width="24" height="24" fill="white"/>
</clipPath>
</defs>
</svg>
