<svg width="24" height="24" viewBox="0 0 24 24" fill="none" xmlns="http://www.w3.org/2000/svg">
<path fill-rule="evenodd" clip-rule="evenodd" d="M2.65121 13.9182C3.23809 12.9713 1.96684 11.8069 1.81121 11.16C1.22434 8.73754 2.67184 7.05567 3.74996 6.32629C5.33059 8.02317 6.21559 12.0244 2.65121 13.9182Z" fill="#727F48"/>
<path d="M8.85182 23.4319H7.0387C7.17745 22.4382 8.03807 19.7082 8.25932 18.4969C8.78995 15.585 9.09932 13.6744 8.88745 11.7075C8.71682 10.1232 8.03807 5.89317 8.59307 3.71817C9.0712 1.83942 10.2618 0.720041 12.1724 0.583166C14.2762 0.429416 15.7856 1.50192 16.6143 3.38254L15.8549 3.66379C15.2081 2.10754 13.6687 1.49817 12.4312 1.59004C11.8087 1.63504 10.3106 1.93879 9.83807 3.79129C9.35807 5.67754 10.2224 10.9275 10.2993 11.5257C10.5806 13.7082 9.95807 17.1244 9.4087 20.1394C9.1912 21.3357 8.98682 22.4682 8.85182 23.4319Z" fill="#727F48"/>
<path fill-rule="evenodd" clip-rule="evenodd" d="M14.2388 20.4094C14.745 21.3263 15.6056 22.6013 17.3738 22.6707C21.0319 22.8169 20.9756 21.0094 20.835 20.7319C20.6813 20.8557 20.4956 20.9269 20.0044 20.9176C19.4869 20.9082 18.8438 20.2819 17.7731 20.2463C17.0363 20.2201 15.9038 20.5088 15.2288 20.6176C14.5613 20.7244 14.625 20.2444 14.2388 20.4094Z" fill="#880E4F"/>
<path fill-rule="evenodd" clip-rule="evenodd" d="M15.0413 18.4894C14.8951 17.7169 15.0657 16.9706 15.0394 16.515C14.9382 14.8125 13.6538 14.0006 12.8026 13.74C12.1069 15.1669 12.3301 17.9625 15.0413 18.4894Z" fill="#727F48"/>
<path d="M10.1475 15.5981L9.63184 15.3093C9.89621 14.8368 10.6256 13.7156 11.6625 13.5168C12.1931 13.4137 12.7181 13.5675 13.2168 13.9706L12.8456 14.43C12.4818 14.1375 12.1312 14.0287 11.7731 14.0962C10.9575 14.2518 10.3237 15.285 10.1475 15.5981Z" fill="#727F48"/>
<path fill-rule="evenodd" clip-rule="evenodd" d="M19.845 9.3919C19.0256 9.16128 17.3962 9.42378 16.7512 10.1344C16.1062 10.845 15.9581 12.2719 16.785 11.6625C17.6119 11.0532 20.7806 9.59815 19.845 9.3919Z" fill="#880E4F"/>
<path d="M16.4456 12.09C16.2675 12.09 16.1512 12 16.095 11.9419C15.72 11.5538 16.0275 10.5038 16.5337 9.94688C17.2462 9.16313 18.9656 8.85376 19.92 9.11813C20.2162 9.18751 20.2875 9.36563 20.3044 9.46688C20.37 9.88688 19.7719 10.2656 18.1725 11.1638C17.6737 11.4431 17.2031 11.7075 16.9631 11.8838C16.7531 12.0394 16.5806 12.09 16.4456 12.09ZM19.1531 9.58876C18.375 9.58876 17.3869 9.86063 16.9706 10.3181C16.62 10.7044 16.4831 11.2838 16.5094 11.5013C16.5337 11.4881 16.5675 11.4675 16.6087 11.4375C16.8769 11.2406 17.3644 10.9669 17.8781 10.6781C18.4181 10.3763 19.2562 9.90376 19.5956 9.62438C19.4606 9.60001 19.3106 9.58876 19.1531 9.58876Z" fill="#880E4F"/>
<path fill-rule="evenodd" clip-rule="evenodd" d="M20.4338 9.19508C20.6025 9.67133 19.8844 10.9501 18.9656 11.5463C18.045 12.1426 17.0831 11.9626 16.7813 11.8876C16.4794 11.8126 16.5544 11.5107 17.1675 11.5576C17.7806 11.6063 19.2544 10.4888 19.6519 10.007C20.0494 9.52508 20.2969 8.97945 20.4338 9.19508Z" fill="#C2185B"/>
<path d="M17.49 12.2532C17.1544 12.2532 16.8787 12.2007 16.7137 12.1613C16.41 12.0863 16.3031 11.8594 16.3331 11.6794C16.35 11.5707 16.4662 11.22 17.19 11.2782H17.2144C17.6831 11.2782 19.0275 10.3238 19.4362 9.82691C19.5544 9.68441 19.6612 9.53066 19.755 9.39566C19.9781 9.07503 20.1262 8.86316 20.3644 8.86316H20.3737C20.4956 8.86503 20.6044 8.93066 20.6756 9.04316L20.7037 9.09941C20.9306 9.74253 20.1037 11.145 19.1231 11.7788C18.5456 12.1538 17.9569 12.2532 17.49 12.2532ZM19.8469 10.2132C19.5431 10.5638 18.6225 11.3232 17.8556 11.6663C18.1575 11.6232 18.4894 11.52 18.8137 11.31C19.2431 11.0325 19.6031 10.6069 19.8469 10.2132Z" fill="#C2185B"/>
<path fill-rule="evenodd" clip-rule="evenodd" d="M17.3606 9.54555C16.4906 9.92242 14.3849 9.6168 14.3137 10.678C14.2406 11.7393 15.1893 12.0205 15.8999 12.1274C16.6106 12.2343 15.9674 11.9268 15.7837 11.6568C15.5999 11.3849 16.0968 10.3855 16.6462 10.2487C17.1937 10.1118 17.8856 9.31867 17.3606 9.54555Z" fill="#AD1457"/>
<path d="M16.1156 12.4312C16.0275 12.4312 15.9356 12.4181 15.8568 12.4049C14.58 12.2118 13.9668 11.6249 14.0325 10.6593C14.0962 9.7237 15.2306 9.5962 16.1437 9.49495C16.56 9.44807 16.9931 9.39932 17.2481 9.2887C17.3306 9.25307 17.5481 9.15932 17.7168 9.29995C17.8106 9.37682 17.8481 9.4987 17.82 9.62245C17.7506 9.9262 17.1506 10.4156 16.7118 10.5243C16.3387 10.6162 15.9937 11.3231 16.0237 11.5143C16.0668 11.5706 16.1587 11.6474 16.2262 11.7056C16.3856 11.8406 16.5843 12.0093 16.4793 12.2418C16.4081 12.3918 16.2656 12.4312 16.1156 12.4312ZM16.4268 10.0274C16.3537 10.0368 16.2806 10.0443 16.2056 10.0518C15.2793 10.1549 14.6231 10.2618 14.5931 10.6968C14.5556 11.2443 14.8443 11.5818 15.5193 11.7637C15.4087 11.5462 15.4762 11.2612 15.5568 11.0512C15.705 10.6612 16.0312 10.2037 16.4268 10.0274Z" fill="#AD1457"/>
<path fill-rule="evenodd" clip-rule="evenodd" d="M21.9281 10.395C22.2244 9.63748 21.0319 8.78623 20.5912 8.14123C20.1487 7.49623 19.5506 7.41186 18.9637 7.46623C18.3769 7.52061 19.1944 7.96686 19.7306 8.45436C20.2669 8.93998 20.9587 9.95623 20.2781 10.7081C19.5975 11.46 19.3744 12.1369 19.995 11.7225C20.6137 11.3062 21.8906 11.1919 21.9281 10.395Z" fill="#880E4F"/>
<path d="M19.6987 12.1294C19.5937 12.1294 19.5056 12.0882 19.4362 12.0075C19.1325 11.655 19.7006 10.9238 20.0681 10.5188C20.2969 10.2657 20.34 9.95817 20.1956 9.58129C20.0794 9.27192 19.8337 8.92879 19.5394 8.66254C19.4025 8.53879 19.2469 8.41692 19.095 8.29879C18.6806 7.97629 18.4069 7.76442 18.4912 7.47379C18.54 7.30504 18.69 7.20942 18.9356 7.18692C19.4756 7.13629 20.2594 7.16442 20.8219 7.98379C20.9362 8.15067 21.1144 8.34192 21.3037 8.54442C21.8381 9.11629 22.44 9.76504 22.2056 10.455C22.1437 11.145 21.42 11.4207 20.8369 11.6438C20.5725 11.745 20.325 11.8407 20.1506 11.9569C19.9762 12.0713 19.8262 12.1294 19.6987 12.1294ZM19.2862 7.73442C19.3387 7.77567 19.3912 7.81692 19.44 7.85442C19.5919 7.97254 19.7644 8.10754 19.9181 8.24442C20.0887 8.40004 20.5106 8.82004 20.7225 9.38067C20.9419 9.95817 20.8594 10.4832 20.4862 10.8957C20.3475 11.0494 20.235 11.1919 20.1487 11.3157C20.3044 11.2425 20.4731 11.1788 20.6381 11.115C21.2381 10.8863 21.6337 10.71 21.6487 10.38L21.6506 10.3332L21.6675 10.29C21.8156 9.91129 21.3262 9.38629 20.8931 8.92317C20.6887 8.70379 20.4975 8.49754 20.3587 8.29692C20.1 7.92379 19.77 7.74567 19.2862 7.73442Z" fill="#880E4F"/>
<path fill-rule="evenodd" clip-rule="evenodd" d="M20.1356 9.29251C19.7756 8.64751 18.7256 7.30689 17.8481 7.67439C16.9725 8.04189 15.9093 9.14064 15.1593 9.54376C14.4093 9.94689 13.9368 10.3988 15.8531 9.85501C17.7712 9.31126 18.7687 9.36564 19.275 9.45564C19.7812 9.54751 20.4412 9.65064 20.1356 9.29251Z" fill="#991052"/>
<path d="M14.6625 10.3856C14.4225 10.3856 14.3044 10.3106 14.2444 10.1643C14.1357 9.89621 14.3475 9.65997 15.0244 9.29621C15.3282 9.13309 15.7013 8.83684 16.095 8.52184C16.6407 8.08684 17.205 7.63871 17.7375 7.41559C18.8325 6.95434 19.9932 8.47871 20.3663 9.13309C20.5388 9.34871 20.505 9.51371 20.4469 9.61684C20.2838 9.89996 19.8563 9.84559 19.2244 9.73309C18.45 9.59246 17.3419 9.72559 15.93 10.125C15.3169 10.2993 14.9194 10.3856 14.6625 10.3856ZM18.1594 7.89371C18.0882 7.89371 18.0207 7.90684 17.9569 7.93309C17.4975 8.12621 16.9632 8.54996 16.4475 8.96246C16.1213 9.22121 15.81 9.46871 15.5232 9.65434C15.6019 9.63371 15.6863 9.61121 15.7782 9.58496C17.2744 9.16121 18.4669 9.02621 19.3257 9.17996C19.5132 9.21371 19.665 9.23809 19.7832 9.25121C19.41 8.66996 18.7125 7.89371 18.1594 7.89371Z" fill="#991052"/>
<path d="M8.50689 7.83751C7.91252 7.23564 5.82002 5.39439 3.82877 7.00314L3.45752 6.54376C5.34564 5.01751 7.52252 5.99814 8.92689 7.42314L8.50689 7.83751Z" fill="#727F48"/>
<path fill-rule="evenodd" clip-rule="evenodd" d="M17.9174 7.26761C17.0699 6.94323 15.8493 6.12948 15.4499 5.66073C15.0506 5.19198 14.5912 4.82261 14.0906 5.96448C13.5899 7.10636 13.8356 8.22948 13.5562 8.85011C13.2768 9.47073 12.6149 10.3689 13.1418 10.5376C13.6687 10.7082 14.4937 9.66761 15.4143 9.40698C16.3312 9.14636 18.5137 7.52073 17.9174 7.26761Z" fill="#AD1457"/>
<path d="M13.2656 10.8394C13.1943 10.8394 13.125 10.8282 13.0537 10.8057C12.8418 10.7363 12.7462 10.5975 12.7031 10.4925C12.5587 10.1344 12.81 9.66567 13.0762 9.16692C13.1587 9.0113 13.2375 8.86505 13.2975 8.7338C13.3968 8.51442 13.4175 8.18067 13.4437 7.79442C13.4793 7.23942 13.5262 6.54755 13.8318 5.85005C14.085 5.27442 14.3587 4.98192 14.6962 4.93317C15.1406 4.86755 15.4931 5.27817 15.6618 5.47692C16.0125 5.88755 17.1918 6.68817 18.0168 7.00317L18.0262 7.00692C18.2081 7.0838 18.3112 7.24505 18.2981 7.4363C18.255 8.13567 16.2975 9.4463 15.4875 9.67692C15.1125 9.7838 14.7281 10.0557 14.3868 10.2938C13.98 10.5844 13.6181 10.8394 13.2656 10.8394ZM13.2225 10.2694C13.395 10.3088 13.7662 10.0482 14.0643 9.8363C14.4412 9.57005 14.8668 9.27005 15.3337 9.13692C16.0462 8.93442 17.445 7.89942 17.7 7.48317C16.8506 7.13067 15.6637 6.34505 15.2343 5.84255C15.0225 5.59505 14.8668 5.47692 14.7787 5.49005C14.7468 5.4938 14.58 5.54442 14.3475 6.07692C14.0812 6.68442 14.0418 7.2938 14.0062 7.83192C13.9781 8.27255 13.9518 8.65317 13.8112 8.9663C13.7437 9.11442 13.6575 9.27755 13.5731 9.43505C13.4437 9.67692 13.2056 10.1213 13.2225 10.2694Z" fill="#AD1457"/>
<path fill-rule="evenodd" clip-rule="evenodd" d="M15.0337 4.31995C14.5499 4.80745 13.6874 4.01808 13.3668 3.9862C13.3724 3.77808 13.7962 3.63183 13.9724 3.58495C14.2668 3.5062 14.5931 3.5587 14.9043 3.53995C14.9306 3.33558 14.6231 2.99808 14.7881 2.79183C15.1762 2.65308 15.7124 3.23995 16.1137 3.2062C16.2037 2.91183 16.1418 2.96058 16.2618 2.60245C16.3256 2.41308 16.9612 2.00058 17.2331 2.1037C17.3549 2.20308 17.0531 2.67558 16.9218 2.98683C17.3343 2.99433 17.3812 2.8462 17.7974 2.81245C18.0731 2.78995 18.2512 2.86495 18.4912 2.90058C18.2381 3.0487 17.9981 3.2137 17.7393 3.32995C17.4881 3.44245 17.4693 3.6862 16.9743 3.6337C16.7831 3.6112 15.6562 3.79683 15.0337 4.31995Z" fill="#727F48"/>
<path fill-rule="evenodd" clip-rule="evenodd" d="M21.8137 8.55198C21.5231 8.99073 21.36 7.96698 20.7037 7.81323C20.0475 7.65948 18.5944 7.51886 17.2837 6.87761C15.9731 6.23448 13.6725 5.10386 16.1681 4.40073C18.6637 3.69761 19.2675 4.51511 19.9987 5.65136C20.7337 6.78761 22.6125 7.86948 21.8137 8.55198Z" fill="#9B1053"/>
<path d="M21.6694 8.94192C21.4369 8.94192 21.3 8.75255 21.1537 8.55192C21.0131 8.3588 20.8556 8.13755 20.6381 8.08692C20.4956 8.05317 20.3044 8.01942 20.085 7.98005C19.335 7.84505 18.2044 7.64067 17.1581 7.1288C15.8156 6.47067 14.7094 5.86505 14.7769 5.12442C14.8294 4.55067 15.5512 4.28255 16.0912 4.13067C18.66 3.40692 19.3987 4.2038 20.235 5.49942C20.4712 5.86692 20.8462 6.23817 21.21 6.5963C21.7987 7.17942 22.3069 7.68192 22.2881 8.19942C22.2806 8.40567 22.1925 8.58755 22.0237 8.73942C21.9262 8.87067 21.81 8.93817 21.6769 8.94005C21.675 8.94192 21.6712 8.94192 21.6694 8.94192ZM17.7487 4.41942C17.3512 4.41942 16.8619 4.4963 16.245 4.67067C15.5925 4.85442 15.3487 5.05692 15.3394 5.17505C15.3019 5.5913 16.8319 6.3413 17.4094 6.62442C18.3844 7.10067 19.47 7.29755 20.1881 7.42692C20.415 7.46817 20.6119 7.5038 20.7694 7.5413C21.1912 7.64067 21.4444 7.9913 21.6112 8.2238C21.63 8.24817 21.6487 8.2763 21.6694 8.30442C21.7181 8.25192 21.7256 8.21255 21.7275 8.18067C21.7369 7.9088 21.2475 7.42505 20.8162 6.99755C20.4319 6.61692 20.0344 6.22317 19.7644 5.80505C19.2675 5.03255 18.8719 4.41942 17.7487 4.41942Z" fill="#9B1053"/>
</svg>
