<svg width="150" height="150" viewBox="0 0 150 150" fill="none" xmlns="http://www.w3.org/2000/svg">
<circle cx="75" cy="75" r="75" fill="#FDE0E7"/>
<circle cx="75" cy="75" r="58" fill="#FD0E46"/>
<path fill-rule="evenodd" clip-rule="evenodd" d="M90.3948 62.792C90.7432 63.1067 90.9523 63.5469 90.9762 64.0158C91.0001 64.4847 90.8369 64.9439 90.5223 65.2924L66.8711 91.4317L52.5698 77.7803C52.2487 77.4521 52.0676 77.012 52.0647 76.5529C52.0619 76.0937 52.2375 75.6514 52.5545 75.3193C52.8715 74.9871 53.3051 74.791 53.7639 74.7725C54.2227 74.7539 54.6707 74.9142 55.0136 75.2197L66.6834 86.3582L87.8962 62.9177C88.0523 62.7452 88.2409 62.6052 88.4511 62.5056C88.6614 62.406 88.8892 62.3488 89.1216 62.3373C89.354 62.3257 89.5863 62.3601 89.8054 62.4385C90.0245 62.5168 90.226 62.6375 90.3984 62.7938L90.3948 62.792Z" fill="white"/>
</svg>
