<svg width="24" height="24" viewBox="0 0 24 24" fill="none" xmlns="http://www.w3.org/2000/svg">
<g clip-path="url(#clip0_201_2620)">
<path d="M7.68191 15.1726C6.50066 14.9176 5.14316 15.2382 4.19816 16.1063C3.21566 17.0044 3.00566 18.3394 2.75441 19.5807C2.61566 20.2557 2.56316 21.2213 1.97628 21.6826C1.71191 21.8907 1.46816 21.9019 1.16066 21.8869C1.04066 21.8813 0.481909 21.6901 0.641284 22.0576C0.943159 22.7588 2.44691 23.1844 3.09753 23.3307C4.84691 23.7207 6.72191 23.2444 8.11503 22.1288C8.25941 22.0107 8.40003 21.8869 8.53316 21.7576C9.60941 20.7132 10.4157 19.1101 10.1082 17.5913C9.83066 16.2188 8.83878 15.4219 7.68191 15.1726Z" fill="#855C52"/>
<path d="M7.68191 15.1726C6.50066 14.9176 5.14316 15.2382 4.19816 16.1063C3.21566 17.0044 3.00566 18.3394 2.75441 19.5807C2.61566 20.2557 2.56316 21.2213 1.97628 21.6826C1.71191 21.8907 1.46816 21.9019 1.16066 21.8869C1.04066 21.8813 0.481909 21.6901 0.641284 22.0576C0.943159 22.7588 2.44691 23.1844 3.09753 23.3307C4.84691 23.7207 6.72191 23.2444 8.11503 22.1288C8.25941 22.0107 8.40003 21.8869 8.53316 21.7576C9.60941 20.7132 10.4157 19.1101 10.1082 17.5913C9.83066 16.2188 8.83878 15.4219 7.68191 15.1726Z" fill="#1D1C17"/>
<path d="M5.25005 18.345C5.26693 18.4069 5.2763 18.4819 5.27255 18.5775C5.24818 19.1494 5.65318 19.3482 6.1613 19.4382C6.67693 19.5282 7.3388 19.5282 7.21693 20.2182C7.16255 20.5144 6.98255 20.7094 7.2488 20.9419C7.64818 21.2925 8.51443 21.3788 8.99818 21.1707C9.2963 21.0413 9.7013 20.9494 9.44443 21.42C9.2963 21.6919 9.0563 21.9244 8.86693 22.1719C8.6588 22.4419 8.42068 22.6463 8.14505 22.845C7.94255 22.9932 7.7888 23.1807 7.5638 23.2988C6.99005 23.5932 6.3113 23.5969 5.68693 23.6869C4.85068 23.8069 4.01443 24.135 3.21005 23.7488C2.3588 23.34 1.36318 23.2707 0.532554 22.8244C0.123804 22.605 -0.101196 22.2919 0.0469289 21.8363C0.174429 21.4444 0.478179 21.3432 0.858804 21.3263C1.28818 21.3075 1.6463 21.255 1.91068 20.8763C2.13755 20.5538 2.11318 20.0232 2.15443 19.65C2.2088 19.14 2.24818 18.5944 2.4638 18.1219C2.6438 17.7319 2.83693 17.3438 3.08068 16.9875C3.19505 16.8207 3.32068 16.6144 3.48005 16.4869C3.72755 16.2882 3.99755 16.2244 4.29568 16.1494C4.34443 16.3894 4.09505 16.71 4.0238 16.9313C3.90193 17.31 3.84005 17.7282 4.20755 17.955C4.56193 18.1725 5.13193 17.9213 5.25005 18.345Z" fill="#ED6C30"/>
<path d="M12.0131 10.5244C13.6162 9.22498 16.065 6.38248 17.5556 4.94998C18.4706 4.07248 19.3368 3.12748 20.205 2.21248C20.7543 1.63311 21.5831 0.590607 22.5018 0.770607C22.6612 0.802482 22.7943 0.894357 22.9068 1.00873C23.1562 1.26186 23.0681 1.74561 22.9218 2.03248C22.3368 3.17811 21.4312 4.21498 20.6475 5.23123C20.3475 5.62123 20.0475 6.00748 19.7343 6.38811C18.8231 7.50186 16.74 9.77623 15.8775 10.9294C15.5418 11.3794 15.2193 11.8369 14.9156 12.3075C14.7262 12.5981 14.4731 12.8306 14.3325 13.1475C14.19 13.47 13.59 12.3844 13.5581 12.3019C13.4362 11.9812 13.3031 11.8012 13.0106 11.6419C12.8006 11.5294 11.6325 11.1487 11.7956 10.785C11.8368 10.6875 11.9175 10.6012 12.0131 10.5244Z" fill="#196CA2"/>
<path d="M14.1901 12.7818C13.9632 12.3 13.6557 11.9268 13.3126 11.625C13.2244 11.5462 13.1363 11.4712 13.0576 11.3924C12.5251 10.8693 12.0207 10.6762 11.5669 10.8037C10.8863 10.995 10.6838 11.2931 10.2132 11.8687C10.0857 12.0262 9.96756 12.1706 9.86069 12.2868C9.00194 13.2187 8.97194 13.1493 7.68381 13.7231L7.57506 13.7681C7.28444 13.89 6.88694 14.0568 6.78569 14.4675C6.74256 14.6437 6.74631 14.9175 7.00881 15.2306C7.29569 15.5737 7.63506 15.8118 7.96131 16.0425C8.07944 16.125 8.19569 16.2075 8.31006 16.2956C8.68319 16.5825 9.00756 16.935 9.35069 17.3062L9.55319 17.5256C9.60756 17.5818 9.65631 17.6531 9.71256 17.7243C9.86631 17.9287 10.0557 18.1837 10.3369 18.3187C10.4344 18.3656 10.5188 18.3937 10.6013 18.4087C10.9201 18.465 11.1169 18.2962 11.2201 18.2043L11.2632 18.1687C11.6776 17.8256 12.0019 17.1581 12.1857 16.6875C12.3019 16.3875 12.2926 16.3125 12.3732 16.125C12.5888 15.6318 12.9338 15.2606 13.1232 15C13.4982 14.4843 13.6501 14.2912 13.7944 14.16C14.2219 13.7662 14.4376 13.3125 14.1901 12.7818Z" fill="#C7E4EA"/>
<path d="M14.1901 12.7818C13.9632 12.3 13.6557 11.9268 13.3126 11.625C13.2244 11.5462 13.1363 11.4712 13.0576 11.3924C12.5251 10.8693 12.0207 10.6762 11.5669 10.8037C10.8863 10.995 10.6838 11.2931 10.2132 11.8687C10.0857 12.0262 9.96756 12.1706 9.86069 12.2868C9.00194 13.2187 8.97194 13.1493 7.68381 13.7231L7.57506 13.7681C7.28444 13.89 6.88694 14.0568 6.78569 14.4675C6.74256 14.6437 6.74631 14.9175 7.00881 15.2306C7.29569 15.5737 7.63506 15.8118 7.96131 16.0425C8.07944 16.125 8.19569 16.2075 8.31006 16.2956C8.68319 16.5825 9.00756 16.935 9.35069 17.3062L9.55319 17.5256C9.60756 17.5818 9.65631 17.6531 9.71256 17.7243C9.86631 17.9287 10.0557 18.1837 10.3369 18.3187C10.4344 18.3656 10.5188 18.3937 10.6013 18.4087C10.9201 18.465 11.1169 18.2962 11.2201 18.2043L11.2632 18.1687C11.6776 17.8256 12.0019 17.1581 12.1857 16.6875C12.3019 16.3875 12.2926 16.3125 12.3732 16.125C12.5888 15.6318 12.9338 15.2606 13.1232 15C13.4982 14.4843 13.6501 14.2912 13.7944 14.16C14.2219 13.7662 14.4376 13.3125 14.1901 12.7818Z" fill="#1D1C17"/>
<path d="M11.9982 18.4049C11.8294 18.3749 11.6775 18.2643 11.6007 18.0955C11.5088 17.8874 11.4657 17.6924 11.4263 17.5161C11.3907 17.3586 11.3625 17.2218 11.3007 17.1074C10.7419 16.0499 9.97879 15.2511 8.67004 14.3511C8.27817 14.0811 7.90879 13.9161 7.57879 13.858C7.50916 13.846 7.4426 13.8203 7.38293 13.7825C7.32325 13.7446 7.27164 13.6954 7.23104 13.6375C7.19045 13.5797 7.16168 13.5144 7.14639 13.4454C7.13109 13.3764 7.12957 13.3051 7.14192 13.2355C7.19254 12.943 7.47192 12.748 7.76629 12.7986C8.24817 12.883 8.75817 13.108 9.27942 13.4643C10.2994 14.1655 11.4525 15.088 12.255 16.6068C12.3825 16.8505 12.435 17.083 12.4782 17.2874C12.51 17.428 12.5363 17.5499 12.585 17.6568C12.7069 17.9268 12.585 18.2455 12.315 18.3674C12.2082 18.4124 12.1013 18.4236 11.9982 18.4049Z" fill="#78A3AD"/>
</g>
<defs>
<clipPath id="clip0_201_2620">
<rect width="24" height="24" fill="white"/>
</clipPath>
</defs>
</svg>
