<svg width="24" height="24" viewBox="0 0 24 24" fill="none" xmlns="http://www.w3.org/2000/svg">
<path d="M15.6667 4.66663C16.219 4.66663 16.6667 4.21891 16.6667 3.66663C16.6667 3.11434 16.219 2.66663 15.6667 2.66663C15.1145 2.66663 14.6667 3.11434 14.6667 3.66663C14.6667 4.21891 15.1145 4.66663 15.6667 4.66663Z" fill="#FCEA2B"/>
<path d="M18.6667 14.3C17.5667 14.3 16.8333 8.2 15.6667 8.2C14.5 8.2 13.2667 14.3 12 14.3C12 14.3 12.7 12.4 12.8333 10.7667C12.9 9.93333 12.9333 7.66667 12.9333 7.66667C12.9667 6.73333 13.7333 6 14.6667 6H16.6667C17.6 6 18.3667 6.73333 18.4 7.66667L18.6667 14.3Z" fill="#FCEA2B"/>
<path d="M17.3334 7.93335C17.1667 8.76668 17.3001 10.1667 17.4001 10.6667C17.5001 11.1667 17.5667 12.3 17.6001 12.5333C17.7001 13.5333 17.9667 20.6 17.9667 20.6C18.0001 20.9667 17.7334 21.2 17.4667 21.2C17.2001 21.2 17.0001 21 16.9667 20.7667L16.0667 13C16.0334 12.8 15.9001 12.6334 15.6667 12.6334C15.4334 12.6334 15.3001 12.8 15.2667 13L14.3667 20.7667C14.3334 21 14.1334 21.2 13.8667 21.2C13.6001 21.2 13.3334 20.9667 13.3667 20.6C13.3667 20.6 13.6334 13.5333 13.7334 12.5333C13.7334 12.3 13.8334 11.1333 13.9334 10.6667C14.0334 10.1667 14.1667 8.76668 14.0001 7.93335" fill="#FCEA2B"/>
<path d="M8.33337 4.66663C8.88566 4.66663 9.33337 4.21891 9.33337 3.66663C9.33337 3.11434 8.88566 2.66663 8.33337 2.66663C7.78109 2.66663 7.33337 3.11434 7.33337 3.66663C7.33337 4.21891 7.78109 4.66663 8.33337 4.66663Z" fill="#FCEA2B"/>
<path d="M5.60004 7.66667C5.63337 6.73333 6.40004 6 7.33337 6H9.33337C10.2667 6 11.0334 6.73333 11.0667 7.66667C11.0667 7.66667 11.1 9.9 11.1667 10.7667C11.3 12.4 12 14.3 12 14.3C10.7334 14.3 9.50004 8.2 8.33337 8.2C7.16671 8.2 6.43337 14.3 5.33337 14.3L5.60004 7.66667Z" fill="#FCEA2B"/>
<path d="M10 7.93335C9.83335 8.76668 9.96668 10.1667 10.0667 10.6667C10.1667 11.1667 10.2333 12.3 10.2667 12.5333C10.3667 13.5333 10.6333 20.6 10.6333 20.6C10.6667 20.9667 10.4 21.2 10.1333 21.2C9.86668 21.2 9.66668 21 9.63335 20.7667L8.73335 13C8.70002 12.8 8.56668 12.6334 8.33335 12.6334C8.10002 12.6334 7.96668 12.8 7.93335 13L7.03335 20.7667C7.00002 21 6.80002 21.2 6.53335 21.2C6.26668 21.2 6.00002 20.9667 6.03335 20.6C6.03335 20.6 6.30002 13.5333 6.40002 12.5333C6.40002 12.3 6.50002 11.1333 6.60002 10.6667C6.70002 10.1667 6.83335 8.76668 6.66668 7.93335" fill="#FCEA2B"/>
<path d="M8.33337 4.66663C8.88566 4.66663 9.33337 4.21891 9.33337 3.66663C9.33337 3.11434 8.88566 2.66663 8.33337 2.66663C7.78109 2.66663 7.33337 3.11434 7.33337 3.66663C7.33337 4.21891 7.78109 4.66663 8.33337 4.66663Z" stroke="#1D1C17" stroke-width="2" stroke-miterlimit="10"/>
<path d="M5.33337 13.9667L5.60004 7.66667C5.63337 6.73333 6.40004 6 7.33337 6H9.33337C10.2667 6 11.0334 6.73333 11.0667 7.66667C11.0667 7.66667 11.1 9.9 11.1667 10.7667C11.3 12.4 12 13.9667 12 13.9667" stroke="#1D1C17" stroke-width="2" stroke-linecap="round" stroke-linejoin="round"/>
<path d="M15.6667 4.66663C16.219 4.66663 16.6667 4.21891 16.6667 3.66663C16.6667 3.11434 16.219 2.66663 15.6667 2.66663C15.1145 2.66663 14.6667 3.11434 14.6667 3.66663C14.6667 4.21891 15.1145 4.66663 15.6667 4.66663Z" stroke="#1D1C17" stroke-width="2" stroke-miterlimit="10"/>
<path d="M12 13.9667C12 13.9667 12.7 12.4 12.8333 10.7667C12.9 9.93333 12.9333 7.66667 12.9333 7.66667C12.9667 6.73333 13.7333 6 14.6667 6H16.6667C17.6 6 18.3667 6.73333 18.4 7.66667L18.6667 13.9667M10 7.93333C9.83335 8.76667 9.96668 10.1667 10.0667 10.6667C10.1667 11.1667 10.2333 12.3 10.2667 12.5333C10.3667 13.5333 10.6333 20.6 10.6333 20.6C10.6667 20.9667 10.4 21.2 10.1333 21.2C9.86668 21.2 9.66668 21 9.63335 20.7667L8.73335 13C8.70002 12.8 8.56668 12.6333 8.33335 12.6333C8.10002 12.6333 7.96668 12.8 7.93335 13L7.03335 20.7667C7.00002 21 6.80002 21.2 6.53335 21.2C6.26668 21.2 6.00002 20.9667 6.03335 20.6C6.03335 20.6 6.30002 13.5333 6.40002 12.5333C6.40002 12.3 6.50002 11.1333 6.60002 10.6667C6.70002 10.1667 6.83335 8.76667 6.66668 7.93333" stroke="#1D1C17" stroke-width="2" stroke-linecap="round" stroke-linejoin="round"/>
<path d="M17.3334 7.93335C17.1667 8.76668 17.3001 10.1667 17.4001 10.6667C17.5001 11.1667 17.5667 12.3 17.6001 12.5333C17.7001 13.5333 17.9667 20.6 17.9667 20.6C18.0001 20.9667 17.7334 21.2 17.4667 21.2C17.2001 21.2 17.0001 21 16.9667 20.7667L16.0667 13C16.0334 12.8 15.9001 12.6334 15.6667 12.6334C15.4334 12.6334 15.3001 12.8 15.2667 13L14.3667 20.7667C14.3334 21 14.1334 21.2 13.8667 21.2C13.6001 21.2 13.3334 20.9667 13.3667 20.6C13.3667 20.6 13.6334 13.5333 13.7334 12.5333C13.7334 12.3 13.8334 11.1333 13.9334 10.6667C14.0334 10.1667 14.1667 8.76668 14.0001 7.93335" stroke="#1D1C17" stroke-width="2" stroke-linecap="round" stroke-linejoin="round"/>
</svg>
