<svg width="31" height="31" viewBox="0 0 31 31" fill="none" xmlns="http://www.w3.org/2000/svg">
<path d="M25.0664 21.4336C24.3398 20.707 23.5124 20.485 22.584 20.7676L20.6465 18.8301C22.3822 16.6908 23.25 14.2891 23.25 11.625C23.25 8.39583 22.1198 5.65104 19.8594 3.39062C17.599 1.13021 14.8542 0 11.625 0C8.39583 0 5.65104 1.13021 3.39062 3.39062C1.13021 5.65104 0 8.39583 0 11.625C0 14.8542 1.13021 17.599 3.39062 19.8594C5.65104 22.1198 8.39583 23.25 11.625 23.25C14.4505 23.25 16.8522 22.3822 18.8301 20.6465L20.7676 22.584C20.5254 23.5527 20.7474 24.3802 21.4336 25.0664L26.5801 30.2129C27.1048 30.7376 27.7103 31 28.3965 31C29.123 31 29.7285 30.7376 30.2129 30.2129C30.7376 29.6882 31 29.0827 31 28.3965C31 27.7103 30.7376 27.1048 30.2129 26.5801L25.0664 21.4336ZM11.625 20.6465C9.1224 20.6465 6.99316 19.7686 5.2373 18.0127C3.48145 16.2568 2.60352 14.1276 2.60352 11.625C2.60352 9.1224 3.48145 6.99316 5.2373 5.2373C6.99316 3.48145 9.1224 2.60352 11.625 2.60352C14.1276 2.60352 16.2568 3.48145 18.0127 5.2373C19.7686 6.99316 20.6465 9.1224 20.6465 11.625C20.6465 14.1276 19.7686 16.2568 18.0127 18.0127C16.2568 19.7686 14.1276 20.6465 11.625 20.6465Z" fill="white"/>
</svg>
