<svg width="294" height="260" viewBox="0 0 294 260" fill="none" xmlns="http://www.w3.org/2000/svg">
<path d="M164.869 99.5618C179.821 125.459 186.987 152.245 186.746 174.442C186.503 196.792 178.864 213.303 165.658 220.928C152.451 228.552 134.333 226.912 114.856 215.947C95.5125 205.058 75.8979 185.459 60.9462 159.562C45.9944 133.665 38.8284 106.878 39.0695 84.682C39.3124 62.3318 46.9513 45.8209 60.1577 38.1962C73.364 30.5715 91.4824 32.2114 110.96 43.1762C130.303 54.0656 149.917 73.6646 164.869 99.5618Z" stroke="#FD0E46" stroke-width="12"/>
<path d="M232.369 159.562C217.417 185.459 197.803 205.058 178.46 215.947C158.982 226.912 140.864 228.552 127.658 220.928C114.451 213.303 106.812 196.792 106.57 174.442C106.328 152.245 113.494 125.459 128.446 99.5618C143.398 73.6646 163.012 54.0656 182.356 43.1762C201.833 32.2114 219.951 30.5715 233.158 38.1962C246.364 45.8209 254.003 62.3318 254.246 84.682C254.487 106.878 247.321 133.665 232.369 159.562Z" stroke="#FD0E46" stroke-width="12"/>
</svg>
