<svg width="24" height="24" viewBox="0 0 24 24" fill="none" xmlns="http://www.w3.org/2000/svg">
<rect width="24" height="24" fill="white"/>
<path d="M16.75 13.5C15.65 12 14.15 11 12 11C9.85 11 8.35 12 7.25 13.5H16.75Z" fill="#2196F3"/>
<path d="M17.0498 21.5H6.9498C6.3998 21.5 5.9998 21.1 5.9498 20.55L5.5498 14.05C5.5498 13.5 5.9998 13 6.5498 13H17.4498C18.0498 13 18.4998 13.5 18.4498 14.05L18.0498 20.55C17.9998 21.1 17.5998 21.5 17.0498 21.5Z" fill="#546E7A"/>
<path d="M17 15C17.2761 15 17.5 14.7761 17.5 14.5C17.5 14.2239 17.2761 14 17 14C16.7239 14 16.5 14.2239 16.5 14.5C16.5 14.7761 16.7239 15 17 15Z" fill="#B0BEC5"/>
<path d="M12 10C14.2091 10 16 8.20914 16 6C16 3.79086 14.2091 2 12 2C9.79086 2 8 3.79086 8 6C8 8.20914 9.79086 10 12 10Z" fill="#FFB74D"/>
<path d="M8.0499 21.2L7.4999 21.75C7.1999 22.05 6.6999 22.05 6.3999 21.75L4.7499 20.1C4.4499 19.8 4.4499 19.3 4.7499 19L5.2999 18.45C5.9499 17.8 6.8499 17.8 7.4999 18.45L8.0499 19C8.6499 19.65 8.6499 20.6 8.0499 21.2ZM15.9499 19L16.4999 18.45C17.1499 17.8 18.0499 17.8 18.6999 18.45L19.2499 19C19.5499 19.3 19.5499 19.8 19.2499 20.1L17.5999 21.75C17.2999 22.05 16.7999 22.05 16.4999 21.75L15.9499 21.2C15.3499 20.6 15.3499 19.65 15.9499 19Z" fill="#FFB74D"/>
</svg>
